# This file uses centimeters as units for non-parametric coordinates.

mtllib clock.mtl
g default
v 10.298609 0.572535 3.023591
v 10.121927 0.645719 3.023591
v 9.945246 0.572535 3.023591
v 9.872062 0.395854 3.023591
v 9.945246 0.219172 3.023591
v 10.121927 0.145988 3.023591
v 10.298609 0.219172 3.023591
v 10.371793 0.395854 3.023591
v 10.298609 0.572535 3.090104
v 10.121927 0.645719 3.090104
v 9.945246 0.572535 3.090104
v 9.872062 0.395854 3.090104
v 9.945246 0.219172 3.090104
v 10.121927 0.145988 3.090104
v 10.298609 0.219172 3.090104
v 10.371793 0.395854 3.090104
v 10.121927 0.395854 3.023591
v 10.106995 0.403451 3.170510
v 10.301607 0.403451 3.170510
v 10.106995 0.437422 3.170510
v 10.301607 0.437422 3.170510
v 10.106995 0.437422 3.109302
v 10.301607 0.437422 3.109302
v 10.106995 0.403451 3.109302
v 10.301607 0.403451 3.109302
v 10.106695 0.405109 3.170510
v 10.106695 0.166726 3.170510
v 10.143534 0.405109 3.170510
v 10.143534 0.166726 3.170510
v 10.143534 0.405109 3.109302
v 10.143534 0.166726 3.109302
v 10.106695 0.405109 3.109302
v 10.106695 0.166726 3.109302
v 10.269830 0.543753 3.090104
v 10.121927 0.605016 3.090104
v 10.121927 0.395854 3.090104
v 9.974025 0.543753 3.090104
v 9.912766 0.395854 3.090104
v 9.974025 0.247954 3.090104
v 10.121927 0.186691 3.090104
v 10.269830 0.247953 3.090104
v 10.331088 0.395854 3.090104
v 10.298609 0.572535 3.117708
v 10.121927 0.645719 3.117708
v 10.121927 0.605016 3.117708
v 10.269830 0.543753 3.117708
v 9.945246 0.572535 3.117708
v 9.974025 0.543753 3.117708
v 9.872062 0.395854 3.117708
v 9.912766 0.395854 3.117708
v 9.945246 0.219172 3.117708
v 9.974025 0.247954 3.117708
v 10.121927 0.145988 3.117708
v 10.121927 0.186691 3.117708
v 10.298609 0.219172 3.117708
v 10.269830 0.247953 3.117708
v 10.371793 0.395854 3.117708
v 10.331088 0.395854 3.117708
vt 0.148026 0.528876
vt 0.098423 0.549423
vt 0.098423 0.549423
vt 0.148026 0.528876
vt 0.048820 0.528876
vt 0.048820 0.528876
vt 0.028273 0.479273
vt 0.028273 0.479273
vt 0.048820 0.429670
vt 0.048820 0.429670
vt 0.098423 0.409124
vt 0.098423 0.409124
vt 0.148026 0.429670
vt 0.148026 0.429670
vt 0.168572 0.479273
vt 0.168572 0.479273
vt 0.098423 0.479273
vt 0.098423 0.479273
vt 0.867609 0.965660
vt 0.933096 0.965660
vt 0.933096 0.977091
vt 0.867609 0.977091
vt 0.933096 0.977091
vt 0.867609 0.977091
vt 0.933096 0.965660
vt 0.867609 0.965660
vt 0.867508 0.966217
vt 0.867508 0.886002
vt 0.879904 0.886002
vt 0.879904 0.966217
vt 0.879904 0.886002
vt 0.879904 0.966217
vt 0.867508 0.886002
vt 0.867508 0.966217
vt 0.148026 0.528876
vt 0.098423 0.549423
vt 0.048820 0.528876
vt 0.028273 0.479273
vt 0.048820 0.429670
vt 0.098423 0.409124
vt 0.148026 0.429670
vt 0.168572 0.479273
vt 0.941565 0.943494
vt 0.098423 0.549423
vt 0.891962 0.964040
vt 0.148026 0.528876
vt 0.048820 0.528876
vt 0.842359 0.943494
vt 0.028273 0.479273
vt 0.821813 0.893891
vt 0.048820 0.429670
vt 0.842359 0.844288
vt 0.098423 0.409124
vt 0.891962 0.823742
vt 0.148026 0.429670
vt 0.941565 0.844288
vt 0.168572 0.479273
vt 0.962111 0.893891
vt 0.168572 0.479273
vt 0.941565 0.943494
vt 0.962111 0.893891
vt 0.148026 0.528876
vt 0.148026 0.429670
vt 0.941565 0.844288
vt 0.098423 0.409124
vt 0.891962 0.823742
vt 0.048820 0.429670
vt 0.842359 0.844288
vt 0.028273 0.479273
vt 0.821813 0.893891
vt 0.048820 0.528876
vt 0.842359 0.943494
vt 0.098423 0.549423
vt 0.891962 0.964040
vn 0.382683 0.923880 0.000000
vn 0.382683 0.923880 0.000000
vn 0.382683 0.923880 0.000000
vn 0.382683 0.923880 0.000000
vn -0.382683 0.923880 0.000000
vn -0.382683 0.923880 0.000000
vn -0.382683 0.923880 0.000000
vn -0.382683 0.923880 0.000000
vn -0.923880 0.382683 0.000000
vn -0.923880 0.382683 0.000000
vn -0.923880 0.382683 0.000000
vn -0.923880 0.382683 0.000000
vn -0.923880 -0.382683 0.000000
vn -0.923880 -0.382683 0.000000
vn -0.923880 -0.382683 0.000000
vn -0.923880 -0.382683 0.000000
vn -0.382684 -0.923879 0.000000
vn -0.382684 -0.923879 0.000000
vn -0.382684 -0.923879 0.000000
vn -0.382684 -0.923879 0.000000
vn 0.382684 -0.923879 0.000000
vn 0.382684 -0.923879 0.000000
vn 0.382684 -0.923879 0.000000
vn 0.382684 -0.923879 0.000000
vn 0.923879 -0.382684 0.000000
vn 0.923879 -0.382684 0.000000
vn 0.923879 -0.382684 0.000000
vn 0.923879 -0.382684 0.000000
vn 0.923880 0.382683 0.000000
vn 0.923880 0.382683 0.000000
vn 0.923880 0.382683 0.000000
vn 0.923880 0.382683 0.000000
vn 0.000000 0.000000 -1.000000
vn -0.000001 0.000000 -1.000000
vn 0.000000 0.000000 -1.000000
vn 0.000001 0.000000 -1.000000
vn 0.000000 0.000000 -1.000000
vn 0.000000 0.000000 -1.000000
vn 0.000000 0.000000 -1.000000
vn 0.000000 0.000000 -1.000000
vn 0.000000 0.000000 -1.000000
vn 0.000001 0.000000 1.000000
vn 0.000001 0.000000 1.000000
vn 0.000000 0.000000 1.000000
vn 0.000000 0.000000 1.000000
vn 0.000000 0.000000 1.000000
vn 0.000000 0.000000 1.000000
vn 0.000000 0.000000 1.000000
vn 0.000000 0.000000 1.000000
vn 0.000000 0.000000 1.000000
vn 0.000000 0.000000 1.000000
vn 0.000000 0.000000 1.000000
vn 0.000000 0.000000 1.000000
vn 0.000000 0.000000 1.000000
vn 0.000000 1.000000 0.000000
vn 0.000000 1.000000 0.000000
vn 0.000000 1.000000 0.000000
vn 0.000000 1.000000 0.000000
vn 0.000000 0.000000 -1.000000
vn 0.000000 0.000000 -1.000000
vn 0.000000 0.000000 -1.000000
vn 0.000000 0.000000 -1.000000
vn 0.000000 -1.000000 0.000000
vn 0.000000 -1.000000 0.000000
vn 0.000000 -1.000000 0.000000
vn 0.000000 -1.000000 0.000000
vn 1.000000 0.000000 0.000000
vn 1.000000 0.000000 0.000000
vn 1.000000 0.000000 0.000000
vn 1.000000 0.000000 0.000000
vn -1.000000 0.000000 0.000000
vn -1.000000 0.000000 0.000000
vn -1.000000 0.000000 0.000000
vn -1.000000 0.000000 0.000000
vn 0.000000 0.000000 1.000000
vn 0.000000 0.000000 1.000000
vn 0.000000 0.000000 1.000000
vn 0.000000 0.000000 1.000000
vn 1.000000 0.000000 0.000000
vn 1.000000 0.000000 0.000000
vn 1.000000 0.000000 0.000000
vn 1.000000 0.000000 0.000000
vn 0.000000 0.000000 -1.000000
vn 0.000000 0.000000 -1.000000
vn 0.000000 0.000000 -1.000000
vn 0.000000 0.000000 -1.000000
vn -1.000000 0.000000 0.000000
vn -1.000000 0.000000 0.000000
vn -1.000000 0.000000 0.000000
vn -1.000000 0.000000 0.000000
vn 0.000000 -1.000000 0.000000
vn 0.000000 -1.000000 0.000000
vn 0.000000 -1.000000 0.000000
vn 0.000000 -1.000000 0.000000
vn 0.000000 1.000000 0.000000
vn 0.000000 1.000000 0.000000
vn 0.000000 1.000000 0.000000
vn 0.000000 1.000000 0.000000
vn -0.000001 0.000000 1.000000
vn -0.000001 0.000000 1.000000
vn -0.000001 0.000000 1.000000
vn -0.000001 0.000000 1.000000
vn 0.000002 0.000000 1.000000
vn 0.000002 0.000000 1.000000
vn 0.000002 0.000000 1.000000
vn 0.000002 0.000000 1.000000
vn -0.000003 0.000000 1.000000
vn -0.000003 0.000000 1.000000
vn -0.000003 0.000000 1.000000
vn -0.000003 0.000000 1.000000
vn -0.000005 0.000000 1.000000
vn -0.000005 0.000000 1.000000
vn -0.000005 0.000000 1.000000
vn -0.000005 0.000000 1.000000
vn 0.000000 0.000000 1.000000
vn 0.000000 0.000000 1.000000
vn 0.000000 0.000000 1.000000
vn 0.000000 0.000000 1.000000
vn 0.000000 0.000000 1.000000
vn 0.000000 0.000000 1.000000
vn 0.000000 0.000000 1.000000
vn 0.000000 0.000000 1.000000
vn 0.000000 0.000000 1.000000
vn 0.000000 0.000000 1.000000
vn 0.000000 0.000000 1.000000
vn 0.000000 0.000000 1.000000
vn 0.000005 0.000000 1.000000
vn 0.000005 0.000000 1.000000
vn 0.000005 0.000000 1.000000
vn 0.000005 0.000000 1.000000
vn 0.382685 0.923879 0.000000
vn 0.382685 0.923879 0.000000
vn 0.382685 0.923879 0.000000
vn 0.382685 0.923879 0.000000
vn -0.382679 -0.923882 0.000000
vn -0.382679 -0.923882 0.000000
vn -0.382679 -0.923882 0.000000
vn -0.382679 -0.923882 0.000000
vn -0.382683 0.923880 0.000000
vn -0.382683 0.923880 0.000000
vn -0.382683 0.923880 0.000000
vn -0.382683 0.923880 0.000000
vn 0.382679 -0.923882 0.000000
vn 0.382679 -0.923882 0.000000
vn 0.382679 -0.923882 0.000000
vn 0.382679 -0.923882 0.000000
vn -0.923878 0.382687 0.000000
vn -0.923878 0.382687 0.000000
vn -0.923878 0.382687 0.000000
vn -0.923878 0.382687 0.000000
vn 0.923888 -0.382663 0.000000
vn 0.923888 -0.382663 0.000000
vn 0.923888 -0.382663 0.000000
vn 0.923888 -0.382663 0.000000
vn -0.923878 -0.382687 0.000000
vn -0.923878 -0.382687 0.000000
vn -0.923878 -0.382687 0.000000
vn -0.923878 -0.382687 0.000000
vn 0.923888 0.382663 0.000000
vn 0.923888 0.382663 0.000000
vn 0.923888 0.382663 0.000000
vn 0.923888 0.382663 0.000000
vn -0.382681 -0.923881 0.000000
vn -0.382681 -0.923881 0.000000
vn -0.382681 -0.923881 0.000000
vn -0.382681 -0.923881 0.000000
vn 0.382679 0.923882 0.000000
vn 0.382679 0.923882 0.000000
vn 0.382679 0.923882 0.000000
vn 0.382679 0.923882 0.000000
vn 0.382683 -0.923880 0.000000
vn 0.382683 -0.923880 0.000000
vn 0.382683 -0.923880 0.000000
vn 0.382683 -0.923880 0.000000
vn -0.382679 0.923882 0.000000
vn -0.382679 0.923882 0.000000
vn -0.382679 0.923882 0.000000
vn -0.382679 0.923882 0.000000
vn 0.923880 -0.382683 0.000000
vn 0.923880 -0.382683 0.000000
vn 0.923880 -0.382683 0.000000
vn 0.923880 -0.382683 0.000000
vn -0.923888 0.382663 0.000000
vn -0.923888 0.382663 0.000000
vn -0.923888 0.382663 0.000000
vn -0.923888 0.382663 0.000000
vn 0.923878 0.382687 0.000000
vn 0.923878 0.382687 0.000000
vn 0.923878 0.382687 0.000000
vn 0.923878 0.382687 0.000000
vn -0.923888 -0.382663 0.000000
vn -0.923888 -0.382663 0.000000
vn -0.923888 -0.382663 0.000000
vn -0.923888 -0.382663 0.000000
s off
g door_colored:door_colored:door_colored:door_colored:pCylinder1
usemtl phong1SG
f 1/1/1 2/2/2 10/3/3 9/4/4
f 2/2/5 3/5/6 11/6/7 10/3/8
f 3/5/9 4/7/10 12/8/11 11/6/12
f 4/7/13 5/9/14 13/10/15 12/8/16
f 5/9/17 6/11/18 14/12/19 13/10/20
f 6/11/21 7/13/22 15/14/23 14/12/24
f 7/13/25 8/15/26 16/16/27 15/14/28
f 8/15/29 1/1/30 9/4/31 16/16/32
s 1
f 2/2/33 1/1/34 17/17/35
f 3/5/36 2/2/33 17/17/35
f 4/7/37 3/5/36 17/17/35
f 5/9/38 4/7/37 17/17/35
f 6/11/39 5/9/38 17/17/35
f 7/13/40 6/11/39 17/17/35
f 8/15/41 7/13/40 17/17/35
f 1/1/34 8/15/41 17/17/35
s 2
f 34/35/42 35/36/43 36/18/44
f 35/36/43 37/37/45 36/18/44
f 37/37/45 38/38/46 36/18/44
f 38/38/46 39/39/47 36/18/44
f 39/39/47 40/40/48 36/18/44
f 40/40/48 41/41/49 36/18/44
f 41/41/49 42/42/50 36/18/44
f 42/42/50 34/35/42 36/18/44
s off
f 18/19/51 19/20/52 21/21/53 20/22/54
f 20/22/55 21/21/56 23/23/57 22/24/58
f 22/24/59 23/23/60 25/25/61 24/26/62
f 24/26/63 25/25/64 19/20/65 18/19/66
f 19/20/67 25/25/68 23/23/69 21/21/70
f 24/26/71 18/19/72 20/22/73 22/24/74
f 26/27/75 27/28/76 29/29/77 28/30/78
f 28/30/79 29/29/80 31/31/81 30/32/82
f 30/32/83 31/31/84 33/33/85 32/34/86
f 32/34/87 33/33/88 27/28/89 26/27/90
f 27/28/91 33/33/92 31/31/93 29/29/94
f 32/34/95 26/27/96 28/30/97 30/32/98
f 43/43/99 44/74/100 45/45/101 46/60/102
f 44/74/103 47/72/104 48/48/105 45/45/106
f 47/72/107 49/70/108 50/50/109 48/48/110
f 49/70/111 51/68/112 52/52/113 50/50/114
f 51/68/115 53/66/116 54/54/117 52/52/118
f 53/66/119 55/64/120 56/56/121 54/54/122
f 55/64/123 57/61/124 58/58/125 56/56/126
f 57/61/127 43/43/128 46/60/129 58/58/130
f 9/4/131 10/3/132 44/44/133 43/62/134
f 35/36/135 34/35/136 46/46/137 45/73/138
f 10/3/139 11/6/140 47/47/141 44/44/142
f 37/37/143 35/36/144 45/73/145 48/71/146
f 11/6/147 12/8/148 49/49/149 47/47/150
f 38/38/151 37/37/152 48/71/153 50/69/154
f 12/8/155 13/10/156 51/51/157 49/49/158
f 39/39/159 38/38/160 50/69/161 52/67/162
f 13/10/163 14/12/164 53/53/165 51/51/166
f 40/40/167 39/39/168 52/67/169 54/65/170
f 14/12/171 15/14/172 55/55/173 53/53/174
f 41/41/175 40/40/176 54/65/177 56/63/178
f 15/14/179 16/16/180 57/57/181 55/55/182
f 42/42/183 41/41/184 56/63/185 58/59/186
f 16/16/187 9/4/188 43/62/189 57/57/190
f 34/35/191 42/42/192 58/59/193 46/46/194
