# This file uses centimeters as units for non-parametric coordinates.

mtllib food.mtl
g default
v -2.956146 1.047865 7.014782
v -3.023574 0.877884 7.008211
v -3.023574 0.371123 6.988620
v -3.023574 0.370948 6.662741
v -3.023574 0.877971 6.651842
v -2.886073 0.877971 6.651842
v -2.956146 1.048039 6.648186
v -2.886073 0.370948 6.662741
v -2.886073 0.371123 6.988620
v -2.886073 0.877884 7.008211
v -3.067516 0.370870 7.003060
v -3.055931 0.370936 7.009390
v -3.067516 0.878010 7.006217
v -3.056826 0.877979 7.014731
v -2.856451 0.370941 7.008853
v -2.844776 0.370870 7.002688
v -2.844776 0.878010 7.006135
v -2.855153 0.877978 7.014661
v -3.056505 0.878000 6.645730
v -3.067516 0.878010 6.654226
v -3.067516 0.370870 6.655716
v -3.056479 0.370890 6.648472
v -2.844776 0.878010 6.654305
v -2.855479 0.878000 6.645800
v -2.855896 0.370891 6.648817
v -2.844776 0.370870 6.655933
v -2.979881 1.048117 7.006746
v -2.969726 1.048009 7.015952
v -2.932412 1.048117 7.006746
v -2.942782 1.048007 7.015933
v -2.932412 1.048117 6.654384
v -2.943133 1.048082 6.645719
v -2.969417 1.048083 6.645670
v -2.979881 1.048117 6.654384
v -2.965792 1.102399 7.007492
v -2.956146 1.102399 7.016827
v -2.946501 1.102399 7.007492
v -2.956146 1.102399 6.643686
v -2.946501 1.102399 6.653021
v -2.965792 1.102399 6.653021
vt 0.014763 0.669228
vt 0.014763 0.005075
vt 0.474101 0.005075
vt 0.474101 0.669228
vt 0.474101 0.918296
vt 0.014763 0.918296
vt 0.474101 0.994046
vt 0.014763 0.994046
vt 0.016925 0.665532
vt 0.016925 0.009282
vt 0.473956 0.009282
vt 0.473956 0.665532
vt 0.473956 0.915532
vt 0.016925 0.915532
vt 0.473956 0.989751
vt 0.016925 0.989750
vt 0.874526 0.659976
vt 0.895462 0.659976
vt 0.870709 0.670108
vt 0.874526 0.275263
vt 0.895462 0.275263
vt 0.899278 0.265132
vt 0.565955 0.685845
vt 0.565955 0.005561
vt 0.750256 0.005561
vt 0.750256 0.685845
vt 0.517475 0.685845
vt 0.517475 0.005561
vt 0.795484 0.005561
vt 0.795484 0.685845
vt 0.662488 0.915138
vt 0.499456 0.005561
vt 0.499456 0.685845
vt 0.644089 0.915138
vt 0.813357 0.005561
vt 0.813357 0.685845
vt 0.680599 0.915138
vt 0.625675 0.915138
vt 0.663348 0.987712
vt 0.699265 0.915138
vt 0.645458 0.987712
vt 0.681265 0.987712
vt 0.748605 0.002380
vt 0.748605 0.686319
vt 0.563325 0.686319
vt 0.563325 0.002380
vt 0.795355 0.686319
vt 0.795355 0.002380
vt 0.663533 0.916940
vt 0.519910 0.686319
vt 0.519910 0.002380
vt 0.681864 0.916940
vt 0.813646 0.686319
vt 0.813646 0.002380
vt 0.645554 0.916940
vt 0.501788 0.686319
vt 0.501788 0.002380
vt 0.700339 0.916940
vt 0.664263 0.989868
vt 0.626872 0.916940
vt 0.682275 0.989868
vt 0.646266 0.989868
vn 0.000000 -0.038631 0.999254
vn 0.000000 -0.038631 0.999254
vn 0.000000 -0.038631 0.999254
vn 0.000000 -0.038631 0.999254
vn 0.000000 -0.021491 -0.999769
vn 0.000000 -0.021491 -0.999769
vn 0.000000 -0.021491 -0.999769
vn 0.000000 -0.021491 -0.999769
vn 0.000000 -0.038630 0.999254
vn 0.000000 -0.038630 0.999254
vn 0.000000 -0.038630 0.999254
vn 0.000000 -0.021493 -0.999769
vn 0.000000 -0.021493 -0.999769
vn 0.000000 -0.021493 -0.999769
vn 0.000000 1.000000 0.000000
vn 0.000000 1.000000 0.000000
vn 0.000000 1.000000 0.000000
vn -0.554518 -0.007462 0.832138
vn -0.554519 -0.007462 0.832138
vn -0.554519 -0.007462 0.832138
vn -0.554519 -0.007462 0.832138
vn -0.614193 0.311791 0.724950
vn -0.614193 0.311791 0.724950
vn -0.614193 0.311791 0.724950
vn -0.614193 0.311791 0.724950
vn 0.554398 -0.008304 0.832210
vn 0.554398 -0.008304 0.832210
vn 0.554398 -0.008304 0.832210
vn 0.554398 -0.008304 0.832210
vn 0.615439 0.313117 0.723321
vn 0.615439 0.313117 0.723321
vn 0.615439 0.313117 0.723321
vn 0.615439 0.313117 0.723321
vn -0.595032 0.305823 -0.743243
vn -0.595032 0.305823 -0.743243
vn -0.595032 0.305823 -0.743243
vn -0.595032 0.305823 -0.743243
vn -0.581039 -0.003411 -0.813869
vn -0.581039 -0.003411 -0.813869
vn -0.581039 -0.003411 -0.813869
vn -0.581039 -0.003411 -0.813869
vn 0.594898 0.306530 -0.743059
vn 0.594898 0.306530 -0.743059
vn 0.594898 0.306530 -0.743059
vn 0.594898 0.306530 -0.743059
vn 0.582052 -0.003964 -0.813142
vn 0.582052 -0.003964 -0.813142
vn 0.582052 -0.003964 -0.813142
vn 0.582052 -0.003964 -0.813142
vn -0.674137 0.160895 0.720869
vn -0.674137 0.160895 0.720869
vn -0.674137 0.160895 0.720869
vn -0.674137 0.160895 0.720869
vn 0.670158 0.158365 0.725127
vn 0.670158 0.158365 0.725127
vn 0.670158 0.158365 0.725127
vn 0.670158 0.158365 0.725127
vn 0.655565 0.140411 -0.741970
vn 0.655565 0.140411 -0.741970
vn 0.655565 0.140411 -0.741970
vn 0.655565 0.140411 -0.741970
vn -0.660890 0.143803 -0.736577
vn -0.660890 0.143803 -0.736577
vn -0.660890 0.143803 -0.736577
vn -0.660890 0.143803 -0.736577
vn 1.000000 0.000000 0.000000
vn 1.000000 0.000000 0.000000
vn 1.000000 0.000000 0.000000
vn 1.000000 0.000000 0.000000
vn -1.000000 0.000000 0.000000
vn -1.000000 0.000000 0.000000
vn -1.000000 0.000000 0.000000
vn -1.000000 0.000000 0.000000
vn 0.888964 0.457976 0.000000
vn 0.888964 0.457976 0.000000
vn 0.888964 0.457976 0.000000
vn 0.888964 0.457976 0.000000
vn -0.888968 0.457970 0.000000
vn -0.888968 0.457970 0.000000
vn -0.888968 0.457970 0.000000
vn -0.888968 0.457970 0.000000
vn 0.000683 -0.037455 0.999298
vn 0.000683 -0.037455 0.999298
vn 0.000683 -0.037455 0.999298
vn 0.000683 -0.037455 0.999298
vn 0.967926 0.251235 0.000000
vn 0.967926 0.251235 0.000000
vn 0.967926 0.251235 0.000000
vn 0.967926 0.251235 0.000000
vn 0.001832 -0.082502 -0.996589
vn 0.001832 -0.082502 -0.996589
vn 0.001832 -0.082502 -0.996589
vn 0.001832 -0.082502 -0.996589
vn -0.967925 0.251239 0.000000
vn -0.967925 0.251239 0.000000
vn -0.967925 0.251239 0.000000
vn -0.967925 0.251239 0.000000
vn 0.160788 -0.095589 0.982349
vn 0.160788 -0.095589 0.982349
vn 0.160788 -0.095589 0.982349
vn 0.160788 -0.095589 0.982349
vn 0.383974 -0.022361 0.923073
vn 0.383974 -0.022361 0.923073
vn 0.383974 -0.022361 0.923073
vn 0.383974 -0.022361 0.923073
vn 0.295713 -0.012841 -0.955190
vn 0.295713 -0.012841 -0.955190
vn 0.295713 -0.012841 -0.955190
vn 0.295713 -0.012841 -0.955190
vn 0.182626 -0.093650 -0.978712
vn 0.182626 -0.093651 -0.978712
vn 0.182626 -0.093651 -0.978712
vn 0.182626 -0.093650 -0.978712
vn -0.190432 -0.099033 -0.976692
vn -0.190432 -0.099033 -0.976692
vn -0.190432 -0.099033 -0.976692
vn -0.190432 -0.099033 -0.976692
vn -0.312119 -0.012907 -0.949955
vn -0.312119 -0.012907 -0.949955
vn -0.312119 -0.012907 -0.949955
vn -0.312119 -0.012907 -0.949955
vn -0.403218 -0.022405 0.914830
vn -0.403218 -0.022405 0.914830
vn -0.403218 -0.022405 0.914830
vn -0.403218 -0.022405 0.914830
vn -0.167789 -0.100445 0.980692
vn -0.167789 -0.100445 0.980692
vn -0.167790 -0.100445 0.980692
vn -0.167789 -0.100445 0.980692
vn 0.000000 1.000000 0.000000
vn 0.000000 1.000000 0.000000
vn 0.000000 1.000000 0.000000
s off
g initialShadingGroup pCube10
f 2/23/1 3/24/2 9/25/3 10/26/4
f 4/43/5 5/44/6 6/45/7 8/46/8
f 1/31/9 2/23/10 10/26/11
f 7/49/12 6/45/13 5/44/14
s 1
f 40/17/15 39/18/16 38/19/17
s off
f 11/32/18 12/28/19 14/27/20 13/33/21
f 13/33/22 14/27/23 28/34/24 27/38/25
f 15/29/26 16/35/27 17/36/28 18/30/29
f 18/30/30 17/36/31 29/40/32 30/37/33
f 19/47/34 20/53/35 34/58/36 33/52/37
f 20/53/38 19/47/39 22/48/40 21/54/41
f 23/56/42 24/50/43 32/55/44 31/60/45
f 24/50/46 23/56/47 26/57/48 25/51/49
f 27/38/50 28/34/51 36/39/52 35/41/53
f 30/37/54 29/40/55 37/42/56 36/39/57
f 31/60/58 32/55/59 38/59/60 39/62/61
f 33/52/62 34/58/63 40/61/64 38/59/65
f 17/1/66 16/2/67 26/3/68 23/4/69
f 20/9/70 21/10/71 11/11/72 13/12/73
f 17/1/74 23/4/75 31/5/76 29/6/77
f 20/9/78 13/12/79 27/13/80 34/14/81
f 28/34/82 1/31/83 30/37/84 36/39/85
f 29/6/86 31/5/87 39/7/88 37/8/89
f 32/55/90 7/49/91 33/52/92 38/59/93
f 34/14/94 27/13/95 35/15/96 40/16/97
f 14/27/98 2/23/99 1/31/100 28/34/101
f 14/27/102 12/28/103 3/24/104 2/23/105
f 19/47/106 5/44/107 4/43/108 22/48/109
f 7/49/110 5/44/111 19/47/112 33/52/113
f 24/50/114 6/45/115 7/49/116 32/55/117
f 8/46/118 6/45/119 24/50/120 25/51/121
f 10/26/122 9/25/123 15/29/124 18/30/125
f 1/31/126 10/26/127 18/30/128 30/37/129
s 1
f 35/20/130 36/22/131 37/21/132
f 35/20/130 37/21/132 39/18/16 40/17/15
