# This file uses meters as units for non-parametric coordinates.

mtllib chair.mtl
g default
v -648.779661 50.304410 -379.248602
v -584.133436 50.304410 -379.248602
v -584.133436 50.304410 -388.962683
v -648.779661 50.304410 -388.962683
v -648.779661 41.290563 -379.248602
v -584.133436 41.290563 -379.248602
v -584.133436 41.290563 -388.962683
v -648.779661 41.290563 -388.962683
v -648.779661 41.290563 -318.887823
v -584.133436 41.290563 -318.887823
v -584.133436 50.304410 -318.887823
v -648.779661 50.304410 -318.887823
v -590.597425 103.412701 -388.472296
v -584.133436 96.948750 -387.349646
v -590.597425 103.412701 -398.186377
v -584.133436 96.948750 -397.063727
v -648.779661 96.948750 -387.349646
v -642.315672 103.412701 -388.472296
v -642.315672 103.412701 -398.186377
v -648.779661 96.948750 -397.063727
v -645.779661 50.304410 -376.248602
v -587.133436 50.304410 -376.248602
v -645.779661 50.304410 -321.887823
v -587.133436 50.304410 -321.887823
v -644.269041 53.325956 -374.737982
v -645.779661 51.815338 -376.248602
v -587.133436 51.815338 -376.248602
v -588.644056 53.325956 -374.737982
v -644.269041 53.325956 -323.398443
v -645.779661 51.815338 -321.887823
v -588.644056 53.325956 -323.398443
v -587.133436 51.815338 -321.887823
v -609.133436 41.290563 -354.248602
v -609.133436 41.290563 -343.887823
v -623.779661 41.290563 -343.887823
v -623.779661 41.290563 -354.248602
v -609.133436 3.513467 -354.248602
v -609.133436 3.513467 -343.887823
v -623.779661 3.513467 -343.887823
v -623.779661 3.513467 -354.248602
v -609.133436 -0.940537 -354.248602
v -609.133436 -0.940537 -343.887823
v -623.779661 -0.940537 -343.887823
v -623.779661 -0.940537 -354.248602
v -594.681776 3.513467 -368.700262
v -594.681776 3.513467 -329.436163
v -594.681776 -0.940537 -329.436163
v -594.681776 -0.940537 -368.700262
v -638.231321 3.513467 -329.436163
v -638.231321 -0.940537 -329.436163
v -638.231321 3.513467 -368.700262
v -638.231321 -0.940537 -368.700262
vt 0.399998 0.500000
vt 0.399998 0.464547
vt 0.600002 0.464547
vt 0.600002 0.500000
vt 0.375000 0.464547
vt 0.625000 0.464547
vt 0.625000 0.464547
vt 0.375000 0.464547
vt 0.625000 0.464547
vt 0.625000 0.500000
vt 0.625000 0.500000
vt 0.625000 0.464547
vt 0.375000 0.500000
vt 0.375000 0.500000
vt 0.375000 0.464547
vt 0.375000 0.464547
vt 0.625000 0.464547
vt 0.375000 0.464547
vt 0.625000 0.500000
vt 0.375000 0.500000
vt 0.375000 0.464547
vt 0.625000 0.464547
vt 0.375000 0.464547
vt 0.625000 0.464547
vt 0.375000 0.464547
vt 0.381440 0.464547
vt 0.375000 0.464547
vt 0.381440 0.464547
vt 0.618560 0.464547
vt 0.625000 0.464547
vt 0.618560 0.464547
vt 0.625000 0.464547
vt 0.625000 0.464547
vt 0.625000 0.464547
vt 0.375000 0.464547
vt 0.375000 0.464547
vt 0.625000 0.464547
vt 0.625000 0.464547
vt 0.375000 0.464547
vt 0.375000 0.464547
vt 0.625000 0.464547
vt 0.625000 0.464547
vt 0.375000 0.464547
vt 0.375000 0.464547
vt 0.625000 0.464547
vt 0.625000 0.464547
vt 0.625000 0.464547
vt 0.625000 0.464547
vt 0.375000 0.464547
vt 0.375000 0.464547
vt 0.375000 0.464547
vt 0.375000 0.464547
vn 0.000000 1.000000 0.000000
vn 0.000000 1.000000 0.000000
vn 0.000000 1.000000 0.000000
vn 0.000000 1.000000 0.000000
vn 0.000000 0.000000 1.000000
vn 0.000000 0.000000 1.000000
vn 0.000000 0.000000 1.000000
vn 0.000000 0.000000 1.000000
vn 1.000000 0.000000 0.000000
vn 1.000000 0.000000 0.000000
vn 1.000000 0.000000 0.000000
vn 1.000000 0.000000 0.000000
vn 0.000000 0.000000 -1.000000
vn 0.000000 0.000000 -1.000000
vn 0.000000 -0.144032 -0.989573
vn 0.000000 -0.144032 -0.989573
vn -1.000000 0.000000 0.000000
vn -1.000000 0.000000 0.000000
vn -1.000000 0.000000 0.000000
vn -1.000000 0.000000 0.000000
vn 1.000000 0.000000 0.000000
vn 1.000000 0.000000 0.000000
vn -1.000000 0.000000 0.000000
vn -1.000000 0.000000 0.000000
vn 0.000000 0.171115 0.985251
vn 0.000000 0.171115 0.985251
vn 0.000000 0.171115 0.985251
vn 0.000000 0.171115 0.985251
vn 1.000000 0.000000 0.000000
vn 1.000000 0.000000 0.000000
vn 0.000000 -0.171115 -0.985251
vn 0.000000 -0.171115 -0.985251
vn -1.000000 0.000000 0.000000
vn -1.000000 0.000000 0.000000
vn 0.707105 0.707109 0.000000
vn 0.707105 0.707109 0.000000
vn 0.707105 0.707109 0.000000
vn 0.707105 0.707109 0.000000
vn -0.707105 0.707109 0.000000
vn -0.707105 0.707109 0.000000
vn -0.707105 0.707109 0.000000
vn -0.707105 0.707109 0.000000
vn 0.000000 1.000000 -0.000000
vn 0.000000 1.000000 -0.000000
vn 0.000000 1.000000 -0.000000
vn 0.000000 1.000000 -0.000000
vn 0.000000 1.000000 0.000000
vn 0.000000 1.000000 0.000000
vn 0.000000 1.000000 0.000000
vn 0.000000 1.000000 0.000000
vn -0.707106 0.707108 0.000000
vn -0.707106 0.707108 0.000000
vn -0.707106 0.707108 0.000000
vn -0.707106 0.707108 0.000000
vn 0.000000 0.707107 -0.707107
vn 0.000000 0.707107 -0.707107
vn 0.000000 0.707107 -0.707107
vn 0.000000 0.707107 -0.707107
vn 0.707106 0.707107 0.000000
vn 0.707106 0.707107 0.000000
vn 0.707106 0.707107 0.000000
vn 0.707106 0.707107 0.000000
vn 0.000000 0.707107 0.707107
vn 0.000000 0.707107 0.707107
vn 0.000000 0.707107 0.707107
vn 0.000000 0.707107 0.707107
vn 0.000000 1.000000 0.000000
vn 0.000000 1.000000 0.000000
vn 0.000000 1.000000 0.000000
vn 0.000000 1.000000 0.000000
vn 0.000000 0.000000 -1.000000
vn 0.000000 0.000000 -1.000000
vn 0.000000 0.000000 -1.000000
vn 0.000000 0.000000 -1.000000
vn -1.000000 0.000000 0.000000
vn -1.000000 0.000000 0.000000
vn -1.000000 0.000000 0.000000
vn -1.000000 0.000000 0.000000
vn 0.000000 0.000000 1.000000
vn 0.000000 0.000000 1.000000
vn 0.000000 0.000000 1.000000
vn 0.000000 0.000000 1.000000
vn 1.000000 0.000000 0.000000
vn 1.000000 0.000000 0.000000
vn 1.000000 0.000000 0.000000
vn 1.000000 0.000000 0.000000
vn 0.000000 -1.000000 0.000000
vn 0.000000 -1.000000 0.000000
vn 0.000000 -1.000000 0.000000
vn 0.000000 -1.000000 0.000000
vn 0.000000 -1.000000 -0.000000
vn 0.000000 -1.000000 0.000000
vn 0.000000 -1.000000 0.000000
vn 0.000000 -1.000000 -0.000000
vn 0.000000 -0.171117 -0.985251
vn 0.000000 -0.171117 -0.985251
vn 0.000000 0.171117 0.985251
vn 0.000000 0.171117 0.985251
vn 0.000000 -1.000000 0.000000
vn 0.000000 -1.000000 0.000000
vn 0.000000 -1.000000 0.000000
vn 0.000000 -1.000000 0.000000
vn 0.000000 -1.000000 0.000000
vn 0.000000 -1.000000 0.000000
vn 1.000000 0.000000 0.000000
vn 1.000000 0.000000 0.000000
vn 1.000000 0.000000 0.000000
vn 1.000000 0.000000 0.000000
vn 0.000000 0.000000 1.000000
vn 0.000000 0.000000 1.000000
vn 0.000000 0.000000 1.000000
vn 0.000000 0.000000 1.000000
vn -1.000000 0.000000 0.000000
vn -1.000000 0.000000 0.000000
vn -1.000000 0.000000 0.000000
vn -1.000000 0.000000 0.000000
vn 0.000000 0.000000 -1.000000
vn 0.000000 0.000000 -1.000000
vn 0.000000 0.000000 -1.000000
vn 0.000000 0.000000 -1.000000
vn 1.000000 0.000000 0.000000
vn 1.000000 0.000000 0.000000
vn 1.000000 0.000000 0.000000
vn 1.000000 0.000000 0.000000
vn 0.000000 0.000000 1.000000
vn 0.000000 0.000000 1.000000
vn 0.000000 0.000000 1.000000
vn 0.000000 0.000000 1.000000
vn -1.000000 0.000000 0.000000
vn -1.000000 0.000000 0.000000
vn -1.000000 0.000000 0.000000
vn -1.000000 0.000000 0.000000
vn 0.000000 0.000000 -1.000000
vn 0.000000 0.000000 -1.000000
vn 0.000000 0.000000 -1.000000
vn 0.000000 0.000000 -1.000000
vn 0.000000 1.000000 0.000000
vn 0.000000 1.000000 -0.000000
vn 0.000000 1.000000 -0.000000
vn 0.000000 1.000000 0.000000
vn 0.000000 -1.000000 -0.000000
vn 0.000000 -1.000000 0.000000
vn 0.000000 1.000000 -0.000000
vn 0.000000 1.000000 -0.000000
vn 0.000000 -1.000000 0.000000
vn 0.000000 1.000000 0.000000
vn 0.000000 1.000000 0.000000
vn 0.000000 -1.000000 -0.000000
s off
g chair
usemtl initialShadingGroup
f 19/1/1 18/2/2 13/3/3 15/4/4
f 9/5/5 10/6/6 11/7/7 12/8/8
s 1
f 6/9/9 7/10/10 3/11/11 2/12/12
s 2
f 7/10/13 8/13/14 4/14/15 3/11/16
s 3
f 8/13/17 5/15/18 1/16/19 4/14/20
s 1
f 2/12/12 11/7/21 10/6/22 6/9/9
s 3
f 5/15/18 9/5/23 12/8/24 1/16/19
s 4
f 1/16/25 2/12/26 14/17/27 17/18/28
s 1
f 2/12/12 3/11/11 16/19/29 14/17/30
s 2
f 3/11/16 4/14/15 20/20/31 16/19/32
s 3
f 4/14/20 1/16/19 17/18/33 20/20/34
s off
f 13/3/35 14/17/36 16/19/37 15/4/38
f 17/18/39 18/2/40 19/1/41 20/20/42
s 5
f 2/12/43 1/16/44 21/21/45 22/22/46
f 1/16/44 12/8/47 23/23/48 21/21/45
f 12/8/47 11/7/49 24/24/50 23/23/48
f 22/22/46 24/24/50 11/7/49 2/12/43
s off
f 26/27/51 30/25/52 29/26/53 25/28/54
f 26/27/55 25/28/56 28/29/57 27/30/58
f 28/29/59 31/31/60 32/32/61 27/30/62
f 29/26/63 30/25/64 32/32/65 31/31/66
f 29/26/67 31/31/68 28/29/69 25/28/70
f 22/22/71 21/21/72 26/27/73 27/30/74
f 21/21/75 23/23/76 30/25/77 26/27/78
f 23/23/79 24/24/80 32/32/81 30/25/82
f 32/32/83 24/24/84 22/22/85 27/30/86
s 6
f 7/10/87 6/9/88 5/15/89 8/13/90
s 7
f 41/41/91 42/42/92 43/43/93 44/44/94
s 2
f 16/19/32 20/20/31 19/1/95 15/4/96
s 4
f 17/18/28 14/17/27 13/3/97 18/2/98
s 6
f 6/9/88 10/6/99 34/34/100 33/33/101
f 10/6/99 9/5/102 35/35/103 34/34/100
f 9/5/102 5/15/89 36/36/104 35/35/103
f 5/15/89 6/9/88 33/33/101 36/36/104
s off
f 33/33/105 34/34/106 38/38/107 37/37/108
f 34/34/109 35/35/110 39/39/111 38/38/112
f 35/35/113 36/36/114 40/40/115 39/39/116
f 36/36/117 33/33/118 37/37/119 40/40/120
f 45/45/121 46/46/122 47/47/123 48/48/124
f 46/46/125 49/49/126 50/50/127 47/47/128
f 49/49/129 51/51/130 52/52/131 50/50/132
f 51/51/133 45/45/134 48/48/135 52/52/136
s 9
f 37/37/137 38/38/138 46/46/139 45/45/140
s 7
f 42/42/92 41/41/91 48/48/141 47/47/142
s 9
f 38/38/138 39/39/143 49/49/144 46/46/139
s 7
f 43/43/93 42/42/92 47/47/142 50/50/145
s 9
f 39/39/143 40/40/146 51/51/147 49/49/144
s 7
f 44/44/94 43/43/93 50/50/145 52/52/148
s 9
f 40/40/146 37/37/137 45/45/140 51/51/147
s 7
f 41/41/91 44/44/94 52/52/148 48/48/141
