# This file uses meters as units for non-parametric coordinates.

mtllib chair.mtl
g default
v 147.772755 50.304410 378.034782
v 212.418980 50.304410 378.034782
v 212.418980 50.304410 368.320701
v 147.772755 50.304410 368.320701
v 147.772755 41.290563 378.034782
v 212.418980 41.290563 378.034782
v 212.418980 41.290563 368.320701
v 147.772755 41.290563 368.320701
v 147.772755 41.290563 438.395560
v 212.418980 41.290563 438.395560
v 212.418980 50.304410 438.395560
v 147.772755 50.304410 438.395560
v 205.954991 103.412701 368.811088
v 212.418980 96.948750 369.933738
v 205.954991 103.412701 359.097007
v 212.418980 96.948750 360.219657
v 147.772755 96.948750 369.933738
v 154.236744 103.412701 368.811088
v 154.236744 103.412701 359.097007
v 147.772755 96.948750 360.219657
v 150.772755 50.304410 381.034782
v 209.418980 50.304410 381.034782
v 150.772755 50.304410 435.395560
v 209.418980 50.304410 435.395560
v 152.283375 53.325959 382.545402
v 150.772755 51.815341 381.034782
v 209.418980 51.815341 381.034782
v 207.908360 53.325959 382.545402
v 152.283375 53.325959 433.884940
v 150.772755 51.815341 435.395560
v 207.908360 53.325959 433.884940
v 209.418980 51.815341 435.395560
v 187.418980 41.290563 403.034782
v 187.418980 41.290563 413.395560
v 172.772755 41.290563 413.395560
v 172.772755 41.290563 403.034782
v 187.418980 3.513467 403.034782
v 187.418980 3.513467 413.395560
v 172.772755 3.513467 413.395560
v 172.772755 3.513467 403.034782
v 187.418980 -0.940537 403.034782
v 187.418980 -0.940537 413.395560
v 172.772755 -0.940537 413.395560
v 172.772755 -0.940537 403.034782
v 201.870640 3.513467 388.583121
v 201.870640 3.513467 427.847221
v 201.870640 -0.940537 427.847221
v 201.870640 -0.940537 388.583121
v 158.321095 3.513467 427.847221
v 158.321095 -0.940537 427.847221
v 158.321095 3.513467 388.583121
v 158.321095 -0.940537 388.583121
vt 0.758432 0.241117
vt 0.756312 0.241117
vt 0.756312 0.241117
vt 0.758432 0.241117
vt 0.741128 0.225838
vt 0.741128 0.225838
vt 0.741128 0.228055
vt 0.741128 0.228055
vt 0.754299 0.225838
vt 0.756419 0.225838
vt 0.756419 0.228055
vt 0.754299 0.228055
vt 0.756419 0.225838
vt 0.756419 0.228055
vt 0.754299 0.225838
vt 0.754299 0.228055
vt 0.756067 0.239527
vt 0.756067 0.239527
vt 0.758187 0.239527
vt 0.758187 0.239527
vt 0.753645 0.228055
vt 0.764243 0.330774
vt 0.713742 0.330774
vt 0.741783 0.228055
vt 0.764243 0.332356
vt 0.713742 0.332356
vt 0.715146 0.333938
vt 0.762840 0.333938
vt 0.762840 0.333938
vt 0.764243 0.332356
vt 0.715146 0.333938
vt 0.713742 0.332356
vt 0.748844 0.215450
vt 0.746583 0.215450
vt 0.746583 0.215450
vt 0.748844 0.215450
vt 0.746583 0.225838
vt 0.748844 0.225838
vt 0.746583 0.225838
vt 0.748844 0.225838
vt 0.746583 0.216546
vt 0.748844 0.216546
vt 0.746583 0.216546
vt 0.748844 0.216546
vt 0.751997 0.216546
vt 0.743430 0.216546
vt 0.743430 0.215450
vt 0.751997 0.215450
vt 0.743430 0.216546
vt 0.743430 0.215450
vt 0.751997 0.216546
vt 0.751997 0.215450
vt 0.764243 0.330774
vt 0.741783 0.228055
vt 0.753645 0.228055
vt 0.713742 0.330774
vn 0.000000 1.000000 0.000000
vn 0.000000 1.000000 0.000000
vn 0.000000 1.000000 0.000000
vn 0.000000 1.000000 0.000000
vn 0.000000 0.000000 1.000000
vn 0.000000 0.000000 1.000000
vn 0.000000 0.000000 1.000000
vn 0.000000 0.000000 1.000000
vn 1.000000 0.000000 0.000000
vn 1.000000 0.000000 0.000000
vn 1.000000 0.000000 0.000000
vn 1.000000 0.000000 0.000000
vn 0.000000 0.000000 -1.000000
vn 0.000000 0.000000 -1.000000
vn 0.000000 -0.144032 -0.989573
vn 0.000000 -0.144032 -0.989573
vn -1.000000 0.000000 0.000000
vn -1.000000 0.000000 0.000000
vn -1.000000 0.000000 0.000000
vn -1.000000 0.000000 0.000000
vn 1.000000 0.000000 0.000000
vn 1.000000 0.000000 0.000000
vn -1.000000 0.000000 0.000000
vn -1.000000 0.000000 0.000000
vn 0.000000 0.171115 0.985251
vn 0.000000 0.171115 0.985251
vn 0.000000 0.171115 0.985251
vn 0.000000 0.171115 0.985251
vn 1.000000 0.000000 0.000000
vn 1.000000 0.000000 0.000000
vn 0.000000 -0.171115 -0.985251
vn 0.000000 -0.171115 -0.985251
vn -1.000000 0.000000 0.000000
vn -1.000000 0.000000 0.000000
vn 0.707105 0.707109 0.000000
vn 0.707105 0.707109 0.000000
vn 0.707105 0.707109 0.000000
vn 0.707105 0.707109 0.000000
vn -0.707105 0.707109 0.000000
vn -0.707105 0.707109 0.000000
vn -0.707105 0.707109 0.000000
vn -0.707105 0.707109 0.000000
vn 0.000000 1.000000 -0.000000
vn 0.000000 1.000000 -0.000000
vn 0.000000 1.000000 -0.000000
vn 0.000000 1.000000 -0.000000
vn 0.000000 1.000000 0.000000
vn 0.000000 1.000000 0.000000
vn 0.000000 1.000000 0.000000
vn 0.000000 1.000000 0.000000
vn -0.707106 0.707108 0.000000
vn -0.707106 0.707108 0.000000
vn -0.707106 0.707108 0.000000
vn -0.707106 0.707108 0.000000
vn 0.000000 0.707107 -0.707107
vn 0.000000 0.707107 -0.707107
vn 0.000000 0.707107 -0.707107
vn 0.000000 0.707107 -0.707107
vn 0.707106 0.707107 0.000000
vn 0.707106 0.707107 0.000000
vn 0.707106 0.707107 0.000000
vn 0.707106 0.707107 0.000000
vn 0.000000 0.707107 0.707107
vn 0.000000 0.707107 0.707107
vn 0.000000 0.707107 0.707107
vn 0.000000 0.707107 0.707107
vn 0.000000 1.000000 0.000000
vn 0.000000 1.000000 0.000000
vn 0.000000 1.000000 0.000000
vn 0.000000 1.000000 0.000000
vn 0.000000 0.000000 -1.000000
vn 0.000000 0.000000 -1.000000
vn 0.000000 0.000000 -1.000000
vn 0.000000 0.000000 -1.000000
vn -1.000000 0.000000 0.000000
vn -1.000000 0.000000 0.000000
vn -1.000000 0.000000 0.000000
vn -1.000000 0.000000 0.000000
vn 0.000000 0.000000 1.000000
vn 0.000000 0.000000 1.000000
vn 0.000000 0.000000 1.000000
vn 0.000000 0.000000 1.000000
vn 1.000000 0.000000 0.000000
vn 1.000000 0.000000 0.000000
vn 1.000000 0.000000 0.000000
vn 1.000000 0.000000 0.000000
vn 0.000000 -1.000000 0.000000
vn 0.000000 -1.000000 0.000000
vn 0.000000 -1.000000 0.000000
vn 0.000000 -1.000000 0.000000
vn 0.000000 -1.000000 -0.000000
vn 0.000000 -1.000000 0.000000
vn 0.000000 -1.000000 0.000000
vn 0.000000 -1.000000 -0.000000
vn 0.000000 -0.171117 -0.985251
vn 0.000000 -0.171117 -0.985251
vn 0.000000 0.171117 0.985251
vn 0.000000 0.171117 0.985251
vn 0.000000 -1.000000 0.000000
vn 0.000000 -1.000000 0.000000
vn 0.000000 -1.000000 0.000000
vn 0.000000 -1.000000 0.000000
vn 0.000000 -1.000000 0.000000
vn 0.000000 -1.000000 0.000000
vn 1.000000 0.000000 0.000000
vn 1.000000 0.000000 0.000000
vn 1.000000 0.000000 0.000000
vn 1.000000 0.000000 0.000000
vn 0.000000 0.000000 1.000000
vn 0.000000 0.000000 1.000000
vn 0.000000 0.000000 1.000000
vn 0.000000 0.000000 1.000000
vn -1.000000 0.000000 0.000000
vn -1.000000 0.000000 0.000000
vn -1.000000 0.000000 0.000000
vn -1.000000 0.000000 0.000000
vn 0.000000 0.000000 -1.000000
vn 0.000000 0.000000 -1.000000
vn 0.000000 0.000000 -1.000000
vn 0.000000 0.000000 -1.000000
vn 1.000000 0.000000 0.000000
vn 1.000000 0.000000 0.000000
vn 1.000000 0.000000 0.000000
vn 1.000000 0.000000 0.000000
vn 0.000000 0.000000 1.000000
vn 0.000000 0.000000 1.000000
vn 0.000000 0.000000 1.000000
vn 0.000000 0.000000 1.000000
vn -1.000000 0.000000 0.000000
vn -1.000000 0.000000 0.000000
vn -1.000000 0.000000 0.000000
vn -1.000000 0.000000 0.000000
vn 0.000000 0.000000 -1.000000
vn 0.000000 0.000000 -1.000000
vn 0.000000 0.000000 -1.000000
vn 0.000000 0.000000 -1.000000
vn 0.000000 1.000000 0.000000
vn 0.000000 1.000000 -0.000000
vn 0.000000 1.000000 -0.000000
vn 0.000000 1.000000 0.000000
vn 0.000000 -1.000000 -0.000000
vn 0.000000 -1.000000 0.000000
vn 0.000000 1.000000 -0.000000
vn 0.000000 1.000000 -0.000000
vn 0.000000 -1.000000 0.000000
vn 0.000000 1.000000 0.000000
vn 0.000000 1.000000 0.000000
vn 0.000000 -1.000000 -0.000000
s off
g chair
usemtl phong4SG
f 19/1/1 18/2/2 13/3/3 15/4/4
f 9/5/5 10/6/6 11/7/7 12/8/8
s 1
f 6/9/9 7/10/10 3/11/11 2/12/12
s 2
f 7/10/13 8/13/14 4/14/15 3/11/16
s 3
f 8/13/17 5/15/18 1/16/19 4/14/20
s 1
f 2/12/12 11/7/21 10/6/22 6/9/9
s 3
f 5/15/18 9/5/23 12/8/24 1/16/19
s 4
f 1/16/25 2/12/26 14/17/27 17/18/28
s 1
f 2/12/12 3/11/11 16/19/29 14/17/30
s 2
f 3/11/16 4/14/15 20/20/31 16/19/32
s 3
f 4/14/20 1/16/19 17/18/33 20/20/34
s off
f 13/3/35 14/17/36 16/19/37 15/4/38
f 17/18/39 18/2/40 19/1/41 20/20/42
s 5
f 2/12/43 1/16/44 21/21/45 22/55/46
f 1/16/44 12/8/47 23/54/48 21/21/45
f 12/8/47 11/7/49 24/24/50 23/54/48
f 22/55/46 24/24/50 11/7/49 2/12/43
s off
f 26/25/51 30/26/52 29/27/53 25/28/54
f 26/25/55 25/28/56 28/29/57 27/30/58
f 28/29/59 31/31/60 32/32/61 27/30/62
f 29/27/63 30/26/64 32/32/65 31/31/66
f 29/27/67 31/31/68 28/29/69 25/28/70
f 22/22/71 21/53/72 26/25/73 27/30/74
f 21/53/75 23/23/76 30/26/77 26/25/78
f 23/23/79 24/56/80 32/32/81 30/26/82
f 32/32/83 24/56/84 22/22/85 27/30/86
s 6
f 7/10/87 6/9/88 5/15/89 8/13/90
s 7
f 41/33/91 42/34/92 43/35/93 44/36/94
s 2
f 16/19/32 20/20/31 19/1/95 15/4/96
s 4
f 17/18/28 14/17/27 13/3/97 18/2/98
s 6
f 6/9/88 10/6/99 34/37/100 33/38/101
f 10/6/99 9/5/102 35/39/103 34/37/100
f 9/5/102 5/15/89 36/40/104 35/39/103
f 5/15/89 6/9/88 33/38/101 36/40/104
s off
f 33/38/105 34/37/106 38/41/107 37/42/108
f 34/37/109 35/39/110 39/43/111 38/41/112
f 35/39/113 36/40/114 40/44/115 39/43/116
f 36/40/117 33/38/118 37/42/119 40/44/120
f 45/45/121 46/46/122 47/47/123 48/48/124
f 46/46/125 49/49/126 50/50/127 47/47/128
f 49/49/129 51/51/130 52/52/131 50/50/132
f 51/51/133 45/45/134 48/48/135 52/52/136
s 9
f 37/42/137 38/41/138 46/46/139 45/45/140
s 7
f 42/34/92 41/33/91 48/48/141 47/47/142
s 9
f 38/41/138 39/43/143 49/49/144 46/46/139
s 7
f 43/35/93 42/34/92 47/47/142 50/50/145
s 9
f 39/43/143 40/44/146 51/51/147 49/49/144
s 7
f 44/36/94 43/35/93 50/50/145 52/52/148
s 9
f 40/44/146 37/42/137 45/45/140 51/51/147
s 7
f 41/33/91 44/36/94 52/52/148 48/48/141
