# This file uses centimeters as units for non-parametric coordinates.

mtllib collar2.mtl
g default
v 9.875647 -0.076351 6.924576
v 9.835971 -0.039091 6.938209
v 9.875647 -0.001831 6.951843
v 9.915322 -0.039091 6.938209
v 9.875647 -0.080896 6.889170
v 9.819536 -0.028203 6.908451
v 9.875647 0.024491 6.927731
v 9.931757 -0.028203 6.908451
v 9.875647 -0.054574 6.865058
v 9.835971 -0.017314 6.878692
v 9.875647 0.019946 6.892325
v 9.915322 -0.017314 6.878692
v 9.875647 -0.043602 6.950536
v 9.875647 -0.012804 6.866365
v 9.972762 0.000364 6.434988
v 9.837333 0.000364 6.378891
v 9.701903 0.000364 6.434988
v 9.645806 0.000364 6.570418
v 9.701903 0.000364 6.705847
v 9.837333 0.000364 6.761944
v 9.972762 0.000364 6.705847
v 10.028859 0.000364 6.570418
v 9.979707 0.040276 6.428044
v 9.837333 0.040276 6.369071
v 9.694959 0.040276 6.428044
v 9.635985 0.040276 6.570418
v 9.694959 0.040276 6.712792
v 9.837333 0.040276 6.771765
v 9.979707 0.040276 6.712792
v 10.038680 0.040276 6.570418
v 9.999984 0.037316 6.407767
v 9.837333 0.037316 6.340394
v 9.674682 0.037316 6.407767
v 9.607309 0.037316 6.570418
v 9.674682 0.037316 6.733069
v 9.837333 0.037316 6.800441
v 9.999984 0.037316 6.733069
v 10.067356 0.037316 6.570418
v 9.999984 -0.036588 6.407767
v 9.837333 -0.036588 6.340394
v 9.674682 -0.036588 6.407767
v 9.607309 -0.036588 6.570418
v 9.674682 -0.036588 6.733069
v 9.837333 -0.036588 6.800441
v 9.999984 -0.036588 6.733069
v 10.067356 -0.036588 6.570418
v 9.977821 -0.045102 6.429929
v 9.837333 -0.045102 6.371737
v 9.696844 -0.045102 6.429929
v 9.638652 -0.045102 6.570418
v 9.696844 -0.045102 6.710907
v 9.837333 -0.045102 6.769099
v 9.977821 -0.045102 6.710907
v 10.036014 -0.045102 6.570418
v 9.874912 -0.019066 6.745648
v 9.835595 0.049915 6.771446
v 9.835595 0.049915 6.854930
v 9.874912 -0.019066 6.880728
v 9.899211 -0.061698 6.813188
v 9.889045 -0.015221 6.734391
v 9.843175 0.065257 6.764489
v 9.843175 0.065257 6.861887
v 9.889045 -0.015221 6.891985
v 9.917394 -0.064958 6.813188
v 9.864402 -0.029266 6.734391
v 9.818533 0.051211 6.764489
v 9.818532 0.051211 6.861887
v 9.864402 -0.029266 6.891985
v 9.892751 -0.079004 6.813188
vt 0.722945 0.350361
vt 0.737475 0.350361
vt 0.752006 0.350361
vt 0.766536 0.350361
vt 0.781067 0.350361
vt 0.722945 0.364892
vt 0.737475 0.364892
vt 0.752006 0.364892
vt 0.766536 0.364892
vt 0.781067 0.364892
vt 0.722945 0.379422
vt 0.737475 0.379422
vt 0.752006 0.379422
vt 0.766536 0.379422
vt 0.781067 0.379422
vt 0.730210 0.335831
vt 0.744740 0.335831
vt 0.759271 0.335831
vt 0.773801 0.335831
vt 0.730210 0.393953
vt 0.744740 0.393953
vt 0.759271 0.393953
vt 0.773801 0.393953
vt 0.114750 0.379644
vt 0.178072 0.379644
vt 0.114750 0.384123
vt 0.123796 0.379644
vt 0.123796 0.384123
vt 0.132842 0.379644
vt 0.132842 0.384123
vt 0.141888 0.379644
vt 0.141888 0.384123
vt 0.150934 0.379644
vt 0.150934 0.384123
vt 0.159980 0.379644
vt 0.159980 0.384123
vt 0.169026 0.379644
vt 0.169026 0.384123
vt 0.114750 0.383250
vt 0.123796 0.383250
vt 0.132842 0.383250
vt 0.141888 0.383250
vt 0.150934 0.383250
vt 0.159980 0.383250
vt 0.169026 0.383250
vt 0.114750 0.375912
vt 0.123796 0.375912
vt 0.132842 0.375912
vt 0.141888 0.375912
vt 0.150934 0.375912
vt 0.159980 0.375912
vt 0.169026 0.375912
vt 0.114750 0.374435
vt 0.123796 0.374435
vt 0.132842 0.374435
vt 0.141888 0.374435
vt 0.150934 0.374435
vt 0.159980 0.374435
vt 0.169026 0.374435
vt 0.130345 0.599263
vt 0.150919 0.539165
vt 0.159896 0.542515
vt 0.135893 0.612629
vt 0.063765 0.599263
vt 0.058216 0.612629
vt 0.043191 0.539165
vt 0.034213 0.542515
vt 0.097055 0.502023
vt 0.097055 0.499182
vt 0.187118 0.379644
vt 0.178072 0.374435
vt 0.187118 0.374435
vt 0.178072 0.375912
vt 0.187118 0.375912
vt 0.178072 0.383250
vt 0.187118 0.383250
vt 0.178072 0.384123
vt 0.187118 0.384123
vt 0.159896 0.530278
vt 0.135893 0.600392
vt 0.058216 0.600392
vt 0.034213 0.530278
vt 0.097055 0.486946
vt 0.156035 0.091111
vt 0.173951 0.083690
vt 0.176502 0.086242
vt 0.156035 0.094720
vt 0.181372 0.065775
vt 0.184980 0.065775
vt 0.138119 0.083690
vt 0.135567 0.086242
vt 0.173951 0.047859
vt 0.176502 0.045307
vt 0.130698 0.065775
vt 0.127090 0.065775
vt 0.156035 0.040438
vt 0.156035 0.036829
vt 0.138119 0.047859
vt 0.135567 0.045307
vn -0.663879 -0.741753 0.095218
vn -0.663879 -0.741753 0.095218
vn -0.663879 -0.741753 0.095218
vn -0.663879 -0.741753 0.095218
vn -0.663877 0.505130 0.551463
vn -0.663877 0.505130 0.551462
vn -0.663877 0.505130 0.551463
vn -0.663877 0.505130 0.551462
vn 0.663874 0.505142 0.551455
vn 0.663874 0.505143 0.551455
vn 0.663874 0.505143 0.551455
vn 0.663874 0.505143 0.551455
vn 0.663869 -0.741762 0.095218
vn 0.663869 -0.741762 0.095218
vn 0.663869 -0.741762 0.095218
vn 0.663869 -0.741762 0.095218
vn -0.663868 -0.505139 -0.551465
vn -0.663868 -0.505139 -0.551465
vn -0.663868 -0.505139 -0.551465
vn -0.663868 -0.505139 -0.551465
vn -0.663874 0.741758 -0.095219
vn -0.663874 0.741758 -0.095219
vn -0.663874 0.741758 -0.095219
vn -0.663874 0.741758 -0.095219
vn 0.663867 0.741765 -0.095216
vn 0.663866 0.741765 -0.095216
vn 0.663867 0.741765 -0.095216
vn 0.663867 0.741765 -0.095216
vn 0.663870 -0.505148 -0.551454
vn 0.663870 -0.505148 -0.551454
vn 0.663870 -0.505148 -0.551454
vn 0.663870 -0.505148 -0.551454
vn -0.299681 -0.592640 0.747642
vn -0.299681 -0.592640 0.747642
vn -0.299681 -0.592640 0.747642
vn -0.299646 -0.029824 0.953584
vn -0.299646 -0.029824 0.953584
vn -0.299646 -0.029824 0.953584
vn 0.299630 -0.029838 0.953589
vn 0.299630 -0.029838 0.953589
vn 0.299630 -0.029838 0.953589
vn 0.299672 -0.592657 0.747632
vn 0.299672 -0.592657 0.747632
vn 0.299672 -0.592657 0.747632
vn -0.299646 0.029824 -0.953584
vn -0.299646 0.029824 -0.953584
vn -0.299646 0.029824 -0.953584
vn -0.299669 0.592642 -0.747645
vn -0.299669 0.592642 -0.747645
vn -0.299669 0.592642 -0.747645
vn 0.299626 0.592667 -0.747643
vn 0.299626 0.592667 -0.747644
vn 0.299626 0.592667 -0.747644
vn 0.299658 0.029838 -0.953580
vn 0.299658 0.029838 -0.953580
vn 0.299658 0.029838 -0.953580
vn -0.373162 0.221684 0.900892
vn -0.373162 0.221684 0.900892
vn -0.373162 0.221684 0.900892
vn -0.373162 0.221684 0.900892
vn 0.373162 0.221684 0.900892
vn 0.373162 0.221684 0.900892
vn 0.373162 0.221684 0.900892
vn 0.373162 0.221684 0.900892
vn 0.900894 0.221671 0.373165
vn 0.900894 0.221671 0.373165
vn 0.900894 0.221671 0.373165
vn 0.900894 0.221671 0.373165
vn 0.900896 0.221667 -0.373163
vn 0.900896 0.221667 -0.373163
vn 0.900896 0.221667 -0.373163
vn 0.900896 0.221667 -0.373163
vn 0.373162 0.221681 -0.900893
vn 0.373162 0.221681 -0.900893
vn 0.373162 0.221681 -0.900893
vn 0.373162 0.221681 -0.900893
vn -0.373162 0.221680 -0.900893
vn -0.373162 0.221680 -0.900893
vn -0.373162 0.221680 -0.900893
vn -0.373162 0.221680 -0.900893
vn -0.900891 0.221689 -0.373161
vn -0.900891 0.221689 -0.373161
vn -0.900891 0.221689 -0.373161
vn -0.900891 0.221689 -0.373161
vn -0.900892 0.221680 0.373164
vn -0.900892 0.221680 0.373164
vn -0.900892 0.221680 0.373164
vn -0.900892 0.221680 0.373164
vn 0.042498 0.993815 -0.102599
vn 0.042498 0.993815 -0.102599
vn 0.042498 0.993815 -0.102599
vn 0.042498 0.993815 -0.102599
vn -0.042498 0.993815 -0.102599
vn -0.042498 0.993815 -0.102599
vn -0.042498 0.993815 -0.102599
vn -0.042498 0.993815 -0.102599
vn -0.102597 0.993815 -0.042497
vn -0.102597 0.993815 -0.042497
vn -0.102597 0.993815 -0.042497
vn -0.102597 0.993815 -0.042497
vn -0.102596 0.993815 0.042497
vn -0.102597 0.993815 0.042497
vn -0.102597 0.993815 0.042497
vn -0.102597 0.993815 0.042497
vn -0.042498 0.993815 0.102598
vn -0.042498 0.993815 0.102598
vn -0.042498 0.993815 0.102598
vn -0.042498 0.993815 0.102598
vn 0.042498 0.993815 0.102599
vn 0.042498 0.993815 0.102599
vn 0.042498 0.993815 0.102599
vn 0.042498 0.993815 0.102599
vn 0.102600 0.993815 0.042498
vn 0.102600 0.993815 0.042498
vn 0.102600 0.993815 0.042498
vn 0.102600 0.993815 0.042498
vn 0.102599 0.993815 -0.042498
vn 0.102599 0.993815 -0.042498
vn 0.102599 0.993815 -0.042498
vn 0.102599 0.993815 -0.042498
vn 0.382684 0.000000 -0.923879
vn 0.382684 0.000000 -0.923879
vn 0.382684 0.000000 -0.923879
vn 0.382684 0.000000 -0.923879
vn -0.382684 0.000000 -0.923879
vn -0.382684 0.000000 -0.923879
vn -0.382684 0.000000 -0.923879
vn -0.382684 0.000000 -0.923879
vn -0.923880 0.000000 -0.382683
vn -0.923880 0.000000 -0.382683
vn -0.923880 0.000000 -0.382683
vn -0.923880 0.000000 -0.382683
vn -0.923879 0.000000 0.382684
vn -0.923879 0.000000 0.382684
vn -0.923879 0.000000 0.382684
vn -0.923879 0.000000 0.382684
vn -0.382684 0.000000 0.923879
vn -0.382684 0.000000 0.923879
vn -0.382684 0.000000 0.923879
vn -0.382684 0.000000 0.923879
vn 0.382684 0.000000 0.923879
vn 0.382684 0.000000 0.923879
vn 0.382684 0.000000 0.923879
vn 0.382684 0.000000 0.923879
vn 0.923879 0.000000 0.382684
vn 0.923879 0.000000 0.382684
vn 0.923879 0.000000 0.382684
vn 0.923879 0.000000 0.382684
vn 0.923880 0.000000 -0.382683
vn 0.923880 0.000000 -0.382683
vn 0.923880 0.000000 -0.382683
vn 0.923880 0.000000 -0.382683
vn 0.107953 -0.959386 -0.260622
vn 0.107953 -0.959386 -0.260622
vn 0.107953 -0.959386 -0.260622
vn 0.107953 -0.959386 -0.260622
vn -0.107953 -0.959386 -0.260622
vn -0.107953 -0.959386 -0.260622
vn -0.107953 -0.959386 -0.260622
vn -0.107953 -0.959386 -0.260622
vn -0.260619 -0.959387 -0.107952
vn -0.260619 -0.959387 -0.107952
vn -0.260619 -0.959387 -0.107952
vn -0.260619 -0.959387 -0.107952
vn -0.260623 -0.959386 0.107953
vn -0.260623 -0.959386 0.107953
vn -0.260623 -0.959386 0.107953
vn -0.260623 -0.959386 0.107953
vn -0.107953 -0.959386 0.260622
vn -0.107953 -0.959386 0.260622
vn -0.107953 -0.959386 0.260622
vn -0.107953 -0.959386 0.260622
vn 0.107953 -0.959386 0.260622
vn 0.107953 -0.959386 0.260622
vn 0.107953 -0.959386 0.260622
vn 0.107953 -0.959386 0.260622
vn 0.260626 -0.959385 0.107955
vn 0.260626 -0.959385 0.107955
vn 0.260626 -0.959385 0.107955
vn 0.260626 -0.959385 0.107955
vn 0.260625 -0.959385 -0.107955
vn 0.260625 -0.959385 -0.107955
vn 0.260625 -0.959385 -0.107955
vn 0.260625 -0.959385 -0.107955
vn -0.378704 -0.143882 0.914265
vn -0.378704 -0.143882 0.914265
vn -0.378704 -0.143882 0.914265
vn -0.378704 -0.143882 0.914265
vn 0.378704 -0.143881 0.914265
vn 0.378704 -0.143881 0.914265
vn 0.378704 -0.143881 0.914265
vn 0.378704 -0.143881 0.914265
vn 0.914267 -0.143872 0.378704
vn 0.914267 -0.143872 0.378704
vn 0.914267 -0.143872 0.378703
vn 0.914267 -0.143872 0.378704
vn 0.914266 -0.143879 -0.378703
vn 0.914266 -0.143879 -0.378703
vn 0.914266 -0.143879 -0.378703
vn 0.914266 -0.143879 -0.378703
vn 0.378705 -0.143878 -0.914266
vn 0.378705 -0.143878 -0.914266
vn 0.378705 -0.143878 -0.914266
vn 0.378705 -0.143878 -0.914266
vn -0.378705 -0.143878 -0.914266
vn -0.378705 -0.143878 -0.914266
vn -0.378705 -0.143878 -0.914266
vn -0.378705 -0.143878 -0.914266
vn -0.914265 -0.143889 -0.378703
vn -0.914265 -0.143889 -0.378703
vn -0.914265 -0.143889 -0.378703
vn -0.914265 -0.143889 -0.378703
vn -0.914266 -0.143882 0.378703
vn -0.914266 -0.143882 0.378703
vn -0.914266 -0.143882 0.378703
vn -0.914266 -0.143882 0.378703
vn 0.612993 0.054591 0.788200
vn 0.612993 0.054591 0.788200
vn 0.612993 0.054591 0.788200
vn 0.612993 0.054591 0.788200
vn 0.896551 -0.442941 0.000000
vn 0.896551 -0.442941 0.000000
vn 0.896551 -0.442941 0.000000
vn 0.896551 -0.442941 0.000000
vn 0.612968 0.054597 -0.788219
vn 0.612968 0.054597 -0.788219
vn 0.612968 0.054597 -0.788219
vn 0.612968 0.054597 -0.788219
vn 0.154131 0.859610 -0.487149
vn 0.154131 0.859610 -0.487149
vn 0.154131 0.859610 -0.487149
vn 0.154131 0.859610 -0.487149
vn 0.154165 0.859604 0.487148
vn 0.154165 0.859604 0.487148
vn 0.154165 0.859604 0.487148
vn 0.154165 0.859604 0.487148
vn -0.153031 0.268483 -0.951051
vn -0.153031 0.268483 -0.951051
vn -0.153031 0.268483 -0.951051
vn -0.153031 0.268483 -0.951051
vn -0.495188 0.868786 -0.000002
vn -0.495188 0.868786 -0.000002
vn -0.495188 0.868786 -0.000002
vn -0.495188 0.868786 -0.000002
vn -0.153028 0.268478 0.951053
vn -0.153028 0.268478 0.951053
vn -0.153028 0.268478 0.951053
vn -0.153028 0.268478 0.951053
vn 0.400607 -0.702869 0.587783
vn 0.400607 -0.702869 0.587783
vn 0.400607 -0.702869 0.587783
vn 0.400607 -0.702869 0.587783
vn 0.400607 -0.702869 -0.587783
vn 0.400607 -0.702869 -0.587783
vn 0.400607 -0.702869 -0.587783
vn 0.400607 -0.702869 -0.587783
vn -0.359357 -0.499608 0.788197
vn -0.359357 -0.499608 0.788197
vn -0.359357 -0.499608 0.788197
vn -0.359357 -0.499608 0.788197
vn -0.075762 -0.997126 -0.000000
vn -0.075762 -0.997126 -0.000000
vn -0.075762 -0.997126 -0.000000
vn -0.075762 -0.997126 -0.000000
vn -0.359297 -0.499609 -0.788223
vn -0.359297 -0.499610 -0.788223
vn -0.359297 -0.499609 -0.788223
vn -0.359297 -0.499610 -0.788223
vn -0.818169 0.305444 -0.487138
vn -0.818169 0.305444 -0.487138
vn -0.818169 0.305444 -0.487138
vn -0.818169 0.305444 -0.487138
vn -0.818177 0.305438 0.487129
vn -0.818177 0.305438 0.487129
vn -0.818177 0.305438 0.487129
vn -0.818177 0.305438 0.487129
s off
g initialShadingGroup door_colored:door_colored:door_colored:door_colored:door_colored:door_colored:door_colored:door_colored:door_colored:door_colored:door_colored:door_colored:door_colored:door_colored:door_colored:door_colored:pSphere3
usemtl phong1SG
f 1/1/1 2/2/2 6/7/3 5/6/4
f 2/2/5 3/3/6 7/8/7 6/7/8
f 3/3/9 4/4/10 8/9/11 7/8/12
f 4/4/13 1/5/14 5/10/15 8/9/16
f 5/6/17 6/7/18 10/12/19 9/11/20
f 6/7/21 7/8/22 11/13/23 10/12/24
f 7/8/25 8/9/26 12/14/27 11/13/28
f 8/9/29 5/10/30 9/15/31 12/14/32
f 2/2/33 1/1/34 13/16/35
f 3/3/36 2/2/37 13/17/38
f 4/4/39 3/3/40 13/18/41
f 1/5/42 4/4/43 13/19/44
f 9/11/45 10/12/46 14/20/47
f 10/12/48 11/13/49 14/21/50
f 11/13/51 12/14/52 14/22/53
f 12/14/54 9/15/55 14/23/56
f 16/70/57 15/25/58 23/77/59 24/78/60
f 17/27/61 16/24/62 24/26/63 25/28/64
f 18/29/65 17/27/66 25/28/67 26/30/68
f 19/31/69 18/29/70 26/30/71 27/32/72
f 20/33/73 19/31/74 27/32/75 28/34/76
f 21/35/77 20/33/78 28/34/79 29/36/80
f 22/37/81 21/35/82 29/36/83 30/38/84
f 15/25/85 22/37/86 30/38/87 23/77/88
f 24/84/89 23/85/90 31/86/91 32/87/92
f 25/90/93 24/84/94 32/87/95 33/91/96
f 26/94/97 25/90/98 33/91/99 34/95/100
f 27/98/101 26/94/102 34/95/103 35/99/104
f 28/96/105 27/98/106 35/99/107 36/97/108
f 29/92/109 28/96/110 36/97/111 37/93/112
f 30/88/113 29/92/114 37/93/115 38/89/116
f 23/85/117 30/88/118 38/89/119 31/86/120
f 32/76/121 31/75/122 39/73/123 40/74/124
f 33/40/125 32/39/126 40/46/127 41/47/128
f 34/41/129 33/40/130 41/47/131 42/48/132
f 35/42/133 34/41/134 42/48/135 43/49/136
f 36/43/137 35/42/138 43/49/139 44/50/140
f 37/44/141 36/43/142 44/50/143 45/51/144
f 38/45/145 37/44/146 45/51/147 46/52/148
f 31/75/149 38/45/150 46/52/151 39/73/152
f 40/74/153 39/73/154 47/71/155 48/72/156
f 41/47/157 40/46/158 48/53/159 49/54/160
f 42/48/161 41/47/162 49/54/163 50/55/164
f 43/49/165 42/48/166 50/55/167 51/56/168
f 44/50/169 43/49/170 51/56/171 52/57/172
f 45/51/173 44/50/174 52/57/175 53/58/176
f 46/52/177 45/51/178 53/58/179 54/59/180
f 39/73/181 46/52/182 54/59/183 47/71/184
f 48/72/185 47/71/186 15/25/187 16/70/188
f 49/54/189 48/53/190 16/24/191 17/27/192
f 50/55/193 49/54/194 17/27/195 18/29/196
f 51/56/197 50/55/198 18/29/199 19/31/200
f 52/57/201 51/56/202 19/31/203 20/33/204
f 53/58/205 52/57/206 20/33/207 21/35/208
f 54/59/209 53/58/210 21/35/211 22/37/212
f 47/71/213 54/59/214 22/37/215 15/25/216
f 56/60/217 55/61/218 60/62/219 61/63/220
f 57/64/221 56/60/222 61/63/223 62/65/224
f 58/66/225 57/64/226 62/65/227 63/67/228
f 59/68/229 58/66/230 63/67/231 64/69/232
f 55/61/233 59/68/234 64/69/235 60/62/236
f 61/63/237 60/62/238 65/79/239 66/80/240
f 62/65/241 61/63/242 66/80/243 67/81/244
f 63/67/245 62/65/246 67/81/247 68/82/248
f 64/69/249 63/67/250 68/82/251 69/83/252
f 60/62/253 64/69/254 69/83/255 65/79/256
f 66/80/257 65/79/258 55/61/259 56/60/260
f 67/81/261 66/80/262 56/60/263 57/64/264
f 68/82/265 67/81/266 57/64/267 58/66/268
f 69/83/269 68/82/270 58/66/271 59/68/272
f 65/79/273 69/83/274 59/68/275 55/61/276
