# This file uses meters as units for non-parametric coordinates.

mtllib shelf Narrow.mtl
g default
v -830.901649 4.604002 418.773022
v -730.901649 4.604002 418.773022
v -830.901649 224.604018 418.773022
v -730.901649 224.604018 418.773022
v -830.901649 224.604018 378.773022
v -730.901649 224.604018 378.773022
v -830.901649 4.604002 378.773022
v -730.901649 4.604002 378.773022
v -730.925388 151.270659 418.773022
v -830.871712 151.270659 418.773022
v -830.901649 151.270659 378.773022
v -730.901649 151.270659 378.773022
v -730.922417 77.937331 418.773022
v -830.892395 77.937331 418.773022
v -830.901649 77.937331 378.773022
v -730.901649 77.937331 378.773022
v -824.901649 10.604002 418.773022
v -736.901649 10.604002 418.773022
v -736.901649 218.604018 418.773022
v -824.901649 218.604018 418.773022
v -824.901649 77.937331 378.773022
v -736.901649 77.937331 378.773022
v -736.901649 10.604002 378.773022
v -824.901649 10.604002 378.773022
v -824.901649 218.604018 378.773022
v -736.901649 218.604018 378.773022
v -736.901649 151.270659 378.773022
v -824.901649 151.270659 378.773022
v -736.901649 82.736853 418.773022
v -736.901649 73.137808 418.773022
v -824.901649 82.736853 418.773022
v -824.901649 73.137808 418.773022
v -736.901649 146.471144 418.773022
v -736.901649 156.070174 418.773022
v -824.901649 146.471144 418.773022
v -824.901649 156.070174 418.773022
v -830.901649 224.604018 416.300656
v -730.901649 224.604018 416.300656
v -730.901649 151.270659 416.300640
v -730.901649 77.937331 416.300640
v -730.901649 4.604002 416.300640
v -830.901649 4.604002 416.300640
v -830.901649 77.937331 416.300656
v -830.901649 151.270659 416.300656
v -830.901649 4.604002 381.202206
v -730.901649 4.604002 381.202206
v -730.901649 77.937331 381.202206
v -730.901649 151.270659 381.202206
v -730.901649 224.604018 381.202221
v -830.901649 224.604018 381.202221
v -830.901649 151.270659 381.202221
v -830.901649 77.937331 381.202221
v -733.844193 4.604002 418.773022
v -733.844223 4.604010 416.300640
v -733.844193 4.604002 381.202206
v -733.844193 4.604002 378.773022
v -739.442024 10.604002 378.773022
v -739.442024 77.937331 378.773022
v -739.442024 151.270659 378.773022
v -739.442024 218.604018 378.773022
v -733.844193 224.604018 378.773022
v -733.844223 224.603987 381.202221
v -733.844193 224.604018 416.300656
v -733.844193 224.604018 418.773022
v -739.442024 218.604018 418.773022
v -739.442024 156.070174 418.773022
v -739.442047 146.471144 418.773022
v -739.442024 82.736853 418.773022
v -739.442047 73.137808 418.773022
v -739.442024 10.604002 418.773022
v -828.203358 4.604002 418.773022
v -828.203331 4.604002 416.300640
v -828.203358 4.604002 381.202206
v -828.203358 4.604002 378.773022
v -822.624184 10.604002 378.773022
v -822.624184 77.937331 378.773022
v -822.624184 151.270659 378.773022
v -822.624184 218.604018 378.773022
v -828.203358 224.604018 378.773022
v -828.203331 224.604018 381.202221
v -828.203358 224.604018 416.300656
v -828.203358 224.604018 418.773022
v -822.624184 218.604018 418.773022
v -822.624184 156.070174 418.773022
v -822.624161 146.471144 418.773022
v -822.624184 82.736853 418.773022
v -822.624161 73.137808 418.773022
v -822.624184 10.604002 418.773022
v -828.203339 4.603995 410.036999
v -733.844219 4.604010 410.037075
v -828.203354 4.604002 387.645428
v -733.844196 4.604002 387.645535
v -740.061497 4.604002 416.300640
v -740.061546 4.604010 410.037075
v -740.061523 4.604002 387.645519
v -740.061520 4.604002 381.202206
v -821.529762 4.604002 416.300640
v -821.529774 4.603995 410.037014
v -821.529762 4.604010 387.645443
v -821.529766 4.604010 381.202206
v -741.861477 -1.323404 418.100643
v -741.861557 -1.323389 408.237072
v -732.044216 -1.323389 408.237072
v -732.044220 -1.323389 418.100643
v -741.861523 -1.323396 389.445507
v -732.044197 -1.323396 389.445538
v -741.861519 -1.323396 379.402203
v -732.044193 -1.323396 379.402203
v -830.003334 -1.323396 418.100651
v -830.003353 -1.323404 408.236996
v -819.729782 -1.323411 408.237011
v -819.729763 -1.323396 418.100651
v -819.729759 -1.323389 389.445446
v -819.729763 -1.323389 379.402203
v -830.003349 -1.323396 389.445431
v -830.003353 -1.323396 379.402203
v -822.624184 218.604018 388.498852
v -822.624184 156.070174 388.498852
v -739.442024 156.070174 388.498852
v -739.442024 218.604018 388.498852
v -822.624161 146.471144 388.498852
v -822.624184 82.736853 388.498852
v -739.442024 82.736853 388.498852
v -739.442047 146.471144 388.498852
v -822.624161 73.137808 388.498852
v -822.624184 10.604002 388.498852
v -739.442024 10.604002 388.498852
v -739.442047 73.137808 388.498852
vt 0.625000 0.000000
vt 0.375000 0.250000
vt 0.625000 0.250000
vt 0.375000 0.500000
vt 0.625000 0.500000
vt 0.375000 0.750000
vt 0.625000 0.750000
vt 0.375000 1.000000
vt 0.625000 1.000000
vt 0.875000 0.000000
vt 0.875000 0.250000
vt 0.125000 0.000000
vt 0.125000 0.250000
vt 0.625000 0.166667
vt 0.375000 0.166667
vt 0.125000 0.166667
vt 0.375000 0.583333
vt 0.625000 0.583333
vt 0.875000 0.166667
vt 0.625000 0.083333
vt 0.375000 0.083333
vt 0.125000 0.083333
vt 0.375000 0.666667
vt 0.625000 0.666667
vt 0.875000 0.083333
vt 0.625000 0.083333
vt 0.375000 0.083333
vt 0.625000 0.666667
vt 0.625000 0.750000
vt 0.375000 0.750000
vt 0.375000 0.666667
vt 0.625000 0.166667
vt 0.375000 0.250000
vt 0.375000 0.166667
vt 0.375000 0.500000
vt 0.625000 0.500000
vt 0.625000 0.583333
vt 0.375000 0.583333
vt 0.625000 0.083333
vt 0.375000 0.000000
vt 0.375000 0.000000
vt 0.625000 0.166667
vt 0.625000 0.250000
vt 0.625000 0.244546
vt 0.625000 0.172121
vt 0.625000 0.666667
vt 0.625000 0.750000
vt 0.625000 0.750000
vt 0.625000 0.672607
vt 0.625000 0.250000
vt 0.375000 0.250000
vt 0.391362 0.250000
vt 0.608638 0.250000
vt 0.375000 0.666667
vt 0.375000 0.672607
vt 0.625000 0.000000
vt 0.625000 0.250000
vt 0.375000 0.250000
vt 0.625000 0.077393
vt 0.375000 0.088787
vt 0.625000 0.161213
vt 0.375000 0.172607
vt 0.625000 0.088787
vt 0.375000 0.077393
vt 0.625000 0.166667
vt 0.625000 0.172607
vt 0.375000 0.161213
vt 0.375000 0.166667
vt 0.355158 0.250000
vt 0.375000 0.269842
vt 0.625000 0.269842
vt 0.644842 0.250000
vt 0.644842 0.166667
vt 0.644842 0.083333
vt 0.625000 0.980158
vt 0.644842 0.000000
vt 0.355158 0.000000
vt 0.375000 0.980158
vt 0.355158 0.083333
vt 0.355158 0.166667
vt 0.145136 0.000000
vt 0.375000 0.770136
vt 0.625000 0.770136
vt 0.854864 0.000000
vt 0.854864 0.083333
vt 0.854864 0.166667
vt 0.625000 0.479864
vt 0.854864 0.250000
vt 0.145136 0.250000
vt 0.375000 0.479864
vt 0.145136 0.166667
vt 0.145136 0.083333
vt 0.616621 0.000000
vt 0.616621 1.000000
vt 0.616621 0.980158
vt 0.616621 0.770136
vt 0.616621 0.750000
vt 0.383379 0.500000
vt 0.383379 0.500000
vt 0.616621 0.750000
vt 0.616621 0.666667
vt 0.616621 0.583333
vt 0.616621 0.500000
vt 0.375000 0.502793
vt 0.375000 0.502793
vt 0.616621 0.500000
vt 0.616621 0.479864
vt 0.616622 0.269842
vt 0.616621 0.250000
vt 0.616621 0.750000
vt 0.616621 0.750000
vt 0.616621 0.250000
vt 0.616621 0.172607
vt 0.616621 0.161213
vt 0.616621 0.088787
vt 0.616621 0.077393
vt 0.616621 0.000000
vt 0.383767 0.000000
vt 0.383767 1.000000
vt 0.383767 0.980158
vt 0.383767 0.770136
vt 0.383767 0.750000
vt 0.616233 0.500000
vt 0.616233 0.500000
vt 0.383767 0.750000
vt 0.383767 0.666667
vt 0.383767 0.583333
vt 0.383767 0.500000
vt 0.375000 0.580411
vt 0.375000 0.580411
vt 0.383767 0.500000
vt 0.383767 0.479864
vt 0.383767 0.269842
vt 0.383767 0.250000
vt 0.383767 0.750000
vt 0.383767 0.750000
vt 0.383767 0.250000
vt 0.383767 0.172607
vt 0.383767 0.161213
vt 0.383767 0.088787
vt 0.383767 0.077393
vt 0.383767 0.000000
vt 0.383767 0.942678
vt 0.616621 0.942678
vt 0.383767 0.798074
vt 0.616621 0.798074
vt 0.601279 0.980158
vt 0.601279 0.942678
vt 0.601279 0.798074
vt 0.601279 0.770136
vt 0.400236 0.980158
vt 0.400236 0.942678
vt 0.400236 0.798074
vt 0.400236 0.770136
vt 0.601279 0.980158
vt 0.601279 0.942678
vt 0.616621 0.942678
vt 0.616621 0.980158
vt 0.616621 0.798074
vt 0.601279 0.798074
vt 0.601279 0.770136
vt 0.616621 0.770136
vt 0.383767 0.980158
vt 0.383767 0.942678
vt 0.400236 0.942678
vt 0.400236 0.980158
vt 0.400236 0.770136
vt 0.400236 0.798074
vt 0.383767 0.798074
vt 0.383767 0.770136
vt 0.383767 0.250000
vt 0.383767 0.172607
vt 0.616621 0.172607
vt 0.616621 0.250000
vt 0.383767 0.161213
vt 0.383767 0.088787
vt 0.616621 0.088787
vt 0.616621 0.161213
vt 0.383767 0.077393
vt 0.383767 0.000000
vt 0.616621 0.000000
vt 0.616621 0.077393
vt 0.625000 0.250000
vt 0.625000 0.166667
vt 0.375000 0.750000
vt 0.625000 0.500000
vt 0.625000 0.500000
vt 0.375000 0.250000
vt 0.375000 0.750000
vt 0.625000 0.583333
vt 0.625000 0.500000
vt 0.375000 0.500000
vt 0.375000 0.500000
vt 0.375000 0.166667
vt 0.375000 0.083333
vt 0.375000 0.166667
vt 0.625000 0.583333
vt 0.625000 0.166667
vt 0.375000 0.166667
vt 0.375000 0.166667
vt 0.375000 0.250000
vt 0.625000 0.500000
vt 0.375000 0.750000
vt 0.375000 0.750000
vt 0.375000 0.500000
vt 0.375000 0.583333
vt 0.375000 0.583333
vt 0.375000 0.500000
vn 0.000000 0.000000 1.000000
vn 0.000000 0.000000 1.000000
vn 0.000000 0.000000 1.000000
vn 0.000000 0.000000 1.000000
vn 0.000000 1.000000 0.000000
vn -0.000000 1.000000 -0.000000
vn -0.000005 1.000000 -0.000000
vn -0.000005 1.000000 0.000000
vn 0.000000 0.000000 -1.000000
vn 0.000000 0.000000 -1.000000
vn 0.000000 0.000000 -1.000000
vn 0.000000 0.000000 -1.000000
vn -0.000001 -1.000000 0.000000
vn -0.000001 -1.000000 -0.000000
vn -0.000002 -1.000000 -0.000000
vn 1.000000 0.000005 0.000434
vn 1.000000 0.000009 0.000276
vn 1.000000 0.000000 0.000000
vn 1.000000 0.000000 0.000000
vn -1.000000 0.000000 0.000000
vn -1.000000 0.000000 0.000000
vn -1.000000 0.000004 0.000123
vn -1.000000 0.000007 0.000322
vn 0.000000 0.000000 1.000000
vn 0.000000 0.000000 1.000000
vn -0.000000 0.000000 1.000000
vn -0.000000 0.000000 1.000000
vn -1.000000 0.000000 0.000000
vn -1.000000 0.000000 0.000000
vn -1.000000 -0.000002 0.000460
vn -1.000000 -0.000013 0.000398
vn 0.000000 0.000000 -1.000000
vn 0.000000 0.000000 -1.000000
vn 0.000000 0.000000 -1.000000
vn 0.000000 0.000000 -1.000000
vn 1.000000 -0.000011 0.000316
vn 1.000000 -0.000005 0.000454
vn 1.000000 0.000000 0.000000
vn 1.000000 0.000000 0.000000
vn 0.000000 0.000000 1.000000
vn 0.000000 0.000000 1.000000
vn -0.000000 0.000000 1.000000
vn -0.000000 0.000000 1.000000
vn 0.000000 0.000000 1.000000
vn 0.000000 0.000000 1.000000
vn 0.000000 0.000000 1.000000
vn -0.000000 0.000000 1.000000
vn -0.000000 0.000000 1.000000
vn -0.000000 0.000000 1.000000
vn -0.000000 0.000000 1.000000
vn -0.000000 0.000000 1.000000
vn -0.000000 0.000000 1.000000
vn 0.000000 0.000000 1.000000
vn 0.000000 0.000000 1.000000
vn 0.000000 0.000000 1.000000
vn 0.000000 0.000000 1.000000
vn 0.000000 0.000000 1.000000
vn -0.000000 0.000000 1.000000
vn -0.000000 0.000000 1.000000
vn 0.000000 0.000000 -1.000000
vn 0.000000 0.000000 -1.000000
vn 0.000000 0.000000 -1.000000
vn 0.000000 0.000000 -1.000000
vn 0.000000 0.000000 -1.000000
vn 0.000000 0.000000 -1.000000
vn 0.000000 0.000000 -1.000000
vn 0.000000 0.000000 -1.000000
vn 0.000000 0.000000 -1.000000
vn 0.000000 0.000000 -1.000000
vn 0.000000 0.000000 -1.000000
vn 0.000000 0.000000 -1.000000
vn 0.000000 0.000000 -1.000000
vn 0.000000 0.000000 -1.000000
vn 0.000000 1.000000 0.000000
vn 0.000000 1.000000 0.000000
vn 0.999976 -0.000071 0.006901
vn 0.999989 -0.000162 0.004801
vn 0.999978 0.000081 0.006600
vn 0.999991 0.000142 0.004200
vn -0.000000 -1.000000 0.000000
vn -0.000001 -1.000000 0.000000
vn -0.999998 0.000063 0.001872
vn -0.999988 0.000102 0.004899
vn -0.999976 -0.000032 0.006990
vn -0.999982 -0.000204 0.006054
vn 0.000000 -1.000000 0.000001
vn -0.000000 -1.000000 0.000000
vn 0.000000 -1.000000 0.000000
vn -0.000001 -1.000000 0.000000
vn 1.000000 0.000000 0.000000
vn 1.000000 0.000000 0.000000
vn 1.000000 0.000000 0.000000
vn 1.000000 0.000000 0.000000
vn -0.000000 1.000000 0.000004
vn -0.000005 1.000000 0.000004
vn -1.000000 0.000000 0.000000
vn -1.000000 0.000000 0.000000
vn -1.000000 0.000000 0.000000
vn -1.000000 0.000000 0.000000
vn 0.000000 -1.000000 -0.000001
vn 0.000000 -1.000000 -0.000001
vn 0.000000 -1.000000 0.000002
vn 0.000001 -1.000000 -0.000001
vn 0.000001 -1.000000 -0.000001
vn 0.000001 -1.000000 -0.000001
vn 0.000001 -1.000000 -0.000001
vn -0.000000 -1.000000 0.000001
vn 0.000000 0.000000 -1.000000
vn 0.000000 0.000000 -1.000000
vn 0.000000 0.000000 -1.000000
vn 0.000000 0.000000 -1.000000
vn 0.000000 0.000000 -1.000000
vn 0.000000 0.000000 -1.000000
vn 0.000000 1.000000 0.000004
vn 0.000000 1.000000 0.000000
vn 0.000000 1.000000 -0.000000
vn 0.000000 1.000000 0.000000
vn 0.000000 0.000000 1.000000
vn 0.000000 0.000000 1.000000
vn 0.000000 0.000000 1.000000
vn 0.000000 0.000000 1.000000
vn 0.000000 0.000000 1.000000
vn 0.000000 0.000000 1.000000
vn 0.000000 0.000000 1.000000
vn 0.000000 0.000000 1.000000
vn 0.000000 0.000000 1.000000
vn 0.000000 0.000000 1.000000
vn 0.000000 0.000000 1.000000
vn 0.000000 0.000000 1.000000
vn 0.000000 0.000000 1.000000
vn 0.000000 0.000000 1.000000
vn 0.000000 0.000000 1.000000
vn 0.000000 0.000000 1.000000
vn 0.000000 0.000000 1.000000
vn 0.000000 0.000000 1.000000
vn 0.000000 0.000000 1.000000
vn 0.000000 0.000000 1.000000
vn -0.000001 -1.000000 0.000000
vn 0.000000 -1.000000 0.000000
vn -0.000001 -1.000000 0.000000
vn 0.000000 -1.000000 0.000001
vn -0.000000 -1.000000 -0.000000
vn 0.000000 -1.000000 0.000000
vn 0.000000 -1.000000 0.000000
vn 0.000000 1.000000 0.000000
vn 0.000000 1.000000 0.000000
vn 0.000000 1.000000 0.000000
vn 0.000000 1.000000 0.000000
vn 0.000000 -1.000000 0.000000
vn 0.000000 -1.000000 -0.000000
vn -0.000001 -1.000000 0.000000
vn 0.000000 -1.000000 0.000000
vn 0.000000 -1.000000 0.000000
vn 0.000000 -1.000000 0.000000
vn 0.000000 -1.000000 0.000000
vn 0.000000 -1.000000 -0.000000
vn 0.000000 -1.000000 0.000002
vn 0.000000 -1.000000 -0.000000
vn -0.000000 -1.000000 0.000001
vn -0.000000 -1.000000 0.000001
vn -0.000000 -1.000000 0.000001
vn -0.000000 -1.000000 0.000001
vn -0.000000 -1.000000 0.000001
vn -0.000000 -1.000000 -0.000000
vn 0.000001 -1.000000 0.000000
vn 0.000001 -1.000000 0.000000
vn 0.000001 -1.000000 0.000000
vn 0.000001 -1.000000 0.000000
vn -0.956853 0.290571 0.000008
vn -0.956853 0.290571 0.000008
vn -0.956853 0.290571 0.000008
vn -0.956853 0.290571 0.000008
vn 0.000000 0.290572 -0.956853
vn 0.000000 0.290572 -0.956853
vn 0.000000 0.290572 -0.956853
vn 0.000000 0.290572 -0.956853
vn 0.956853 0.290572 0.000001
vn 0.956853 0.290572 0.000001
vn 0.956853 0.290572 0.000001
vn 0.956853 0.290572 0.000001
vn -0.000000 0.290572 0.956853
vn -0.000000 0.290572 0.956853
vn -0.000000 0.290572 0.956853
vn -0.000000 0.290572 0.956853
vn -0.000003 0.290571 0.956853
vn -0.000003 0.290571 0.956853
vn -0.000003 0.290571 0.956853
vn -0.000003 0.290571 0.956853
vn -0.956853 0.290572 -0.000001
vn -0.956853 0.290572 -0.000001
vn -0.956853 0.290572 -0.000001
vn -0.956853 0.290572 -0.000001
vn 0.000000 0.290573 -0.956853
vn 0.000000 0.290573 -0.956853
vn 0.000000 0.290573 -0.956853
vn 0.000000 0.290573 -0.956853
vn 0.956853 0.290572 0.000001
vn 0.956853 0.290572 0.000001
vn 0.956853 0.290572 0.000001
vn 0.956853 0.290572 0.000001
vn -0.956853 0.290572 0.000001
vn -0.956853 0.290572 0.000001
vn -0.956853 0.290572 0.000001
vn -0.956853 0.290572 0.000001
vn 0.000002 0.290572 -0.956853
vn 0.000002 0.290572 -0.956853
vn 0.000002 0.290572 -0.956853
vn 0.000002 0.290572 -0.956853
vn 0.956853 0.290571 -0.000002
vn 0.956853 0.290571 -0.000002
vn 0.956853 0.290571 -0.000002
vn 0.956854 0.290571 -0.000002
vn 0.000000 0.290573 0.956853
vn 0.000000 0.290573 0.956853
vn 0.000000 0.290573 0.956853
vn 0.000000 0.290573 0.956853
vn 0.956853 0.290573 -0.000001
vn 0.956853 0.290573 -0.000001
vn 0.956853 0.290573 -0.000001
vn 0.956853 0.290573 -0.000001
vn -0.000002 0.290572 0.956853
vn -0.000002 0.290572 0.956853
vn -0.000002 0.290572 0.956853
vn -0.000002 0.290572 0.956853
vn -0.956853 0.290571 0.000000
vn -0.956853 0.290571 0.000000
vn -0.956853 0.290571 0.000000
vn -0.956853 0.290571 0.000000
vn -0.000000 0.290572 -0.956853
vn -0.000000 0.290572 -0.956853
vn -0.000000 0.290572 -0.956853
vn -0.000000 0.290572 -0.956853
vn 1.000000 0.000000 0.000000
vn 1.000000 0.000000 0.000000
vn 1.000000 0.000000 0.000000
vn 1.000000 0.000000 0.000000
vn 0.000000 1.000000 0.000000
vn 0.000000 1.000000 0.000000
vn 0.000000 1.000000 0.000000
vn 0.000000 1.000000 0.000000
vn -1.000000 0.000000 0.000000
vn -1.000000 0.000000 0.000000
vn -1.000000 0.000000 0.000000
vn -1.000000 0.000000 0.000000
vn 0.000000 -1.000000 0.000000
vn 0.000000 -1.000000 0.000000
vn 0.000000 -1.000000 0.000000
vn 0.000000 -1.000000 0.000000
vn 1.000000 -0.000000 0.000000
vn 1.000000 -0.000000 0.000000
vn 1.000000 -0.000000 0.000000
vn 1.000000 -0.000000 0.000000
vn 0.000000 1.000000 0.000000
vn 0.000000 1.000000 0.000000
vn 0.000000 1.000000 0.000000
vn 0.000000 1.000000 0.000000
vn -1.000000 -0.000000 0.000000
vn -1.000000 -0.000000 0.000000
vn -1.000000 -0.000000 0.000000
vn -1.000000 -0.000000 0.000000
vn 0.000000 -1.000000 0.000000
vn 0.000000 -1.000000 0.000000
vn 0.000000 -1.000000 0.000000
vn 0.000000 -1.000000 0.000000
vn 1.000000 -0.000000 0.000000
vn 1.000000 -0.000000 0.000000
vn 1.000000 -0.000000 0.000000
vn 1.000000 -0.000000 0.000000
vn 0.000000 1.000000 0.000000
vn 0.000000 1.000000 0.000000
vn 0.000000 1.000000 0.000000
vn 0.000000 1.000000 0.000000
vn -1.000000 -0.000000 0.000000
vn -1.000000 -0.000000 0.000000
vn -1.000000 -0.000000 0.000000
vn -1.000000 -0.000000 0.000000
vn 0.000000 -1.000000 0.000000
vn 0.000000 -1.000000 0.000000
vn 0.000000 -1.000000 0.000000
vn 0.000000 -1.000000 0.000000
s 1
g shelfNarrow
usemtl initialShadingGroup
f 69/116/1 70/117/2 18/56/3 30/59/4
s 2
f 62/107/5 63/108/6 38/71/7 49/87/8
s 3
f 57/100/9 58/101/10 22/28/11 23/29/12
s 4
f 54/95/13 90/144/14 41/75/15
s 5
f 40/74/16 41/76/17 46/84/18 47/85/19
s 6
f 52/92/20 45/81/21 42/77/22 43/79/23
s 1
f 65/112/24 66/113/25 34/66/26 19/57/27
s 6
f 50/89/28 51/91/29 44/80/30 37/69/31
s 3
f 59/102/32 60/103/33 26/36/34 27/37/35
s 5
f 38/72/36 39/73/37 48/86/38 49/88/39
s 1
f 67/114/40 68/115/41 29/63/42 33/61/43
s 6
f 51/91/29 52/92/20 43/79/23 44/80/30
s 3
f 58/101/10 59/102/32 27/37/35 22/28/11
s 5
f 39/73/37 40/74/16 47/85/19 48/86/38
s 1
f 70/117/2 53/93/44 2/1/45 18/56/3
f 2/1/45 13/39/46 30/59/4 18/56/3
f 14/21/47 1/40/48 17/41/49 32/64/50
f 9/46/51 4/47/52 19/48/27 34/49/26
f 4/47/52 64/110/53 65/111/24 19/48/27
f 3/6/54 10/54/55 36/55/56 20/30/57
f 13/42/46 9/43/51 33/44/43 29/45/42
f 10/50/55 14/51/47 31/52/58 35/53/59
s 3
f 16/2/60 8/15/61 23/34/12 22/33/11
f 8/4/61 56/98/62 57/99/9 23/35/12
f 7/5/63 15/18/64 21/190/65 24/191/66
f 60/104/33 61/105/67 6/192/68 26/193/34
f 6/20/68 12/14/69 27/32/35 26/26/34
f 11/194/70 5/195/71 25/27/72 28/196/73
f 12/197/69 16/24/60 22/28/11 27/37/35
f 15/23/64 11/17/70 28/38/73 21/31/65
s 1
f 30/59/4 29/63/42 68/115/41 69/116/1
f 33/61/43 34/66/26 66/113/25 67/114/40
f 29/63/42 30/59/4 13/39/46
f 31/60/58 14/21/47 32/64/50
f 33/61/43 9/65/51 34/66/26
f 35/67/59 36/62/56 10/68/55
s 2
f 63/108/6 64/109/74 4/3/75 38/71/7
s 5
f 9/184/76 39/73/37 38/72/36 4/183/77
f 13/39/78 40/74/16 39/73/37 9/198/76
f 2/1/79 41/76/17 40/74/16 13/39/78
s 4
f 53/94/80 54/95/13 41/75/15 2/9/81
s 6
f 43/79/23 42/77/22 1/40/82 14/21/83
f 44/80/30 43/79/23 14/21/83 10/199/84
f 37/69/31 44/80/30 10/200/84 3/201/85
s 4
f 55/96/86 56/97/87 8/7/88 46/83/89
s 5
f 47/85/19 46/84/18 8/10/90 16/25/91
f 48/86/38 47/85/19 16/25/91 12/19/92
f 49/88/39 48/86/38 12/19/92 6/11/93
s 2
f 61/106/94 62/107/5 49/87/8 6/202/95
s 6
f 11/16/96 51/91/29 50/89/28 5/13/97
f 15/22/98 52/92/20 51/91/29 11/16/96
f 7/12/99 45/81/21 52/92/20 15/22/98
s 4
f 71/119/100 72/120/101 97/151/102
s off
f 101/155/103 102/156/104 103/157/105 104/158/106
s 4
f 96/150/107 56/97/87 55/96/86
s 3
f 57/99/9 56/98/62 74/123/108 75/124/109
f 75/125/109 76/126/110 58/101/10 57/100/9
f 76/126/110 77/127/111 59/102/32 58/101/10
f 77/127/111 78/128/112 60/103/33 59/102/32
f 78/129/112 79/130/113 61/105/67 60/104/33
s 2
f 79/131/114 80/132/115 62/107/5 61/106/94
f 80/132/115 81/133/116 63/108/6 62/107/5
f 81/133/116 82/134/117 64/109/74 63/108/6
s 1
f 65/111/24 64/110/53 82/135/118 83/136/119
s off
f 117/171/120 118/172/121 119/173/122 120/174/123
s 1
f 67/114/40 66/113/25 84/138/124 85/139/125
s off
f 121/175/126 122/176/127 123/177/128 124/178/129
s 1
f 69/116/1 68/115/41 86/140/130 87/141/131
s off
f 125/179/132 126/180/133 127/181/134 128/182/135
s 1
f 88/142/136 71/118/137 53/93/44 70/117/2
s 4
f 42/78/138 72/120/101 71/119/100 1/8/139
f 45/82/140 73/121/141 91/145/142
f 7/203/143 74/122/144 73/121/141 45/82/140
s 3
f 75/124/109 74/123/108 7/187/63 24/186/66
f 21/31/65 76/126/110 75/125/109 24/204/66
f 28/38/73 77/127/111 76/126/110 21/31/65
f 25/205/72 78/128/112 77/127/111 28/38/73
f 5/206/71 79/130/113 78/129/112 25/207/72
s 2
f 50/90/145 80/132/115 79/131/114 5/208/146
f 37/70/147 81/133/116 80/132/115 50/90/145
f 3/188/148 82/134/117 81/133/116 37/70/147
s 1
f 83/136/119 82/135/118 3/189/54 20/185/57
f 36/62/56 84/138/124 83/137/119 20/58/57
f 85/139/125 84/138/124 36/62/56 35/67/59
f 31/60/58 86/140/130 85/139/125 35/67/59
f 87/141/131 86/140/130 31/60/58 32/64/50
f 17/41/49 88/142/136 87/141/131 32/64/50
f 1/40/48 71/118/137 88/142/136 17/41/49
s 4
f 90/144/14 94/148/149 95/149/150 92/146/151
s off
f 106/159/152 105/160/153 107/161/154 108/162/155
s 4
f 97/151/102 98/152/156 94/148/149 93/147/157
f 95/149/150 94/148/149 98/152/156 99/153/158
f 96/150/107 95/149/150 99/153/158 100/154/159
s off
f 109/163/160 110/164/161 111/165/162 112/166/163
s 4
f 99/153/158 98/152/156 89/143/164 91/145/142
s off
f 114/167/165 113/168/166 115/169/167 116/170/168
s 4
f 53/94/80 93/147/157 54/95/13
f 71/119/100 97/151/102 93/147/157 53/94/80
f 73/121/141 74/122/144 100/154/159
f 100/154/159 74/122/144 56/97/87 96/150/107
s off
f 93/147/169 94/148/170 102/156/171 101/155/172
f 94/148/173 90/144/174 103/157/175 102/156/176
f 90/144/177 54/95/178 104/158/179 103/157/180
f 54/95/181 93/147/182 101/155/183 104/158/184
f 92/146/185 95/149/186 105/160/187 106/159/188
f 95/149/189 96/150/190 107/161/191 105/160/192
f 96/150/193 55/96/194 108/162/195 107/161/196
f 55/96/197 92/146/198 106/159/199 108/162/200
f 109/163/201 72/120/202 89/143/203 110/164/204
f 89/143/205 98/152/206 111/165/207 110/164/208
f 98/152/209 97/151/210 112/166/211 111/165/212
f 97/151/213 72/120/214 109/163/215 112/166/216
f 100/154/217 99/153/218 113/168/219 114/167/220
f 99/153/221 91/145/222 115/169/223 113/168/224
f 91/145/225 73/121/226 116/170/227 115/169/228
f 73/121/229 100/154/230 114/167/231 116/170/232
f 83/137/233 84/138/234 118/172/235 117/171/236
f 84/138/237 66/113/238 119/173/239 118/172/240
f 66/113/241 65/112/242 120/174/243 119/173/244
f 65/112/245 83/137/246 117/171/247 120/174/248
f 85/139/249 86/140/250 122/176/251 121/175/252
f 86/140/253 68/115/254 123/177/255 122/176/256
f 68/115/257 67/114/258 124/178/259 123/177/260
f 67/114/261 85/139/262 121/175/263 124/178/264
f 87/141/265 88/142/266 126/180/267 125/179/268
f 88/142/269 70/117/270 127/181/271 126/180/272
f 70/117/273 69/116/274 128/182/275 127/181/276
f 69/116/277 87/141/278 125/179/279 128/182/280
s 4
f 41/75/15 90/144/14 92/146/151 46/83/89
f 46/83/89 92/146/151 55/96/86
f 42/78/138 89/143/164 72/120/101
f 45/82/140 91/145/142 89/143/164 42/78/138
