# This file uses meters as units for non-parametric coordinates.

mtllib shelf Narrow.mtl
g default
v -339.722373 4.604002 685.008269
v -239.722373 4.604002 685.008269
v -339.722373 224.604018 685.008269
v -239.722373 224.604018 685.008269
v -339.722373 224.604018 645.008269
v -239.722373 224.604018 645.008269
v -339.722373 4.604002 645.008269
v -239.722373 4.604002 645.008269
v -239.746116 151.270659 685.008269
v -339.692405 151.270659 685.008269
v -339.722373 151.270659 645.008269
v -239.722373 151.270659 645.008269
v -239.743125 77.937331 685.008269
v -339.713096 77.937331 685.008269
v -339.722373 77.937331 645.008269
v -239.722373 77.937331 645.008269
v -333.722373 10.604002 685.008269
v -245.722373 10.604002 685.008269
v -245.722373 218.604018 685.008269
v -333.722373 218.604018 685.008269
v -333.722373 77.937331 645.008269
v -245.722373 77.937331 645.008269
v -245.722373 10.604002 645.008269
v -333.722373 10.604002 645.008269
v -333.722373 218.604018 645.008269
v -245.722373 218.604018 645.008269
v -245.722373 151.270659 645.008269
v -333.722373 151.270659 645.008269
v -245.722373 82.736853 685.008269
v -245.722373 73.137808 685.008269
v -333.722373 82.736853 685.008269
v -333.722373 73.137808 685.008269
v -245.722373 146.471144 685.008269
v -245.722373 156.070174 685.008269
v -333.722373 146.471144 685.008269
v -333.722373 156.070174 685.008269
v -339.722373 224.604018 682.535917
v -239.722373 224.604018 682.535917
v -239.722373 151.270659 682.535887
v -239.722373 77.937331 682.535887
v -239.722373 4.604002 682.535887
v -339.722373 4.604002 682.535887
v -339.722373 77.937331 682.535917
v -339.722373 151.270659 682.535917
v -339.722373 4.604002 647.437468
v -239.722373 4.604002 647.437468
v -239.722373 77.937331 647.437468
v -239.722373 151.270659 647.437468
v -239.722373 224.604018 647.437468
v -339.722373 224.604018 647.437468
v -339.722373 151.270659 647.437468
v -339.722373 77.937331 647.437468
v -242.664939 4.604002 685.008269
v -242.664939 4.604010 682.535887
v -242.664939 4.604002 647.437468
v -242.664939 4.604002 645.008269
v -248.262717 10.604002 645.008269
v -248.262717 77.937331 645.008269
v -248.262717 151.270659 645.008269
v -248.262717 218.604018 645.008269
v -242.664939 224.604018 645.008269
v -242.664939 224.603987 647.437468
v -242.664939 224.604018 682.535917
v -242.664939 224.604018 685.008269
v -248.262717 218.604018 685.008269
v -248.262717 156.070174 685.008269
v -248.262778 146.471144 685.008269
v -248.262717 82.736853 685.008269
v -248.262778 73.137808 685.008269
v -248.262717 10.604002 685.008269
v -337.024070 4.604002 685.008269
v -337.024070 4.604002 682.535887
v -337.024070 4.604002 647.437468
v -337.024070 4.604002 645.008269
v -331.444907 10.604002 645.008269
v -331.444907 77.937331 645.008269
v -331.444907 151.270659 645.008269
v -331.444907 218.604018 645.008269
v -337.024070 224.604018 645.008269
v -337.024070 224.604018 647.437468
v -337.024070 224.604018 682.535917
v -337.024070 224.604018 685.008269
v -331.444907 218.604018 685.008269
v -331.444907 156.070174 685.008269
v -331.444907 146.471144 685.008269
v -331.444907 82.736853 685.008269
v -331.444907 73.137808 685.008269
v -331.444907 10.604002 685.008269
v -337.024070 4.603995 676.272246
v -242.664939 4.604010 676.272307
v -337.024070 4.604002 653.880675
v -242.664939 4.604002 653.880766
v -248.882224 4.604002 682.535887
v -248.882285 4.604010 676.272307
v -248.882224 4.604002 653.880766
v -248.882224 4.604002 647.437468
v -330.350486 4.604002 682.535887
v -330.350486 4.603995 676.272246
v -330.350486 4.604010 653.880705
v -330.350486 4.604010 647.437468
v -250.682212 -1.323404 684.335905
v -250.682273 -1.323389 674.472319
v -240.864951 -1.323389 674.472319
v -240.864951 -1.323389 684.335905
v -250.682273 -1.323396 655.680754
v -240.864890 -1.323396 655.680784
v -250.682273 -1.323396 645.637449
v -240.864890 -1.323396 645.637449
v -338.824058 -1.323396 684.335905
v -338.824058 -1.323404 674.472258
v -328.550498 -1.323411 674.472258
v -328.550498 -1.323396 684.335905
v -328.550498 -1.323389 655.680693
v -328.550498 -1.323389 645.637449
v -338.824058 -1.323396 655.680693
v -338.824058 -1.323396 645.637449
v -331.444907 218.604018 654.734099
v -331.444907 156.070174 654.734099
v -248.262717 156.070174 654.734099
v -248.262717 218.604018 654.734099
v -331.444907 146.471144 654.734099
v -331.444907 82.736853 654.734099
v -248.262717 82.736853 654.734099
v -248.262778 146.471144 654.734099
v -331.444907 73.137808 654.734099
v -331.444907 10.604002 654.734099
v -248.262717 10.604002 654.734099
v -248.262778 73.137808 654.734099
vt 0.051093 0.513148
vt 0.372025 0.568492
vt 0.136589 0.486545
vt 0.118558 0.486647
vt 0.074060 0.500739
vt 0.063862 0.500856
vt 0.063837 0.500005
vt 0.074023 0.499889
vt 0.136765 0.502348
vt 0.117238 0.502427
vt 0.117228 0.501693
vt 0.136763 0.501607
vt 0.495437 0.662790
vt 0.147591 0.500823
vt 0.149374 0.499986
vt 0.117156 0.489103
vt 0.139245 0.499887
vt 0.117225 0.499258
vt 0.117212 0.529578
vt 0.139212 0.528935
vt 0.149334 0.528882
vt 0.117139 0.539728
vt 0.361754 0.589926
vt 0.372025 0.558167
vt 0.094621 0.486648
vt 0.076579 0.486553
vt 0.073997 0.528895
vt 0.095960 0.529540
vt 0.095969 0.539693
vt 0.074802 0.539739
vt 0.095990 0.502420
vt 0.076500 0.502370
vt 0.076492 0.501632
vt 0.095985 0.501686
vt 0.095981 0.489102
vt 0.095970 0.499251
vt 0.051093 0.513148
vt 0.372024 0.563124
vt 0.115784 0.486657
vt 0.097390 0.486656
vt 0.150064 0.500929
vt 0.138332 0.488271
vt 0.117175 0.488388
vt 0.117135 0.540444
vt 0.138294 0.540642
vt 0.136537 0.542362
vt 0.118499 0.542192
vt 0.096001 0.488386
vt 0.063122 0.500021
vt 0.063146 0.500866
vt 0.074807 0.540454
vt 0.095969 0.540409
vt 0.094572 0.542141
vt 0.076543 0.542183
vt 0.115734 0.542176
vt 0.097346 0.542140
vt 0.117238 0.499959
vt 0.138526 0.499852
vt 0.138502 0.500720
vt 0.138492 0.529006
vt 0.117241 0.528877
vt 0.117236 0.527143
vt 0.136730 0.527248
vt 0.074762 0.500751
vt 0.074722 0.499886
vt 0.095974 0.499953
vt 0.095980 0.528839
vt 0.074695 0.528897
vt 0.076469 0.527153
vt 0.095994 0.527107
vt 0.490806 0.645574
vt 0.150045 0.528015
vt 0.490258 0.645078
vt 0.495555 0.663079
vt 0.494004 0.651611
vt 0.501763 0.643852
vt 0.509484 0.651575
vt 0.501726 0.659333
vt 0.495553 0.662530
vt 0.138466 0.528213
vt 0.136733 0.526584
vt 0.117259 0.526485
vt 0.096013 0.526449
vt 0.076478 0.526491
vt 0.074735 0.528104
vt 0.074031 0.528115
vt 0.063913 0.527994
vt 0.074809 0.541231
vt 0.322934 0.579673
vt 0.333285 0.579647
vt 0.022686 0.526854
vt 0.361673 0.558193
vt 0.361728 0.579575
vt 0.022659 0.516502
vt 0.322934 0.585041
vt 0.333286 0.585015
vt 0.022686 0.526854
vt 0.361673 0.563150
vt 0.051067 0.502797
vt 0.022660 0.516502
vt 0.322934 0.589998
vt 0.333285 0.589972
vt 0.333231 0.568590
vt 0.361673 0.568518
vt 0.051067 0.502797
vt 0.333205 0.558239
vt 0.507815 0.640378
vt 0.141060 0.528139
vt 0.508051 0.640396
vt 0.512682 0.657611
vt 0.141107 0.500759
vt 0.501831 0.644010
vt 0.509326 0.651507
vt 0.501658 0.659175
vt 0.494162 0.651679
vt 0.513230 0.658107
vt 0.490547 0.645322
vt 0.495673 0.662807
vt 0.512959 0.657841
vt 0.493747 0.651428
vt 0.501583 0.643596
vt 0.509741 0.651757
vt 0.501905 0.659590
vt 0.147545 0.528109
vt 0.509572 0.651681
vt 0.501834 0.659420
vt 0.493916 0.651505
vt 0.501655 0.643765
vt 0.141029 0.526202
vt 0.139167 0.526231
vt 0.149332 0.526156
vt 0.147517 0.526180
vt 0.149364 0.528108
vt 0.141063 0.502551
vt 0.139201 0.502518
vt 0.149350 0.502660
vt 0.147540 0.502628
vt 0.139221 0.500726
vt 0.495726 0.640655
vt 0.512942 0.645286
vt 0.490531 0.657665
vt 0.139182 0.528173
vt 0.495234 0.640104
vt 0.149357 0.500898
vt 0.151784 0.526403
vt 0.136533 0.543021
vt 0.322880 0.568616
vt 0.061412 0.502487
vt 0.076570 0.485818
vt 0.372079 0.579548
vt 0.094606 0.485913
vt 0.051102 0.516430
vt 0.094559 0.542800
vt 0.322880 0.558291
vt 0.076529 0.542841
vt 0.061458 0.526370
vt 0.333312 0.589998
vt 0.118498 0.542851
vt 0.115724 0.542836
vt 0.097337 0.542799
vt 0.151798 0.502558
vt 0.115777 0.485921
vt 0.097384 0.485920
vt 0.118555 0.485912
vt 0.136591 0.485810
vt 0.372079 0.589874
vt 0.022651 0.513220
vt 0.372080 0.584916
vt 0.051102 0.516430
vt 0.322879 0.563249
vt 0.022651 0.513220
vt 0.361647 0.558167
vt 0.074702 0.529602
vt 0.074729 0.499181
vt 0.138513 0.499144
vt 0.138340 0.488986
vt 0.138477 0.529715
vt 0.138308 0.539926
vt 0.074818 0.488993
vt 0.063884 0.528773
vt 0.074838 0.487427
vt 0.074828 0.488277
vt 0.063169 0.528756
vt 0.063197 0.527986
vt 0.138325 0.487419
vt 0.150088 0.499951
vt 0.150044 0.528922
vt 0.138281 0.541428
vt 0.495494 0.640379
vt 0.490529 0.645345
vt 0.512958 0.645520
vt 0.507994 0.662806
vt 0.508255 0.663081
vt 0.513233 0.645408
vt 0.507933 0.640106
vt 0.490255 0.657778
vt 0.490806 0.657783
vt 0.507762 0.662531
vt 0.507935 0.640655
vt 0.512682 0.645402
vt 0.508014 0.662790
vt 0.512941 0.657864
vt 0.495474 0.640395
vt 0.490547 0.657899
vt 0.150083 0.528146
vt 0.149336 0.528038
vt 0.150121 0.500799
vt 0.149404 0.500828
vt 0.361727 0.589900
vt 0.022625 0.502869
vt 0.361728 0.584943
vt 0.022625 0.502869
vt 0.333231 0.563222
vt 0.051128 0.526782
vt 0.333231 0.558265
vt 0.051128 0.526782
vn 0.000000 0.000000 1.000000
vn 0.000000 0.000000 1.000000
vn 0.000000 0.000000 1.000000
vn 0.000000 0.000000 1.000000
vn -0.000000 1.000000 0.000000
vn -0.000000 1.000000 -0.000001
vn -0.000005 1.000000 -0.000000
vn -0.000005 1.000000 0.000000
vn 0.000000 0.000000 -1.000000
vn 0.000000 0.000000 -1.000000
vn 0.000000 0.000000 -1.000000
vn 0.000000 0.000000 -1.000000
vn -0.000001 -1.000000 0.000000
vn -0.000001 -1.000000 0.000000
vn -0.000002 -1.000000 0.000000
vn 1.000000 0.000005 0.000434
vn 1.000000 0.000009 0.000276
vn 1.000000 0.000000 0.000000
vn 1.000000 0.000000 0.000000
vn -1.000000 -0.000000 0.000000
vn -1.000000 -0.000000 0.000000
vn -1.000000 0.000004 0.000123
vn -1.000000 0.000007 0.000323
vn 0.000000 0.000000 1.000000
vn 0.000000 0.000000 1.000000
vn -0.000000 0.000000 1.000000
vn -0.000000 0.000000 1.000000
vn -1.000000 0.000000 0.000000
vn -1.000000 0.000000 0.000000
vn -1.000000 -0.000002 0.000461
vn -1.000000 -0.000013 0.000399
vn 0.000000 0.000000 -1.000000
vn 0.000000 0.000000 -1.000000
vn 0.000000 0.000000 -1.000000
vn 0.000000 0.000000 -1.000000
vn 1.000000 -0.000011 0.000316
vn 1.000000 -0.000005 0.000454
vn 1.000000 -0.000000 0.000000
vn 1.000000 -0.000000 0.000000
vn 0.000000 0.000000 1.000000
vn 0.000000 0.000000 1.000000
vn -0.000000 0.000000 1.000000
vn -0.000000 0.000000 1.000000
vn 0.000000 0.000000 1.000000
vn 0.000000 0.000000 1.000000
vn 0.000000 0.000000 1.000000
vn -0.000000 0.000000 1.000000
vn -0.000000 0.000000 1.000000
vn -0.000000 0.000000 1.000000
vn -0.000000 0.000000 1.000000
vn -0.000000 0.000000 1.000000
vn -0.000000 0.000000 1.000000
vn 0.000000 0.000000 1.000000
vn 0.000000 0.000000 1.000000
vn 0.000000 0.000000 1.000000
vn 0.000000 0.000000 1.000000
vn 0.000000 0.000000 1.000000
vn -0.000000 0.000000 1.000000
vn -0.000000 0.000000 1.000000
vn 0.000000 0.000000 -1.000000
vn 0.000000 0.000000 -1.000000
vn 0.000000 0.000000 -1.000000
vn 0.000000 0.000000 -1.000000
vn 0.000000 0.000000 -1.000000
vn 0.000000 0.000000 -1.000000
vn 0.000000 0.000000 -1.000000
vn 0.000000 0.000000 -1.000000
vn 0.000000 0.000000 -1.000000
vn 0.000000 0.000000 -1.000000
vn 0.000000 0.000000 -1.000000
vn 0.000000 0.000000 -1.000000
vn 0.000000 0.000000 -1.000000
vn 0.000000 0.000000 -1.000000
vn 0.000000 1.000000 0.000000
vn 0.000000 1.000000 0.000000
vn 0.999976 -0.000071 0.006900
vn 0.999988 -0.000162 0.004802
vn 0.999978 0.000081 0.006597
vn 0.999991 0.000141 0.004197
vn -0.000000 -1.000000 0.000004
vn -0.000001 -1.000000 0.000000
vn -0.999998 0.000063 0.001876
vn -0.999988 0.000102 0.004906
vn -0.999976 -0.000032 0.006999
vn -0.999982 -0.000204 0.006061
vn 0.000000 -1.000000 0.000000
vn -0.000000 -1.000000 0.000000
vn 0.000000 -1.000000 0.000000
vn -0.000001 -1.000000 0.000000
vn 1.000000 0.000000 0.000000
vn 1.000000 0.000000 0.000000
vn 1.000000 0.000000 0.000000
vn 1.000000 0.000000 0.000000
vn -0.000000 1.000000 0.000008
vn -0.000005 1.000000 0.000004
vn -1.000000 0.000000 0.000000
vn -1.000000 0.000000 0.000000
vn -1.000000 0.000000 0.000000
vn -1.000000 0.000000 0.000000
vn 0.000000 -1.000000 0.000004
vn 0.000000 -1.000000 0.000000
vn 0.000000 -1.000000 0.000002
vn 0.000001 -1.000000 0.000000
vn 0.000001 -1.000000 0.000000
vn 0.000001 -1.000000 0.000000
vn 0.000001 -1.000000 0.000000
vn -0.000000 -1.000000 0.000000
vn 0.000000 0.000000 -1.000000
vn 0.000000 0.000000 -1.000000
vn 0.000000 0.000000 -1.000000
vn 0.000000 0.000000 -1.000000
vn 0.000000 0.000000 -1.000000
vn 0.000000 0.000000 -1.000000
vn 0.000000 1.000000 0.000008
vn 0.000000 1.000000 0.000000
vn 0.000000 1.000000 -0.000001
vn 0.000000 1.000000 0.000000
vn 0.000000 0.000000 1.000000
vn 0.000000 0.000000 1.000000
vn 0.000000 0.000000 1.000000
vn 0.000000 0.000000 1.000000
vn 0.000000 0.000000 1.000000
vn 0.000000 0.000000 1.000000
vn 0.000000 0.000000 1.000000
vn 0.000000 0.000000 1.000000
vn 0.000000 0.000000 1.000000
vn 0.000000 0.000000 1.000000
vn 0.000000 0.000000 1.000000
vn 0.000000 0.000000 1.000000
vn 0.000000 0.000000 1.000000
vn 0.000000 0.000000 1.000000
vn 0.000000 0.000000 1.000000
vn 0.000000 0.000000 1.000000
vn 0.000000 0.000000 1.000000
vn 0.000000 0.000000 1.000000
vn 0.000000 0.000000 1.000000
vn 0.000000 0.000000 1.000000
vn -0.000001 -1.000000 0.000000
vn 0.000000 -1.000000 0.000000
vn -0.000001 -1.000000 0.000000
vn 0.000000 -1.000000 0.000000
vn -0.000000 -1.000000 -0.000000
vn 0.000000 -1.000000 0.000000
vn 0.000000 -1.000000 0.000000
vn 0.000000 1.000000 0.000000
vn 0.000000 1.000000 0.000000
vn 0.000000 1.000000 0.000000
vn 0.000000 1.000000 0.000000
vn 0.000000 -1.000000 0.000000
vn 0.000000 -1.000000 0.000000
vn -0.000001 -1.000000 0.000000
vn 0.000000 -1.000000 0.000000
vn 0.000000 -1.000000 0.000000
vn 0.000000 -1.000000 0.000000
vn 0.000000 -1.000000 0.000000
vn 0.000000 -1.000000 -0.000000
vn 0.000000 -1.000000 0.000002
vn 0.000000 -1.000000 -0.000000
vn -0.000000 -1.000000 0.000000
vn -0.000000 -1.000000 0.000001
vn -0.000000 -1.000000 0.000001
vn -0.000000 -1.000000 0.000001
vn -0.000000 -1.000000 0.000001
vn -0.000000 -1.000000 -0.000000
vn 0.000001 -1.000000 0.000000
vn 0.000001 -1.000000 0.000000
vn 0.000001 -1.000000 0.000000
vn 0.000001 -1.000000 0.000000
vn -0.956854 0.290569 0.000008
vn -0.956854 0.290569 0.000008
vn -0.956854 0.290569 0.000008
vn -0.956854 0.290569 0.000008
vn 0.000000 0.290570 -0.956854
vn 0.000000 0.290570 -0.956854
vn 0.000000 0.290570 -0.956854
vn 0.000000 0.290570 -0.956854
vn 0.956854 0.290570 0.000000
vn 0.956854 0.290570 0.000000
vn 0.956854 0.290570 0.000000
vn 0.956854 0.290570 0.000000
vn -0.000000 0.290575 0.956852
vn -0.000000 0.290575 0.956852
vn -0.000000 0.290575 0.956852
vn -0.000000 0.290574 0.956852
vn -0.000002 0.290573 0.956853
vn -0.000002 0.290573 0.956853
vn -0.000002 0.290573 0.956853
vn -0.000002 0.290573 0.956853
vn -0.956851 0.290579 0.000000
vn -0.956851 0.290579 0.000000
vn -0.956851 0.290579 0.000000
vn -0.956851 0.290579 0.000000
vn 0.000000 0.290575 -0.956852
vn 0.000000 0.290575 -0.956852
vn 0.000000 0.290575 -0.956852
vn 0.000000 0.290575 -0.956852
vn 0.956851 0.290579 0.000000
vn 0.956851 0.290579 0.000000
vn 0.956851 0.290579 0.000000
vn 0.956851 0.290579 0.000000
vn -0.956854 0.290571 -0.000000
vn -0.956854 0.290571 -0.000000
vn -0.956854 0.290571 -0.000000
vn -0.956854 0.290571 -0.000000
vn 0.000000 0.290570 -0.956854
vn 0.000000 0.290570 -0.956854
vn 0.000000 0.290570 -0.956854
vn 0.000000 0.290570 -0.956854
vn 0.956854 0.290570 -0.000001
vn 0.956854 0.290570 -0.000001
vn 0.956854 0.290570 -0.000001
vn 0.956854 0.290570 -0.000001
vn 0.000000 0.290574 0.956852
vn 0.000000 0.290574 0.956852
vn 0.000000 0.290574 0.956852
vn 0.000000 0.290574 0.956852
vn 0.956854 0.290571 0.000000
vn 0.956854 0.290571 0.000000
vn 0.956854 0.290571 0.000000
vn 0.956854 0.290571 0.000000
vn -0.000002 0.290572 0.956853
vn -0.000002 0.290572 0.956853
vn -0.000002 0.290572 0.956853
vn -0.000002 0.290572 0.956853
vn -0.956854 0.290570 0.000000
vn -0.956854 0.290570 0.000000
vn -0.956854 0.290570 0.000000
vn -0.956854 0.290570 0.000000
vn -0.000000 0.290574 -0.956852
vn -0.000000 0.290574 -0.956852
vn -0.000000 0.290574 -0.956853
vn -0.000000 0.290574 -0.956852
vn 1.000000 0.000000 0.000000
vn 1.000000 0.000000 0.000000
vn 1.000000 0.000000 0.000000
vn 1.000000 0.000000 0.000000
vn 0.000000 1.000000 0.000000
vn 0.000000 1.000000 0.000000
vn 0.000000 1.000000 0.000000
vn 0.000000 1.000000 0.000000
vn -1.000000 0.000000 0.000000
vn -1.000000 0.000000 0.000000
vn -1.000000 0.000000 0.000000
vn -1.000000 0.000000 0.000000
vn 0.000000 -1.000000 0.000000
vn 0.000000 -1.000000 0.000000
vn 0.000000 -1.000000 0.000000
vn 0.000000 -1.000000 0.000000
vn 1.000000 0.000000 0.000000
vn 1.000000 0.000000 0.000000
vn 1.000000 0.000000 0.000000
vn 1.000000 0.000000 0.000000
vn 0.000000 1.000000 0.000000
vn 0.000000 1.000000 0.000000
vn 0.000000 1.000000 0.000000
vn 0.000000 1.000000 0.000000
vn -1.000000 -0.000001 0.000000
vn -1.000000 -0.000001 0.000000
vn -1.000000 -0.000001 0.000000
vn -1.000000 -0.000001 0.000000
vn 0.000000 -1.000000 0.000000
vn 0.000000 -1.000000 0.000000
vn 0.000000 -1.000000 0.000000
vn 0.000000 -1.000000 0.000000
vn 1.000000 0.000000 0.000000
vn 1.000000 0.000000 0.000000
vn 1.000000 0.000000 0.000000
vn 1.000000 0.000000 0.000000
vn 0.000000 1.000000 0.000000
vn 0.000000 1.000000 0.000000
vn 0.000000 1.000000 0.000000
vn 0.000000 1.000000 0.000000
vn -1.000000 -0.000001 0.000000
vn -1.000000 -0.000001 0.000000
vn -1.000000 -0.000001 0.000000
vn -1.000000 -0.000001 0.000000
vn 0.000000 -1.000000 0.000000
vn 0.000000 -1.000000 0.000000
vn 0.000000 -1.000000 0.000000
vn 0.000000 -1.000000 0.000000
s 1
g shelfNarrow1
usemtl phong6SG
f 69/164/1 70/165/2 18/3/3 30/4/4
s 2
f 62/5/5 63/6/6 38/7/7 49/8/8
s 3
f 57/9/9 58/10/10 22/11/11 23/12/12
s 4
f 54/208/13 90/14/14 41/15/15
s 5
f 40/16/16 41/176/17 46/175/18 47/18/19
s 6
f 52/19/20 45/177/21 42/178/22 43/22/23
s 1
f 65/149/24 66/151/25 34/25/26 19/26/27
s 6
f 50/173/28 51/28/29 44/29/30 37/30/31
s 3
f 59/31/32 60/32/33 26/33/34 27/34/35
s 5
f 38/179/36 39/35/37 48/36/38 49/174/39
s 1
f 67/163/40 68/162/41 29/39/42 33/40/43
s 6
f 51/28/29 52/19/20 43/22/23 44/29/30
s 3
f 58/10/10 59/31/32 27/34/35 22/11/11
s 5
f 39/35/37 40/16/16 47/18/19 48/36/38
s 1
f 70/165/2 53/185/44 2/42/45 18/3/3
f 2/42/45 13/43/46 30/4/4 18/3/3
f 14/44/47 1/45/48 17/46/49 32/47/50
f 9/48/51 4/182/52 19/26/27 34/25/26
f 4/182/52 64/181/53 65/149/24 19/26/27
f 3/51/54 10/52/55 36/53/56 20/54/57
f 13/43/46 9/48/51 33/40/43 29/39/42
f 10/52/55 14/44/47 31/55/58 35/56/59
s 3
f 16/57/60 8/58/61 23/12/12 22/11/11
f 8/58/61 56/59/62 57/9/9 23/12/12
f 7/60/63 15/61/64 21/62/65 24/63/66
f 60/32/33 61/64/67 6/65/68 26/33/34
f 6/65/68 12/66/69 27/34/35 26/33/34
f 11/67/70 5/68/71 25/69/72 28/70/73
f 12/66/69 16/57/60 22/11/11 27/34/35
f 15/61/64 11/67/70 28/70/73 21/62/65
s 1
f 30/4/4 29/39/42 68/162/41 69/164/1
f 33/40/43 34/25/26 66/151/25 67/163/40
f 29/39/42 30/4/4 13/43/46
f 31/55/58 14/44/47 32/47/50
f 33/40/43 9/48/51 34/25/26
f 35/56/59 36/53/56 10/52/55
s 2
f 63/6/6 64/50/74 4/49/75 38/7/7
s 5
f 9/48/76 39/35/37 38/179/36 4/182/77
f 13/43/78 40/16/16 39/35/37 9/48/76
f 2/42/79 41/176/17 40/16/16 13/43/78
s 4
f 53/207/80 54/208/13 41/15/15 2/186/81
s 6
f 43/22/23 42/178/22 1/45/82 14/44/83
f 44/29/30 43/22/23 14/44/83 10/52/84
f 37/30/31 44/29/30 10/52/84 3/51/85
s 4
f 55/138/86 56/59/87 8/58/88 46/17/89
s 5
f 47/18/19 46/175/18 8/58/90 16/57/91
f 48/36/38 47/18/19 16/57/91 12/66/92
f 49/174/39 48/36/38 12/66/92 6/65/93
s 2
f 61/64/94 62/5/5 49/8/8 6/65/95
s 6
f 11/67/96 51/28/29 50/173/28 5/68/97
f 15/61/98 52/19/20 51/28/29 11/67/96
f 7/60/99 45/177/21 52/19/20 15/61/98
s 4
f 71/72/100 72/206/101 97/131/102
s off
f 101/75/103 102/76/104 103/77/105 104/78/106
s 4
f 96/135/107 56/59/87 55/138/86
s 3
f 57/9/9 56/59/62 74/80/108 75/81/109
f 75/81/109 76/82/110 58/10/10 57/9/9
f 76/82/110 77/83/111 59/31/32 58/10/10
f 77/83/111 78/84/112 60/32/33 59/31/32
f 78/84/112 79/85/113 61/64/67 60/32/33
s 2
f 79/85/114 80/86/115 62/5/5 61/64/94
f 80/86/115 81/87/116 63/6/6 62/5/5
f 81/87/116 82/184/117 64/50/74 63/6/6
s 1
f 65/148/24 64/50/53 82/184/118 83/156/119
s off
f 117/90/120 118/215/121 119/92/122 120/93/123
s 1
f 67/37/40 66/152/25 84/94/124 85/171/125
s off
f 121/96/126 122/213/127 123/98/128 124/211/129
s 1
f 69/1/1 68/169/41 86/100/130 87/167/131
s off
f 125/102/132 126/103/133 127/104/134 128/209/135
s 1
f 88/145/136 71/72/137 53/41/44 70/161/2
s 4
f 42/21/138 72/133/101 71/205/100 1/187/139
f 45/20/140 73/142/141 91/108/142
f 7/60/143 74/80/144 73/142/141 45/20/140
s 3
f 75/81/109 74/80/108 7/60/63 24/63/66
f 21/62/65 76/82/110 75/81/109 24/63/66
f 28/70/73 77/83/111 76/82/110 21/62/65
f 25/69/72 78/84/112 77/83/111 28/70/73
f 5/68/71 79/85/113 78/84/112 25/69/72
s 2
f 50/27/145 80/86/115 79/85/114 5/68/146
f 37/180/147 81/87/116 80/86/115 50/27/145
f 3/183/148 82/184/117 81/87/116 37/180/147
s 1
f 83/155/119 82/88/118 3/51/54 20/54/57
f 36/53/56 84/153/124 83/155/119 20/54/57
f 85/160/125 84/153/124 36/53/56 35/56/59
f 31/55/58 86/159/130 85/160/125 35/56/59
f 87/158/131 86/159/130 31/55/58 32/47/50
f 17/46/49 88/146/136 87/158/131 32/47/50
f 1/45/48 71/188/137 88/146/136 17/46/49
s 4
f 90/14/14 94/137/149 95/134/150 92/111/151
s off
f 106/112/152 105/113/153 107/114/154 108/115/155
s 4
f 97/131/102 98/132/156 94/137/149 93/136/157
f 95/134/150 94/137/149 98/132/156 99/129/158
f 96/135/107 95/134/150 99/129/158 100/130/159
s off
f 109/120/160 110/121/161 111/122/162 112/123/163
s 4
f 99/129/158 98/132/156 89/124/164 91/108/142
s off
f 114/125/165 113/126/166 115/127/167 116/128/168
s 4
f 53/41/80 93/136/157 54/144/13
f 71/72/100 97/131/102 93/136/157 53/41/80
f 73/142/141 74/80/144 100/130/159
f 100/130/159 74/80/144 56/59/87 96/135/107
s off
f 93/117/169 94/203/170 102/76/171 101/75/172
f 94/109/173 90/140/174 103/77/175 102/76/176
f 90/202/177 54/201/178 104/78/179 103/77/180
f 54/13/181 93/204/182 101/75/183 104/78/184
f 92/199/185 95/200/186 105/113/187 106/112/188
f 95/110/189 96/198/190 107/114/191 105/113/192
f 96/79/193 55/197/194 108/115/195 107/114/196
f 55/71/197 92/139/198 106/112/199 108/115/200
f 109/120/201 72/73/202 89/143/203 110/121/204
f 89/195/205 98/194/206 111/122/207 110/121/208
f 98/116/209 97/193/210 112/123/211 111/122/212
f 97/74/213 72/196/214 109/120/215 112/123/216
f 100/119/217 99/192/218 113/126/219 114/125/220
f 99/118/221 91/141/222 115/127/223 113/126/224
f 91/190/225 73/189/226 116/128/227 115/127/228
f 73/107/229 100/191/230 114/125/231 116/128/232
f 83/89/233 84/154/234 118/215/235 117/90/236
f 84/94/237 66/152/238 119/216/239 118/91/240
f 66/24/241 65/150/242 120/93/243 119/92/244
f 65/23/245 83/157/246 117/90/247 120/93/248
f 85/95/249 86/170/250 122/213/251 121/96/252
f 86/100/253 68/169/254 123/214/255 122/97/256
f 68/38/257 67/168/258 124/211/259 123/98/260
f 67/37/261 85/171/262 121/212/263 124/99/264
f 87/101/265 88/147/266 126/103/267 125/102/268
f 88/106/269 70/172/270 127/104/271 126/103/272
f 70/2/273 69/166/274 128/209/275 127/104/276
f 69/1/277 87/167/278 125/210/279 128/105/280
s 4
f 41/15/15 90/14/14 92/111/151 46/17/89
f 46/17/89 92/111/151 55/138/86
f 42/21/138 89/124/164 72/133/101
f 45/20/140 91/108/142 89/124/164 42/21/138
