# This file uses meters as units for non-parametric coordinates.

mtllib chair Vet.mtl
g default
v -733.241328 50.304410 804.679584
v -668.595103 50.304410 804.679584
v -668.595103 50.304410 794.965503
v -733.241328 50.304410 794.965503
v -733.241328 41.290563 804.679584
v -668.595103 41.290563 804.679584
v -668.595103 41.290563 794.965503
v -733.241328 41.290563 794.965503
v -733.241328 41.290563 865.040363
v -668.595103 41.290563 865.040363
v -668.595103 50.304410 865.040363
v -733.241328 50.304410 865.040363
v -675.059093 103.412701 795.455890
v -668.595103 96.948750 796.578541
v -675.059093 103.412701 785.741810
v -668.595103 96.948750 786.864460
v -733.241328 96.948750 796.578541
v -726.777339 103.412701 795.455890
v -726.777339 103.412701 785.741810
v -733.241328 96.948750 786.864460
v -730.241328 50.304410 807.679584
v -671.595103 50.304410 807.679584
v -730.241328 50.304410 862.040363
v -671.595103 50.304410 862.040363
v -728.730708 53.325959 809.190204
v -730.241328 51.815341 807.679584
v -671.595103 51.815341 807.679584
v -673.105724 53.325959 809.190204
v -728.730708 53.325959 860.529743
v -730.241328 51.815341 862.040363
v -673.105724 53.325959 860.529743
v -671.595103 51.815341 862.040363
v -693.595103 41.290563 829.679584
v -693.595103 41.290563 840.040363
v -708.241328 41.290563 840.040363
v -708.241328 41.290563 829.679584
v -693.595103 3.513467 829.679584
v -693.595103 3.513467 840.040363
v -708.241328 3.513467 840.040363
v -708.241328 3.513467 829.679584
v -693.595103 -0.940537 829.679584
v -693.595103 -0.940537 840.040363
v -708.241328 -0.940537 840.040363
v -708.241328 -0.940537 829.679584
v -679.143443 3.513467 815.227924
v -679.143443 3.513467 854.492023
v -679.143443 -0.940537 854.492023
v -679.143443 -0.940537 815.227924
v -722.692989 3.513467 854.492023
v -722.692989 -0.940537 854.492023
v -722.692989 3.513467 815.227924
v -722.692989 -0.940537 815.227924
vt 0.497400 0.660713
vt 0.495280 0.660713
vt 0.495280 0.660713
vt 0.497400 0.660713
vt 0.480096 0.645433
vt 0.480096 0.645433
vt 0.480096 0.647650
vt 0.480096 0.647650
vt 0.493268 0.645433
vt 0.495387 0.645433
vt 0.495387 0.647650
vt 0.493268 0.647650
vt 0.495387 0.645433
vt 0.495387 0.647650
vt 0.493268 0.645433
vt 0.493268 0.647650
vt 0.495035 0.659123
vt 0.495035 0.659123
vt 0.497155 0.659123
vt 0.497155 0.659123
vt 0.492613 0.647650
vt 0.115750 0.564683
vt 0.065249 0.564683
vt 0.480751 0.647650
vt 0.115750 0.566265
vt 0.065249 0.566265
vt 0.066652 0.567847
vt 0.114347 0.567847
vt 0.114347 0.567847
vt 0.115750 0.566265
vt 0.066652 0.567847
vt 0.065249 0.566265
vt 0.487813 0.635046
vt 0.485552 0.635046
vt 0.485552 0.635046
vt 0.487813 0.635046
vt 0.485552 0.645433
vt 0.487813 0.645433
vt 0.485552 0.645433
vt 0.487813 0.645433
vt 0.485552 0.636142
vt 0.487813 0.636142
vt 0.485552 0.636142
vt 0.487813 0.636142
vt 0.490966 0.636142
vt 0.482398 0.636142
vt 0.482398 0.635046
vt 0.490966 0.635046
vt 0.482398 0.636142
vt 0.482398 0.635046
vt 0.490966 0.636142
vt 0.490966 0.635046
vt 0.115750 0.564683
vt 0.480751 0.647650
vt 0.492613 0.647650
vt 0.065249 0.564683
vn 0.000000 1.000000 0.000000
vn 0.000000 1.000000 0.000000
vn 0.000000 1.000000 0.000000
vn 0.000000 1.000000 0.000000
vn 0.000000 0.000000 1.000000
vn 0.000000 0.000000 1.000000
vn 0.000000 0.000000 1.000000
vn 0.000000 0.000000 1.000000
vn 1.000000 0.000000 0.000000
vn 1.000000 0.000000 0.000000
vn 1.000000 0.000000 0.000000
vn 1.000000 0.000000 0.000000
vn 0.000000 0.000000 -1.000000
vn 0.000000 0.000000 -1.000000
vn 0.000000 -0.144032 -0.989573
vn 0.000000 -0.144032 -0.989573
vn -1.000000 0.000000 0.000000
vn -1.000000 0.000000 0.000000
vn -1.000000 0.000000 0.000000
vn -1.000000 0.000000 0.000000
vn 1.000000 0.000000 0.000000
vn 1.000000 0.000000 0.000000
vn -1.000000 0.000000 0.000000
vn -1.000000 0.000000 0.000000
vn 0.000000 0.171115 0.985251
vn 0.000000 0.171115 0.985251
vn 0.000000 0.171115 0.985251
vn 0.000000 0.171115 0.985251
vn 1.000000 0.000000 0.000000
vn 1.000000 0.000000 0.000000
vn 0.000000 -0.171115 -0.985251
vn 0.000000 -0.171115 -0.985251
vn -1.000000 0.000000 0.000000
vn -1.000000 0.000000 0.000000
vn 0.707105 0.707109 0.000000
vn 0.707105 0.707109 0.000000
vn 0.707105 0.707109 0.000000
vn 0.707105 0.707109 0.000000
vn -0.707105 0.707109 0.000000
vn -0.707105 0.707109 0.000000
vn -0.707105 0.707109 0.000000
vn -0.707105 0.707109 0.000000
vn 0.000000 1.000000 -0.000000
vn 0.000000 1.000000 -0.000000
vn 0.000000 1.000000 -0.000000
vn 0.000000 1.000000 -0.000000
vn 0.000000 1.000000 0.000000
vn 0.000000 1.000000 0.000000
vn 0.000000 1.000000 0.000000
vn 0.000000 1.000000 0.000000
vn -0.707106 0.707108 0.000000
vn -0.707106 0.707108 0.000000
vn -0.707106 0.707108 0.000000
vn -0.707106 0.707108 0.000000
vn 0.000000 0.707107 -0.707107
vn 0.000000 0.707107 -0.707107
vn 0.000000 0.707107 -0.707107
vn 0.000000 0.707107 -0.707107
vn 0.707106 0.707107 0.000000
vn 0.707106 0.707107 0.000000
vn 0.707106 0.707107 0.000000
vn 0.707106 0.707107 0.000000
vn 0.000000 0.707107 0.707107
vn 0.000000 0.707107 0.707107
vn 0.000000 0.707107 0.707107
vn 0.000000 0.707107 0.707107
vn 0.000000 1.000000 0.000000
vn 0.000000 1.000000 0.000000
vn 0.000000 1.000000 0.000000
vn 0.000000 1.000000 0.000000
vn 0.000000 0.000000 -1.000000
vn 0.000000 0.000000 -1.000000
vn 0.000000 0.000000 -1.000000
vn 0.000000 0.000000 -1.000000
vn -1.000000 0.000000 0.000000
vn -1.000000 0.000000 0.000000
vn -1.000000 0.000000 0.000000
vn -1.000000 0.000000 0.000000
vn 0.000000 0.000000 1.000000
vn 0.000000 0.000000 1.000000
vn 0.000000 0.000000 1.000000
vn 0.000000 0.000000 1.000000
vn 1.000000 0.000000 0.000000
vn 1.000000 0.000000 0.000000
vn 1.000000 0.000000 0.000000
vn 1.000000 0.000000 0.000000
vn 0.000000 -1.000000 0.000000
vn 0.000000 -1.000000 0.000000
vn 0.000000 -1.000000 0.000000
vn 0.000000 -1.000000 0.000000
vn 0.000000 -1.000000 -0.000000
vn 0.000000 -1.000000 0.000000
vn 0.000000 -1.000000 0.000000
vn 0.000000 -1.000000 -0.000000
vn 0.000000 -0.171117 -0.985251
vn 0.000000 -0.171117 -0.985251
vn 0.000000 0.171117 0.985251
vn 0.000000 0.171117 0.985251
vn 0.000000 -1.000000 0.000000
vn 0.000000 -1.000000 0.000000
vn 0.000000 -1.000000 0.000000
vn 0.000000 -1.000000 0.000000
vn 0.000000 -1.000000 0.000000
vn 0.000000 -1.000000 0.000000
vn 1.000000 0.000000 0.000000
vn 1.000000 0.000000 0.000000
vn 1.000000 0.000000 0.000000
vn 1.000000 0.000000 0.000000
vn 0.000000 0.000000 1.000000
vn 0.000000 0.000000 1.000000
vn 0.000000 0.000000 1.000000
vn 0.000000 0.000000 1.000000
vn -1.000000 0.000000 0.000000
vn -1.000000 0.000000 0.000000
vn -1.000000 0.000000 0.000000
vn -1.000000 0.000000 0.000000
vn 0.000000 0.000000 -1.000000
vn 0.000000 0.000000 -1.000000
vn 0.000000 0.000000 -1.000000
vn 0.000000 0.000000 -1.000000
vn 1.000000 0.000000 0.000000
vn 1.000000 0.000000 0.000000
vn 1.000000 0.000000 0.000000
vn 1.000000 0.000000 0.000000
vn 0.000000 0.000000 1.000000
vn 0.000000 0.000000 1.000000
vn 0.000000 0.000000 1.000000
vn 0.000000 0.000000 1.000000
vn -1.000000 0.000000 0.000000
vn -1.000000 0.000000 0.000000
vn -1.000000 0.000000 0.000000
vn -1.000000 0.000000 0.000000
vn 0.000000 0.000000 -1.000000
vn 0.000000 0.000000 -1.000000
vn 0.000000 0.000000 -1.000000
vn 0.000000 0.000000 -1.000000
vn 0.000000 1.000000 0.000000
vn 0.000000 1.000000 -0.000000
vn 0.000000 1.000000 -0.000000
vn 0.000000 1.000000 0.000000
vn 0.000000 -1.000000 -0.000000
vn 0.000000 -1.000000 0.000000
vn 0.000000 1.000000 -0.000000
vn 0.000000 1.000000 -0.000000
vn 0.000000 -1.000000 0.000000
vn 0.000000 1.000000 0.000000
vn 0.000000 1.000000 0.000000
vn 0.000000 -1.000000 -0.000000
s off
g chair1
usemtl phong4SG
f 19/1/1 18/2/2 13/3/3 15/4/4
f 9/5/5 10/6/6 11/7/7 12/8/8
s 1
f 6/9/9 7/10/10 3/11/11 2/12/12
s 2
f 7/10/13 8/13/14 4/14/15 3/11/16
s 3
f 8/13/17 5/15/18 1/16/19 4/14/20
s 1
f 2/12/12 11/7/21 10/6/22 6/9/9
s 3
f 5/15/18 9/5/23 12/8/24 1/16/19
s 4
f 1/16/25 2/12/26 14/17/27 17/18/28
s 1
f 2/12/12 3/11/11 16/19/29 14/17/30
s 2
f 3/11/16 4/14/15 20/20/31 16/19/32
s 3
f 4/14/20 1/16/19 17/18/33 20/20/34
s off
f 13/3/35 14/17/36 16/19/37 15/4/38
f 17/18/39 18/2/40 19/1/41 20/20/42
s 5
f 2/12/43 1/16/44 21/21/45 22/55/46
f 1/16/44 12/8/47 23/54/48 21/21/45
f 12/8/47 11/7/49 24/24/50 23/54/48
f 22/55/46 24/24/50 11/7/49 2/12/43
s off
f 26/25/51 30/26/52 29/27/53 25/28/54
f 26/25/55 25/28/56 28/29/57 27/30/58
f 28/29/59 31/31/60 32/32/61 27/30/62
f 29/27/63 30/26/64 32/32/65 31/31/66
f 29/27/67 31/31/68 28/29/69 25/28/70
f 22/22/71 21/53/72 26/25/73 27/30/74
f 21/53/75 23/23/76 30/26/77 26/25/78
f 23/23/79 24/56/80 32/32/81 30/26/82
f 32/32/83 24/56/84 22/22/85 27/30/86
s 6
f 7/10/87 6/9/88 5/15/89 8/13/90
s 7
f 41/33/91 42/34/92 43/35/93 44/36/94
s 2
f 16/19/32 20/20/31 19/1/95 15/4/96
s 4
f 17/18/28 14/17/27 13/3/97 18/2/98
s 6
f 6/9/88 10/6/99 34/37/100 33/38/101
f 10/6/99 9/5/102 35/39/103 34/37/100
f 9/5/102 5/15/89 36/40/104 35/39/103
f 5/15/89 6/9/88 33/38/101 36/40/104
s off
f 33/38/105 34/37/106 38/41/107 37/42/108
f 34/37/109 35/39/110 39/43/111 38/41/112
f 35/39/113 36/40/114 40/44/115 39/43/116
f 36/40/117 33/38/118 37/42/119 40/44/120
f 45/45/121 46/46/122 47/47/123 48/48/124
f 46/46/125 49/49/126 50/50/127 47/47/128
f 49/49/129 51/51/130 52/52/131 50/50/132
f 51/51/133 45/45/134 48/48/135 52/52/136
s 9
f 37/42/137 38/41/138 46/46/139 45/45/140
s 7
f 42/34/92 41/33/91 48/48/141 47/47/142
s 9
f 38/41/138 39/43/143 49/49/144 46/46/139
s 7
f 43/35/93 42/34/92 47/47/142 50/50/145
s 9
f 39/43/143 40/44/146 51/51/147 49/49/144
s 7
f 44/36/94 43/35/93 50/50/145 52/52/148
s 9
f 40/44/146 37/42/137 45/45/140 51/51/147
s 7
f 41/33/91 44/36/94 52/52/148 48/48/141
