# This file uses centimeters as units for non-parametric coordinates.

g default
v -0.009832 0.875699 0.510791
v 0.009832 0.875699 0.510791
v -0.009832 1.609368 0.510791
v 0.009832 1.609368 0.510791
v -0.009832 1.609368 -0.510791
v 0.009832 1.609368 -0.510791
v -0.009832 0.875699 -0.510791
v 0.009832 0.875699 -0.510791
vt 0.224214 0.471207
vt 0.220803 0.510348
vt 0.220803 0.931145
vt 0.224214 0.970286
vt 0.790664 0.931145
vt 0.775786 0.970286
vt 0.790664 0.510348
vt 0.775786 0.471207
vt 0.775786 0.471207
vt 0.224214 0.471207
vt 0.790664 0.931145
vt 0.790664 0.510348
vt 0.224214 0.970286
vt 0.775786 0.970286
vt 0.220803 0.510348
vt 0.220803 0.931145
vn 0.000000 0.000000 1.000000
vn 0.000000 0.000000 1.000000
vn 0.000000 0.000000 1.000000
vn 0.000000 0.000000 1.000000
vn 0.000000 1.000000 0.000000
vn 0.000000 1.000000 0.000000
vn 0.000000 1.000000 0.000000
vn 0.000000 1.000000 0.000000
vn 0.000000 0.000000 -1.000000
vn 0.000000 0.000000 -1.000000
vn 0.000000 0.000000 -1.000000
vn 0.000000 0.000000 -1.000000
vn 0.000000 -1.000000 0.000000
vn 0.000000 -1.000000 0.000000
vn 0.000000 -1.000000 0.000000
vn 0.000000 -1.000000 0.000000
vn 1.000000 0.000000 0.000000
vn 1.000000 0.000000 0.000000
vn 1.000000 0.000000 0.000000
vn 1.000000 0.000000 0.000000
s off
g pCube1
f 1/1/1 2/15/2 4/16/3 3/13/4
f 3/4/5 4/3/6 6/5/7 5/14/8
f 5/6/9 6/11/10 8/12/11 7/9/12
f 7/8/13 8/7/14 2/2/15 1/10/16
f 2/2/17 8/7/18 6/5/19 4/3/20
