# This file uses meters as units for non-parametric coordinates.

mtllib Sofa.mtl
g default
v 817.960815 -1.018785 286.085754
v 1051.625610 -1.018785 286.085754
v 817.960815 54.955826 286.085754
v 1051.625610 54.955826 286.085754
v 817.960815 54.955826 168.478195
v 1051.625610 54.955826 168.478195
v 817.960815 -1.018785 168.478195
v 1051.625610 -1.018785 168.478195
v 817.960815 54.955830 259.987823
v 1051.625610 54.955830 259.987823
v 1051.625610 -1.018785 259.987823
v 817.960815 -1.018785 259.987823
v 845.546814 -1.018785 286.085754
v 1024.039551 -1.018785 286.085754
v 1024.039551 -1.018785 259.987823
v 845.546814 -1.018785 259.987823
v 845.546814 -1.018785 168.478195
v 1024.039551 -1.018785 168.478195
v 845.546814 54.955826 168.478195
v 1024.039551 54.955826 168.478195
v 845.546814 54.955830 259.987823
v 1024.039551 54.955830 259.987823
v 845.546814 54.955826 286.085754
v 1024.039551 54.955826 286.085754
v 845.546814 78.394257 259.987823
v 845.546814 78.394249 286.085754
v 1024.039551 78.394249 286.085754
v 1024.039551 78.394257 259.987823
v 817.960815 78.394257 259.987823
v 845.546814 78.394249 168.478195
v 817.960815 78.394249 168.478195
v 817.960815 78.394249 286.085754
v 1051.625610 78.394249 286.085754
v 1051.625610 78.394257 259.987823
v 1024.039551 78.394249 168.478195
v 1051.625610 78.394249 168.478195
v 845.546814 105.036835 267.379730
v 845.546814 105.036819 293.477661
v 1024.039551 105.036819 293.477661
v 1024.039551 105.036835 267.379730
v 817.960815 105.036819 293.477661
v 817.960815 105.036835 267.379730
v 1051.625610 105.036819 293.477661
v 1051.625610 105.036835 267.379730
vt 0.743482 0.316030
vt 0.743701 0.308082
vt 0.751431 0.316249
vt 0.751650 0.308300
vt 0.759380 0.316467
vt 0.759598 0.308518
vt 0.767329 0.316685
vt 0.767547 0.308736
vt 0.775278 0.316903
vt 0.775496 0.308954
vt 0.743919 0.300133
vt 0.751868 0.300351
vt 0.743264 0.323979
vt 0.751213 0.324198
vt 0.751383 0.318013
vt 0.753195 0.316297
vt 0.753413 0.308348
vt 0.751698 0.306536
vt 0.773732 0.308906
vt 0.743749 0.306318
vt 0.743434 0.317794
vt 0.773514 0.316855
vt 0.743508 0.315092
vt 0.775304 0.315965
vt 0.743675 0.309020
vt 0.775471 0.309893
vt 0.725935 0.308533
vt 0.725768 0.314605
vt 0.719583 0.314435
vt 0.719750 0.308363
vt 0.711634 0.314217
vt 0.711801 0.308145
vt 0.705449 0.314048
vt 0.705616 0.307976
vt 0.751457 0.315310
vt 0.751624 0.309238
vt 0.751457 0.315310
vt 0.751624 0.309238
vt 0.753388 0.309287
vt 0.753221 0.315359
vt 0.759406 0.315528
vt 0.759380 0.316467
vt 0.753195 0.316297
vt 0.751431 0.316249
vt 0.751650 0.308300
vt 0.753413 0.308348
vt 0.759573 0.309456
vt 0.759598 0.308518
vt 0.751457 0.315310
vt 0.751624 0.309238
vt 0.753388 0.309287
vt 0.753221 0.315359
vt 0.751431 0.316249
vt 0.753195 0.316297
vt 0.751650 0.308300
vt 0.753413 0.308348
vt 0.789329 0.282079
vt 0.789329 0.291175
vt 0.789329 0.270389
vt 0.789329 0.261293
vt 0.780399 0.270389
vt 0.780399 0.261293
vt 0.780399 0.282079
vt 0.780399 0.291175
vn 0.000000 0.000000 1.000000
vn 0.000000 0.000000 1.000000
vn 0.000000 0.000000 1.000000
vn 0.000000 0.000000 1.000000
vn 0.000000 1.000000 -0.000000
vn 0.000000 1.000000 -0.000000
vn 0.000000 1.000000 -0.000000
vn 0.000000 1.000000 -0.000000
vn 0.000000 0.000000 -1.000000
vn 0.000000 0.000000 -1.000000
vn 0.000000 0.000000 -1.000000
vn 0.000000 0.000000 -1.000000
vn 0.000000 -1.000000 0.000000
vn 0.000000 -1.000000 0.000000
vn 0.000000 -1.000000 0.000000
vn 0.000000 -1.000000 0.000000
vn 1.000000 0.000000 0.000000
vn 1.000000 0.000000 0.000000
vn 1.000000 0.000000 0.000000
vn 1.000000 0.000000 0.000000
vn -1.000000 0.000000 0.000000
vn -1.000000 0.000000 0.000000
vn -1.000000 0.000000 0.000000
vn -1.000000 0.000000 0.000000
vn 0.000000 1.000000 0.000001
vn 0.000000 1.000000 0.000001
vn 0.000000 1.000000 0.000001
vn 0.000000 1.000000 0.000001
vn 1.000000 0.000000 0.000000
vn 1.000000 0.000000 0.000000
vn 0.000000 -1.000000 0.000000
vn 0.000000 -1.000000 0.000000
vn -1.000000 0.000000 0.000000
vn -1.000000 0.000000 0.000000
vn 0.000000 -1.000000 0.000000
vn 0.000000 -1.000000 0.000000
vn 0.000000 0.000000 -1.000000
vn 0.000000 0.000000 -1.000000
vn 0.000000 1.000000 0.000000
vn 0.000000 1.000000 0.000000
vn 0.000000 1.000000 0.000000
vn 0.000000 1.000000 0.000000
vn 0.000000 1.000000 0.000000
vn 0.000000 1.000000 0.000000
vn 0.000000 1.000000 0.000001
vn 0.000000 1.000000 0.000001
vn 0.000000 1.000000 -0.000000
vn 0.000000 1.000000 -0.000000
vn 0.000000 1.000000 -0.000000
vn 0.000000 1.000000 -0.000000
vn 0.000000 0.000000 -1.000000
vn 0.000000 0.000000 -1.000000
vn 0.000000 -1.000000 0.000000
vn 0.000000 -1.000000 0.000000
vn 0.000000 -1.000000 0.000000
vn 0.000000 0.000000 1.000000
vn 0.000000 -0.146017 0.989282
vn 0.000000 -0.146017 0.989282
vn 0.000000 0.000000 -1.000000
vn 0.000000 0.000000 -1.000000
vn 0.000000 0.155547 -0.987828
vn 0.000000 0.155547 -0.987828
vn 1.000000 0.000000 0.000000
vn 1.000000 0.000000 0.000000
vn 1.000000 0.000000 0.000000
vn 1.000000 0.000000 0.000000
vn 0.000000 0.000000 -1.000000
vn 0.000000 0.000000 -1.000000
vn -1.000000 -0.000000 0.000000
vn -1.000000 0.000000 0.000000
vn 0.000000 -0.146017 0.989282
vn -1.000000 -0.000001 0.000000
vn 0.000000 0.000000 1.000000
vn 0.000000 -0.146017 0.989282
vn 1.000000 0.000000 0.000000
vn 1.000000 0.000001 0.000000
vn -1.000000 0.000000 0.000000
vn -1.000000 0.000000 0.000000
vn -1.000000 0.000000 0.000000
vn -1.000000 0.000000 0.000000
vn 1.000000 0.000000 0.000000
vn 0.000000 0.000000 -1.000000
vn 0.000000 0.000000 -1.000000
vn 0.000000 -0.267348 0.963600
vn 0.000000 -0.267348 0.963600
vn 0.000000 0.267348 -0.963600
vn 0.000000 0.267348 -0.963600
vn 0.000000 -0.267348 0.963600
vn 0.000000 0.267348 -0.963600
vn 0.000000 0.267348 -0.963600
vn -1.000000 -0.000001 0.000000
vn -1.000000 -0.000001 0.000000
vn 0.000000 -0.267348 0.963600
vn 1.000000 0.000001 0.000000
vn 1.000000 0.000001 0.000000
vn 0.000000 0.267348 -0.963600
vn 0.000000 0.267348 -0.963600
vn 0.000000 0.000000 1.000000
vn 0.000000 0.000000 1.000000
vn 0.000000 -1.000000 0.000000
s 1
g pCube21
usemtl phong10SG
f 1/1/1 13/23/2 23/35/3 3/3/4
s off
f 19/61/5 21/62/6 22/60/7 20/59/8
s 2
f 17/63/9 19/61/10 20/59/11 18/57/12
s 3
f 16/64/13 17/63/14 18/57/15 15/58/16
s 4
f 10/18/17 11/20/18 8/11/19 6/12/20
s 5
f 7/13/21 12/21/22 9/15/23 5/14/24
s 6
f 37/52/25 38/49/26 39/50/27 40/51/28
s 4
f 2/2/29 11/20/18 10/18/17 4/4/30
s 3
f 16/28/13 15/27/16 14/26/31 13/24/32
s 5
f 9/15/23 12/21/22 1/1/33 3/3/34
s 3
f 7/7/35 17/29/14 16/28/13 12/22/36
s 2
f 5/5/37 19/31/10 17/29/9 7/7/38
s off
f 29/43/39 25/40/40 30/41/41 31/42/42
s 6
f 41/53/43 38/49/26 37/52/25 42/54/44
f 40/51/28 39/50/27 43/55/45 44/56/46
s off
f 35/47/47 28/39/48 34/46/49 36/48/50
s 2
f 18/30/12 20/32/11 6/6/51 8/8/52
s 3
f 15/27/16 18/30/15 8/8/53 11/19/54
f 14/26/31 15/27/16 11/19/54 2/10/55
s 1
f 23/35/3 24/36/56 27/38/57 26/37/58
s 7
f 22/34/59 21/33/60 25/40/61 28/39/62
s off
f 21/33/63 19/31/64 30/41/65 25/40/66
s 2
f 19/31/10 5/5/37 31/42/67 30/41/68
s 5
f 5/5/24 9/16/23 29/43/69 31/42/70
s 1
f 3/3/4 23/35/3 26/37/58 32/44/71
s 5
f 9/16/23 3/3/34 32/44/72 29/43/69
s 1
f 24/36/56 4/4/73 33/45/74 27/38/57
s 4
f 4/4/30 10/17/17 34/46/75 33/45/76
s off
f 20/32/77 22/34/78 28/39/79 35/47/80
s 4
f 10/17/17 6/6/20 36/48/81 34/46/75
s 2
f 6/6/51 20/32/11 35/47/82 36/48/83
s 1
f 26/37/58 27/38/57 39/50/84 38/49/85
s 7
f 28/39/62 25/40/61 37/52/86 40/51/87
s 1
f 32/44/71 26/37/58 38/49/85 41/53/88
s 7
f 25/40/61 29/43/89 42/54/90 37/52/86
s 5
f 29/43/69 32/44/72 41/53/91 42/54/92
s 1
f 27/38/57 33/45/74 43/55/93 39/50/84
s 4
f 33/45/76 34/46/75 44/56/94 43/55/95
s 7
f 34/46/96 28/39/62 40/51/87 44/56/97
s 1
f 24/36/56 14/25/98 2/2/99 4/4/73
f 23/35/3 13/23/2 14/25/98 24/36/56
s 3
f 16/28/13 13/24/32 1/9/100 12/22/36
