# This file uses meters as units for non-parametric coordinates.

mtllib Table.mtl
g default
v -771.219139 70.490736 256.129626
v -552.573693 70.490736 256.129626
v -771.219139 77.867552 256.129626
v -552.573693 77.867552 256.129626
v -771.219139 77.867552 138.121863
v -552.573693 77.867552 138.121863
v -771.219139 70.490736 138.121863
v -552.573693 70.490736 138.121863
v -761.219139 70.490736 256.129626
v -562.573693 70.490736 256.129626
v -562.573693 77.867552 256.129626
v -761.219139 77.867552 256.129626
v -562.573693 77.867552 138.121863
v -761.219139 77.867552 138.121863
v -562.573693 70.490736 138.121863
v -761.219139 70.490736 138.121863
v -761.219139 77.867552 246.129630
v -562.573693 77.867552 246.129630
v -562.573693 77.867552 148.121863
v -761.219139 77.867552 148.121863
v -562.573693 77.867552 246.129630
v -562.573693 77.867552 148.121863
v -761.219139 77.867552 246.129630
v -761.219139 77.867552 148.121863
v -761.219139 70.490736 148.121863
v -562.573693 70.490736 148.121863
v -562.573693 70.490736 246.129630
v -761.219139 70.490736 246.129630
v -562.573693 70.490736 148.121863
v -562.573693 70.490736 246.129630
v -761.219139 70.490736 148.121863
v -761.219139 70.490736 246.129630
v -752.140648 70.490736 256.129626
v -752.140648 70.490736 246.129630
v -752.140648 70.490736 148.121863
v -752.140648 70.490736 138.121863
v -752.140648 77.867552 138.121863
v -752.140648 77.867552 148.121863
v -752.140648 77.867552 246.129630
v -752.140648 77.867552 256.129626
v -571.835625 70.490736 256.129626
v -571.835625 77.867552 256.129626
v -571.835625 77.867552 246.129630
v -571.835625 77.867552 148.121863
v -571.835625 77.867552 138.121863
v -571.835625 70.490736 138.121863
v -571.835625 70.490736 148.121863
v -571.835625 70.490736 246.129630
v -761.219139 30.205244 148.121863
v -752.140648 30.205244 148.121863
v -752.140648 30.205244 246.129630
v -761.219139 30.205244 246.129630
v -571.835625 64.448377 148.121863
v -571.835625 64.448377 246.129630
v -562.573693 64.448377 148.121863
v -562.573693 64.448377 246.129630
v -761.219139 -0.003153 148.121863
v -752.140648 -0.003153 148.121863
v -752.140648 -0.003153 246.129630
v -761.219139 -0.003153 246.129630
v -571.835625 2.073911 148.121863
v -571.835625 2.073911 246.129630
v -562.573693 2.073911 148.121863
v -562.573693 2.073911 246.129630
v -571.835625 2.073911 151.121863
v -571.835625 2.073911 243.129630
v -562.573693 2.073911 151.121863
v -562.573693 2.073911 243.129630
v -571.835625 61.448377 151.121863
v -571.835625 61.448377 243.129630
v -562.573693 61.448377 151.121863
v -562.573693 61.448377 243.129630
v -571.836342 61.448377 151.121863
v -571.836342 61.448377 243.129630
v -571.836342 2.073911 151.121863
v -571.836342 2.073911 243.129630
vt 0.375000 0.000000
vt 0.625000 0.000000
vt 0.375000 0.250000
vt 0.625000 0.250000
vt 0.375000 0.500000
vt 0.625000 0.500000
vt 0.375000 0.750000
vt 0.625000 0.750000
vt 0.375000 1.000000
vt 0.625000 1.000000
vt 0.875000 0.000000
vt 0.875000 0.250000
vt 0.125000 0.000000
vt 0.125000 0.250000
vt 0.625000 0.000000
vt 0.625000 0.250000
vt 0.375000 0.250000
vt 0.375000 0.000000
vt 0.625000 0.500000
vt 0.375000 0.500000
vt 0.625000 0.750000
vt 0.375000 0.750000
vt 0.625000 1.000000
vt 0.375000 1.000000
vt 0.375000 0.250000
vt 0.625000 0.250000
vt 0.625000 0.500000
vt 0.375000 0.500000
vt 0.625000 0.250000
vt 0.625000 0.500000
vt 0.375000 0.500000
vt 0.375000 0.250000
vt 0.375000 0.750000
vt 0.625000 0.750000
vt 0.625000 1.000000
vt 0.375000 1.000000
vt 0.625000 0.750000
vt 0.625000 1.000000
vt 0.375000 1.000000
vt 0.375000 0.750000
vt 0.386062 0.000000
vt 0.386062 1.000000
vt 0.386062 1.000000
vt 0.386062 0.750000
vt 0.386062 0.750000
vt 0.386062 0.500000
vt 0.386062 0.500000
vt 0.386062 0.250000
vt 0.386062 0.250000
vt 0.613344 0.000000
vt 0.613344 1.000000
vt 0.613344 0.250000
vt 0.613344 0.250000
vt 0.613344 0.500000
vt 0.613344 0.500000
vt 0.613344 0.750000
vt 0.613344 0.750000
vt 0.613344 1.000000
vt 0.375000 0.750000
vt 0.386062 0.750000
vt 0.386062 1.000000
vt 0.375000 1.000000
vt 0.613344 1.000000
vt 0.613344 0.750000
vt 0.625000 0.750000
vt 0.625000 1.000000
vt 0.375000 0.750000
vt 0.386062 0.750000
vt 0.386062 1.000000
vt 0.375000 1.000000
vt 0.613344 1.000000
vt 0.613344 0.750000
vt 0.625000 0.750000
vt 0.625000 1.000000
vt 0.613344 0.750000
vt 0.625000 0.750000
vt 0.625000 1.000000
vt 0.613344 1.000000
vt 0.613344 1.000000
vt 0.613344 0.750000
vt 0.625000 0.750000
vt 0.625000 1.000000
vt 0.613344 1.000000
vt 0.613344 0.750000
vt 0.613344 0.750000
vt 0.613344 1.000000
vn 0.000000 0.000000 1.000000
vn 0.000000 0.000000 1.000000
vn 0.000000 0.000000 1.000000
vn 0.000000 0.000000 1.000000
vn 0.000000 1.000000 0.000000
vn 0.000000 1.000000 0.000000
vn 0.000000 1.000000 0.000000
vn 0.000000 1.000000 0.000000
vn 0.000000 0.000000 -1.000000
vn 0.000000 0.000000 -1.000000
vn 0.000000 0.000000 -1.000000
vn 0.000000 0.000000 -1.000000
vn 0.000000 -1.000000 0.000000
vn 0.000000 -1.000000 0.000000
vn 0.000000 -1.000000 0.000000
vn 0.000000 -1.000000 0.000000
vn 1.000000 0.000000 0.000000
vn 1.000000 0.000000 0.000000
vn 1.000000 0.000000 0.000000
vn 1.000000 0.000000 0.000000
vn -1.000000 0.000000 0.000000
vn -1.000000 0.000000 0.000000
vn -1.000000 0.000000 0.000000
vn -1.000000 0.000000 0.000000
vn 0.000000 0.000000 1.000000
vn 0.000000 0.000000 1.000000
vn 0.000000 0.000000 1.000000
vn 0.000000 0.000000 1.000000
vn 0.000000 0.000000 1.000000
vn 0.000000 0.000000 1.000000
vn 0.000000 0.000000 1.000000
vn 0.000000 0.000000 1.000000
vn 0.000000 0.000000 0.000000
vn 0.000000 0.000000 0.000000
vn 0.000000 1.000000 0.000000
vn 0.000000 1.000000 0.000000
vn 0.000000 0.000000 0.000000
vn 0.000000 0.000000 0.000000
vn 0.000000 1.000000 0.000000
vn 0.000000 1.000000 0.000000
vn 0.000000 0.000000 -1.000000
vn 0.000000 0.000000 -1.000000
vn 0.000000 0.000000 -1.000000
vn 0.000000 0.000000 -1.000000
vn 0.000000 0.000000 -1.000000
vn 0.000000 0.000000 -1.000000
vn 0.000000 0.000000 -1.000000
vn 0.000000 0.000000 -1.000000
vn 0.000000 0.000000 0.000000
vn 0.000000 0.000000 0.000000
vn 0.000000 0.000000 0.000000
vn 0.000000 0.000000 0.000000
vn 0.000000 0.000000 0.000000
vn 0.000000 0.000000 0.000000
vn 0.000000 0.000000 0.000000
vn 0.000000 0.000000 0.000000
vn 0.000000 1.000000 0.000000
vn 0.000000 1.000000 0.000000
vn 0.000000 1.000000 0.000000
vn 0.000000 1.000000 0.000000
vn 0.000000 1.000000 0.000000
vn 0.000000 1.000000 0.000000
vn 0.000000 1.000000 0.000000
vn 0.000000 1.000000 0.000000
vn 0.000000 1.000000 0.000000
vn 0.000000 1.000000 0.000000
vn 0.000000 1.000000 0.000000
vn 0.000000 1.000000 0.000000
vn 0.000000 1.000000 0.000000
vn 0.000000 1.000000 0.000000
vn 0.000000 1.000000 0.000000
vn 0.000000 1.000000 0.000000
vn 0.000000 -1.000000 0.000000
vn 0.000000 -1.000000 0.000000
vn 0.000000 -1.000000 0.000000
vn 0.000000 -1.000000 0.000000
vn 0.000000 -1.000000 0.000000
vn 0.000000 -1.000000 0.000000
vn 0.000000 -1.000000 0.000000
vn 0.000000 -1.000000 0.000000
vn 0.000000 -1.000000 0.000000
vn 0.000000 -1.000000 0.000000
vn 0.000000 -1.000000 0.000000
vn 0.000000 -1.000000 0.000000
vn 0.000000 -1.000000 0.000000
vn 0.000000 -1.000000 0.000000
vn 0.000000 -1.000000 0.000000
vn 0.000000 -1.000000 0.000000
vn 0.000000 -1.000000 0.000000
vn 0.000000 -1.000000 0.000000
vn 0.000000 -1.000000 0.000000
vn 0.000000 -1.000000 0.000000
vn 0.000000 -1.000000 0.000000
vn 0.000000 -1.000000 0.000000
vn 0.000000 -1.000000 0.000000
vn 0.000000 -1.000000 0.000000
vn 0.000000 0.000000 -1.000000
vn 0.000000 0.000000 -1.000000
vn 0.000000 0.000000 -1.000000
vn 0.000000 0.000000 -1.000000
vn 1.000000 0.000000 0.000000
vn 1.000000 0.000000 0.000000
vn 1.000000 0.000000 0.000000
vn 1.000000 0.000000 0.000000
vn 0.000000 0.000000 1.000000
vn 0.000000 0.000000 1.000000
vn 0.000000 0.000000 1.000000
vn 0.000000 0.000000 1.000000
vn -1.000000 0.000000 0.000000
vn -1.000000 0.000000 0.000000
vn -1.000000 0.000000 0.000000
vn -1.000000 0.000000 0.000000
vn -1.000000 0.000000 0.000000
vn -1.000000 0.000000 0.000000
vn -1.000000 0.000000 0.000000
vn -1.000000 0.000000 0.000000
vn 0.000000 0.000000 -1.000000
vn 0.000000 0.000000 -1.000000
vn 0.000000 0.000000 -1.000000
vn 0.000000 0.000000 -1.000000
vn 1.000000 0.000000 0.000000
vn 1.000000 0.000000 0.000000
vn 1.000000 -0.000000 0.000000
vn 1.000000 -0.000000 0.000000
vn 0.000000 0.000000 1.000000
vn 0.000000 0.000000 1.000000
vn 0.000000 0.000000 1.000000
vn 0.000000 0.000000 1.000000
vn 0.000000 0.000000 -1.000000
vn 0.000000 0.000000 -1.000000
vn 1.000000 0.000000 0.000000
vn 1.000000 0.000000 0.000000
vn 0.000000 0.000000 1.000000
vn 0.000000 0.000000 1.000000
vn -1.000000 0.000000 0.000000
vn -1.000000 0.000000 0.000000
vn 0.000000 -1.000000 0.000000
vn 0.000000 -1.000000 0.000000
vn 0.000000 -1.000000 0.000000
vn 0.000000 -1.000000 0.000000
vn -1.000000 0.000000 0.000000
vn -1.000000 0.000000 0.000000
vn -1.000000 0.000000 0.000000
vn -1.000000 0.000000 0.000000
vn 0.000000 0.000000 -1.000000
vn 0.000000 0.000000 -1.000000
vn 1.000000 -0.000000 0.000000
vn 1.000000 -0.000000 0.000000
vn 1.000000 0.000000 0.000000
vn 1.000000 0.000000 0.000000
vn 0.000000 0.000000 1.000000
vn 0.000000 0.000000 1.000000
vn 0.000000 -1.000000 0.000000
vn 0.000000 -1.000000 0.000000
vn 0.000000 -1.000000 0.000000
vn 0.000000 -1.000000 0.000000
vn -1.000000 0.000001 0.000000
vn -1.000000 0.000001 0.000000
vn -1.000000 0.000000 0.000000
vn -1.000000 0.000000 0.000000
vn -1.000000 0.000000 0.000000
vn -1.000000 0.000000 0.000000
vn 1.000000 0.000000 0.000000
vn 1.000000 0.000000 0.000000
vn 0.000000 1.000000 0.000000
vn 0.000000 1.000000 0.000000
vn 0.000000 1.000000 0.000000
vn 0.000000 1.000000 0.000000
vn 0.000000 0.000000 -1.000000
vn 0.000000 0.000000 -1.000000
vn 0.000000 0.000000 -1.000000
vn 0.000000 0.000000 -1.000000
vn 0.000000 -1.000000 0.000000
vn 0.000000 -1.000000 0.000000
vn 0.000000 0.000000 1.000000
vn 0.000000 0.000000 1.000000
vn 0.000000 0.000000 1.000000
vn 0.000000 0.000000 1.000000
s 1
g tablePlain
usemtl initialShadingGroup
f 40/49/1 33/41/2 41/50/3 42/52/4
s 2
f 38/47/5 39/48/6 43/53/7 44/54/8
s 3
f 36/45/9 37/46/10 45/55/11 46/56/12
s 4
f 34/43/13 35/44/14 47/57/15 48/58/16
s off
f 2/2/17 8/11/18 6/12/19 4/4/20
f 7/13/21 1/1/22 3/3/23 5/14/24
s 1
f 2/2/25 4/4/26 11/16/27 10/15/28
f 3/3/29 1/1/30 9/18/31 12/17/32
s 2
f 21/29/33 22/30/34 19/27/35 18/26/36
f 24/31/37 23/32/38 17/25/39 20/28/40
s 3
f 6/6/41 8/8/42 15/21/43 13/19/44
f 7/7/45 5/5/46 14/20/47 16/22/48
s off
f 29/37/49 30/38/50 27/35/51 26/34/52
f 32/39/53 31/40/54 25/33/55 28/36/56
s 2
f 39/48/6 40/49/57 42/52/58 43/53/7
f 44/54/8 45/55/59 37/46/60 38/47/5
f 4/4/61 6/6/62 22/30/63 21/29/64
f 6/6/62 13/19/65 19/27/35 22/30/63
f 11/16/66 4/4/61 21/29/64 18/26/36
f 5/5/67 3/3/68 23/32/69 24/31/70
f 3/3/68 12/17/71 17/25/39 23/32/69
f 14/20/72 5/5/67 24/31/70 20/28/40
s 4
f 35/44/14 36/45/73 46/56/74 47/57/15
f 48/58/16 41/51/75 33/42/76 34/43/13
f 8/8/77 2/10/78 30/38/79 29/37/80
f 2/10/78 10/23/81 27/35/82 30/38/79
f 15/21/83 8/8/77 29/37/80 26/34/84
f 1/9/85 7/7/86 31/40/87 32/39/88
f 7/7/86 16/22/89 25/33/90 31/40/87
f 9/24/91 1/9/85 32/39/88 28/36/92
f 34/43/13 33/42/76 9/24/91 28/36/92
s off
f 57/67/93 58/68/94 59/69/95 60/70/96
s 4
f 16/22/89 36/45/73 35/44/14 25/33/90
s 3
f 14/20/47 37/46/10 36/45/9 16/22/48
s 2
f 38/47/5 37/46/60 14/20/72 20/28/40
f 17/25/39 39/48/6 38/47/5 20/28/40
f 12/17/71 40/49/57 39/48/6 17/25/39
s 1
f 9/18/31 33/41/2 40/49/1 12/17/32
f 42/52/4 41/50/3 10/15/28 11/16/27
s 2
f 43/53/7 42/52/58 11/16/66 18/26/36
f 44/54/8 43/53/7 18/26/36 19/27/35
f 13/19/65 45/55/59 44/54/8 19/27/35
s 3
f 46/56/12 45/55/11 13/19/44 15/21/43
s 4
f 47/57/15 46/56/74 15/21/83 26/34/84
f 10/23/81 41/51/75 48/58/16 27/35/82
s 9
f 25/33/97 35/44/98 50/60/99 49/59/100
s 10
f 35/44/101 34/43/102 51/61/103 50/60/104
s 11
f 34/43/105 28/36/106 52/62/107 51/61/108
s 12
f 28/36/109 25/33/110 49/59/111 52/62/112
s 13
f 48/58/113 47/57/114 53/64/115 54/63/116
s 14
f 47/57/117 26/34/118 55/65/119 53/64/120
s 15
f 26/34/121 27/35/122 56/66/123 55/65/124
s 16
f 27/35/125 48/58/126 54/63/127 56/66/128
s 9
f 49/59/100 50/60/99 58/68/129 57/67/130
s 10
f 50/60/104 51/61/103 59/69/131 58/68/132
s 11
f 51/61/108 52/62/107 60/70/133 59/69/134
s 12
f 52/62/112 49/59/111 57/67/135 60/70/136
s 17
f 66/78/137 65/75/138 67/76/139 68/77/140
s off
f 74/83/141 73/84/142 75/85/143 76/86/144
s 14
f 53/64/120 55/65/119 63/73/145 61/72/146
s 15
f 71/81/147 72/82/148 68/77/149 67/76/150
s 16
f 56/66/128 54/63/127 62/71/151 64/74/152
s 17
f 61/72/153 63/73/154 67/76/139 65/75/138
f 64/74/155 62/71/156 66/78/137 68/77/140
s 13
f 54/63/116 53/64/115 69/80/157 70/79/158
f 53/64/115 61/72/159 65/75/160 69/80/157
f 62/71/161 54/63/116 70/79/158 66/78/162
s 15
f 55/65/124 56/66/123 72/82/148 71/81/147
f 56/66/123 64/74/163 68/77/149 72/82/148
f 63/73/164 55/65/124 71/81/147 67/76/150
s off
f 70/79/165 69/80/166 73/84/167 74/83/168
f 69/80/169 65/75/170 75/85/171 73/84/172
s 17
f 65/75/138 66/78/137 76/86/173 75/85/174
s off
f 66/78/175 70/79/176 74/83/177 76/86/178
