# This file uses centimeters as units for non-parametric coordinates.

mtllib carpet.mtl
g default
v 3.955397 0.404680 8.172581
v 5.512108 0.404680 8.172581
v 3.955397 0.450080 8.172581
v 5.512108 0.450080 8.172581
v 3.955397 0.450080 5.743666
v 5.512108 0.450080 5.743666
v 3.955397 0.404680 5.743666
v 5.512108 0.404680 5.743666
vt 0.645177 0.030531
vt 0.761033 0.030531
vt 0.761033 0.030531
vt 0.645177 0.030531
vt 0.761033 0.160205
vt 0.645177 0.160205
vt 0.761033 0.160205
vt 0.645177 0.160205
vn 0.000000 0.000000 1.000000
vn 0.000000 0.000000 1.000000
vn 0.000000 0.000000 1.000000
vn 0.000000 0.000000 1.000000
vn 0.000000 1.000000 0.000000
vn 0.000000 1.000000 0.000000
vn 0.000000 1.000000 0.000000
vn 0.000000 1.000000 0.000000
vn 0.000000 0.000000 -1.000000
vn 0.000000 0.000000 -1.000000
vn 0.000000 0.000000 -1.000000
vn 0.000000 0.000000 -1.000000
vn 1.000000 0.000000 0.000000
vn 1.000000 0.000000 0.000000
vn 1.000000 0.000000 0.000000
vn 1.000000 0.000000 0.000000
vn -1.000000 0.000000 0.000000
vn -1.000000 0.000000 0.000000
vn -1.000000 0.000000 0.000000
vn -1.000000 0.000000 0.000000
s off
g pCube25
usemtl phong1SG
f 1/1/1 2/2/2 4/3/3 3/4/4
f 3/4/5 4/3/6 6/5/7 5/6/8
f 5/6/9 6/5/10 8/7/11 7/8/12
f 2/2/13 8/7/14 6/5/15 4/3/16
f 7/8/17 1/1/18 3/4/19 5/6/20
