# Blender v3.2.2 OBJ File: ''
# www.blender.org
mtllib lobby.mtl
o Cube
v -1.204923 0.900000 -4.882349
v -1.204923 -0.900000 -4.882349
v -1.204923 0.900000 4.917651
v -1.204923 -0.900000 4.917651
v 3.990156 -0.902207 4.914966
v 3.990156 0.897793 4.914966
v 0.790156 -0.902207 4.914966
v 0.790156 0.897793 4.914966
v 3.990156 -0.902207 3.314966
v 3.990156 0.897793 3.314966
v 0.790156 -0.902207 3.314966
v 0.790156 0.897793 3.314966
v 3.990202 -0.900000 -3.282349
v 3.990202 0.900000 -3.282349
v 0.790201 -0.900000 -3.282349
v 0.790201 0.900000 -3.282349
v 3.990202 -0.900000 -4.882349
v 3.990202 0.900000 -4.882349
v 0.790201 -0.900000 -4.882349
v 0.790201 0.900000 -4.882349
vt 0.625000 0.500000
vt 0.875000 0.500000
vt 0.875000 0.750000
vt 0.625000 0.750000
vt 0.375000 0.750000
vt 0.625000 1.000000
vt 0.375000 1.000000
vt 0.375000 0.000000
vt 0.625000 0.000000
vt 0.625000 0.250000
vt 0.375000 0.250000
vt 0.125000 0.500000
vt 0.375000 0.500000
vt 0.125000 0.750000
vt 0.375000 0.000000
vt 0.625000 0.000000
vt 0.625000 0.250000
vt 0.375000 0.250000
vt 0.625000 0.500000
vt 0.375000 0.500000
vt 0.625000 0.750000
vt 0.375000 0.750000
vt 0.625000 1.000000
vt 0.375000 1.000000
vt 0.125000 0.500000
vt 0.125000 0.750000
vt 0.875000 0.500000
vt 0.875000 0.750000
vt 0.375000 0.000000
vt 0.625000 0.000000
vt 0.625000 0.250000
vt 0.375000 0.250000
vt 0.625000 0.750000
vt 0.375000 0.750000
vt 0.625000 1.000000
vt 0.375000 1.000000
vt 0.125000 0.500000
vt 0.125000 0.750000
vt 0.875000 0.500000
vt 0.875000 0.750000
vn 0.0006 1.0000 0.0001
vn 0.0013 0.0000 1.0000
vn -1.0000 0.0000 0.0000
vn -0.0006 -1.0000 -0.0001
vn 1.0000 0.0000 0.0000
vn 0.0000 0.0000 -1.0000
vn 0.0000 0.0000 1.0000
vn 0.0000 -1.0000 0.0000
vn 0.0000 1.0000 0.0000
usemtl Material
s off
f 20/1/1 1/2/1 3/3/1 8/4/1
f 7/5/2 8/4/2 3/6/2 4/7/2
f 4/8/3 3/9/3 1/10/3 2/11/3
f 2/12/4 19/13/4 7/5/4 4/14/4
f 19/13/5 20/1/5 8/4/5 7/5/5
f 2/11/6 1/10/6 20/1/6 19/13/6
f 5/15/7 6/16/7 8/17/7 7/18/7
f 7/18/3 8/17/3 12/19/3 11/20/3
f 11/20/6 12/19/6 10/21/6 9/22/6
f 9/22/5 10/21/5 6/23/5 5/24/5
f 7/25/8 11/20/8 9/22/8 5/26/8
f 12/19/9 8/27/9 6/28/9 10/21/9
f 13/29/7 14/30/7 16/31/7 15/32/7
f 15/32/3 16/31/3 20/1/3 19/13/3
f 19/13/6 20/1/6 18/33/6 17/34/6
f 17/34/5 18/33/5 14/35/5 13/36/5
f 15/37/8 19/13/8 17/34/8 13/38/8
f 20/1/9 16/39/9 14/40/9 18/33/9
