# This file uses centimeters as units for non-parametric coordinates.

g default
v -1.351341 1.799595 3.293746
v -1.351335 1.799922 -3.311619
v -1.351022 2.365431 -2.565883
v -1.351029 2.365107 2.674709
v -1.351343 -0.000483 4.899408
v -1.351343 1.799517 4.899408
v -1.786286 1.799998 4.899994
v -1.786286 -0.000002 4.899994
v -1.786286 -0.000002 4.096748
v -1.786286 1.799998 4.096794
v -1.786286 1.799998 3.293595
v -1.786286 1.414627 3.293576
v -1.351333 0.000000 -4.900006
v -1.351333 1.800000 -4.900006
v 0.208838 1.800000 -4.900006
v 0.208838 0.000000 -4.900006
v 3.408793 -0.002209 4.897308
v 3.408793 1.797791 4.897308
v 0.208793 1.797791 4.897308
v 0.208793 -0.002209 4.897308
v 0.208793 -0.002209 3.297308
v 0.208793 1.797791 3.297309
v 3.408793 1.797791 3.297309
v 3.408793 -0.002209 3.297308
v 3.408839 0.000000 -3.300006
v 3.408839 1.800000 -3.300006
v 0.208838 1.800000 -3.300006
v 0.208838 0.000000 -3.300006
v 3.408839 1.800000 -4.900006
v 3.408839 0.000000 -4.900006
v -1.351030 2.038715 4.899423
v -1.785973 2.039197 4.900006
v -1.786286 0.000000 -4.105839
v -1.786286 1.800000 -4.105808
v -1.786286 1.800000 -4.900006
v -1.786286 0.000000 -4.900006
v -1.785973 2.039199 -4.899992
v -1.351020 2.039199 -4.899992
v -1.786286 1.414777 -3.311622
v -1.786286 0.000000 -3.311673
v -1.338489 0.000000 -3.311673
v -1.338489 1.414777 -3.311622
v 0.208797 1.797971 4.095798
v -1.351342 1.799556 4.096577
v 0.208831 1.799642 -3.311655
v 0.208801 1.798152 3.294287
v 0.208835 1.799821 -4.105830
v -1.351334 1.799961 -4.105812
v -1.351021 2.039159 -4.105798
v -1.785973 2.039199 -4.105793
v -1.785973 2.365509 -2.565873
v -1.785973 2.365509 2.674558
v -1.351029 2.038755 4.096590
v -1.785973 2.039197 4.096809
v -1.786286 1.800000 -3.311609
v -1.786286 1.796866 -1.825618
v -1.786286 1.796803 1.554749
v -1.338489 -0.000002 3.293501
v -1.338489 1.414627 3.293576
v -1.786286 -0.000002 3.293501
v -1.338489 1.793606 1.554827
v -1.338489 1.793733 -1.825427
vt 0.674612 0.360156
vt 0.625411 0.360167
vt 0.630966 0.379692
vt 0.670001 0.379680
vt 0.686572 0.298007
vt 0.686572 0.360153
vt 0.686576 0.360170
vt 0.686576 0.298023
vt 0.680593 0.298023
vt 0.680593 0.360170
vt 0.674611 0.360170
vt 0.674611 0.346864
vt 0.613580 0.298023
vt 0.613580 0.360170
vt 0.613580 0.360170
vt 0.613580 0.298023
vt 0.686556 0.297947
vt 0.686556 0.360093
vt 0.686556 0.360093
vt 0.686556 0.297947
vt 0.674638 0.297947
vt 0.674638 0.360093
vt 0.674638 0.360093
vt 0.674638 0.297947
vt 0.448014 0.139681
vt 0.422367 0.139619
vt 0.422491 0.088324
vt 0.448139 0.088386
vt 0.625498 0.298023
vt 0.625498 0.360170
vt 0.625498 0.360170
vt 0.625498 0.298023
vt 0.613580 0.360170
vt 0.613580 0.298023
vt 0.579414 0.139999
vt 0.553767 0.139937
vt 0.553891 0.088642
vt 0.579539 0.088704
vt 0.686572 0.368412
vt 0.686576 0.368428
vt 0.619495 0.298023
vt 0.619496 0.360170
vt 0.613580 0.360170
vt 0.613580 0.298023
vt 0.613580 0.368428
vt 0.613580 0.368428
vt 0.625411 0.346869
vt 0.625411 0.298023
vt 0.625411 0.298023
vt 0.625411 0.346869
vt 0.435214 0.139650
vt 0.435141 0.164658
vt 0.422272 0.164627
vt 0.553953 0.139938
vt 0.553892 0.164946
vt 0.448010 0.164690
vt 0.448062 0.139681
vt 0.566684 0.139968
vt 0.566623 0.164977
vt 0.539156 0.040045
vt 0.539156 0.044508
vt 0.523355 0.044508
vt 0.523356 0.040045
vt 0.469586 0.044508
vt 0.469585 0.040045
vt 0.454996 0.040045
vt 0.454994 0.044508
vt 0.446752 0.044508
vt 0.446758 0.040045
vt 0.625411 0.360170
vt 0.630966 0.379694
vt 0.619496 0.368428
vt 0.619496 0.360168
vt 0.619496 0.368427
vt 0.680594 0.368428
vt 0.680592 0.360154
vt 0.680592 0.368413
vt 0.636480 0.360061
vt 0.661659 0.360059
vt 0.670000 0.379694
vt 0.547305 0.040045
vt 0.547305 0.044508
vt 0.579354 0.165008
vt 0.626543 0.383719
vt 0.626802 0.364758
vt 0.676000 0.364897
vt 0.675741 0.383861
vt 0.674610 0.298023
vt 0.674611 0.346864
vt 0.674610 0.298023
vt 0.661659 0.359949
vt 0.636481 0.359953
vt 0.639822 0.359715
vt 0.665000 0.359786
vn 1.000000 -0.000800 -0.000100
vn 1.000000 -0.000800 0.000100
vn 1.000000 -0.000600 0.000000
vn 1.000000 -0.000600 0.000000
vn 0.001300 0.000000 0.999999
vn 0.001300 0.000000 0.999999
vn 0.001300 0.000000 0.999999
vn 0.001300 0.000000 0.999999
vn -1.000000 0.000000 0.000000
vn -1.000000 0.000500 0.000000
vn -1.000000 0.000400 0.000000
vn -1.000000 0.000000 0.000000
vn 0.000000 0.000000 -1.000000
vn 0.000000 0.000000 -1.000000
vn 0.000000 0.000000 -1.000000
vn 0.000000 0.000000 -1.000000
vn 0.000000 0.000000 1.000000
vn 0.000000 0.000000 1.000000
vn 0.000700 0.000000 1.000000
vn 0.000700 0.000000 1.000000
vn 0.000000 0.000000 -1.000000
vn 0.000000 0.000000 -1.000000
vn 0.000000 0.000000 -1.000000
vn 0.000000 0.000000 -1.000000
vn 1.000000 0.000000 0.000000
vn 1.000000 0.000000 0.000000
vn 1.000000 0.000000 0.000000
vn 1.000000 0.000000 0.000000
vn 0.000000 1.000000 0.000000
vn 0.000000 1.000000 0.000000
vn 0.000000 1.000000 0.000000
vn 0.000000 1.000000 0.000000
vn 0.000000 0.000000 1.000000
vn 0.000000 0.000000 1.000000
vn 0.000000 0.000000 1.000000
vn 0.000000 0.000000 1.000000
vn 1.000000 0.000000 0.000000
vn 1.000000 0.000000 0.000000
vn 1.000000 0.000000 0.000000
vn 1.000000 0.000000 0.000000
vn 0.000000 0.000000 -1.000000
vn 0.000000 0.000000 -1.000000
vn 0.000000 0.000000 -1.000000
vn 0.000000 0.000000 -1.000000
vn 1.000000 0.000000 0.000000
vn 1.000000 0.000000 0.000000
vn 1.000000 0.000000 0.000000
vn 1.000000 0.000000 0.000000
vn 0.000000 1.000000 0.000000
vn 0.000000 1.000000 0.000000
vn 0.000000 1.000000 0.000000
vn 0.000000 1.000000 0.000000
vn 0.001300 0.000000 0.999999
vn 0.001300 0.000000 0.999999
vn 0.001300 -0.000100 0.999999
vn 0.001300 -0.000100 0.999999
vn -1.000000 0.000000 0.000000
vn -1.000000 0.000600 0.000000
vn -1.000000 0.000700 0.000000
vn -1.000000 0.000000 0.000000
vn 0.000000 0.000000 -1.000000
vn 0.000000 0.000000 -1.000000
vn 0.000000 0.000100 -1.000000
vn 0.000000 0.000100 -1.000000
vn 0.000000 0.000000 1.000000
vn 0.000000 0.000000 1.000000
vn 0.000000 0.000000 1.000000
vn 0.000000 0.000000 1.000000
vn 0.001000 1.000000 0.000100
vn 0.001000 1.000000 0.000100
vn 0.001100 0.999999 0.000100
vn 0.001100 0.999999 0.000100
vn 0.000300 1.000000 0.000100
vn 0.000300 1.000000 0.000100
vn 0.000800 1.000000 0.000100
vn 0.000800 1.000000 0.000100
vn 0.000000 0.000000 -1.000000
vn 0.000000 0.000000 -1.000000
vn 0.000000 0.000000 -1.000000
vn 0.000000 0.000000 -1.000000
vn 0.000700 0.000000 1.000000
vn 0.000700 0.000000 1.000000
vn 0.001300 0.000000 0.999999
vn 0.001300 0.000000 0.999999
vn 0.000100 1.000000 0.000100
vn 0.000100 1.000000 0.000100
vn 0.000300 1.000000 0.000100
vn 0.000300 1.000000 0.000100
vn 0.000100 0.978278 -0.207295
vn 0.000100 0.978278 -0.207295
vn 0.000100 0.978278 -0.207295
vn 0.000100 0.978278 -0.207295
vn 0.000600 1.000000 0.000000
vn 0.000600 1.000000 0.000000
vn 0.001100 0.999999 0.000000
vn 0.001100 0.999999 0.000000
vn 0.001100 0.999999 0.000000
vn 0.001100 0.999999 0.000000
vn -1.000000 0.000600 0.000000
vn -1.000000 0.000400 0.000000
vn -1.000000 0.000600 0.000000
vn -0.999999 0.001100 -0.000100
vn 0.999999 -0.001100 0.000100
vn 0.999999 -0.001300 0.000000
vn 0.999999 -0.001300 0.000000
vn 0.999999 -0.001100 0.000100
vn -1.000000 0.000500 0.000000
vn -1.000000 0.000700 0.000000
vn -0.999999 0.001300 0.000000
vn -0.999999 0.001100 0.000100
vn 0.999999 -0.001100 -0.000100
vn 1.000000 -0.000800 -0.000100
vn 1.000000 -0.000600 0.000000
vn 0.999999 -0.001100 -0.000100
vn -1.000000 0.000400 0.000000
vn -1.000000 0.000500 0.000000
vn -1.000000 0.000500 0.000000
vn -1.000000 0.000400 0.000000
vn -1.000000 0.000600 0.000000
vn -1.000000 0.000600 0.000000
vn 0.999999 -0.001300 0.000000
vn 0.999999 -0.001100 -0.000100
vn 0.999999 -0.001100 -0.000100
vn 0.999999 -0.001300 0.000000
vn -1.000000 0.000400 0.000000
vn -1.000000 0.000500 0.000000
vn -0.999999 0.001100 0.000100
vn -1.000000 0.000600 0.000000
vn 0.000800 1.000000 0.000100
vn 0.000800 1.000000 0.000100
vn 0.001000 1.000000 0.000100
vn 0.001000 1.000000 0.000100
vn -1.000000 0.000000 0.000000
vn -1.000000 0.000700 0.000000
vn -1.000000 0.000500 0.000000
vn -1.000000 0.000000 0.000000
vn 1.000000 -0.000800 0.000100
vn 0.999999 -0.001100 0.000100
vn 0.999999 -0.001100 0.000100
vn 1.000000 -0.000600 0.000000
vn -1.000000 0.000700 0.000000
vn -1.000000 0.000600 0.000000
vn -0.999999 0.001100 -0.000100
vn -0.999999 0.001300 0.000000
vn 0.000000 1.000000 0.000000
vn 0.000000 1.000000 0.000000
vn 0.000000 1.000000 0.000100
vn 0.000000 1.000000 0.000100
vn 0.000100 1.000000 0.000100
vn 0.000100 1.000000 0.000100
vn -1.000000 0.000000 0.000000
vn -1.000000 0.000000 0.000000
vn -1.000000 0.000000 0.000000
vn -1.000000 0.000000 0.000000
vn -1.000000 0.000000 0.000000
vn -1.000000 0.000000 0.000000
vn -1.000000 0.000000 0.000000
vn -1.000000 0.000000 0.000000
vn -1.000000 0.000000 0.000000
vn -1.000000 0.000400 0.000000
vn -1.000000 0.000600 0.000000
vn -1.000000 0.000000 0.000000
vn -1.000000 0.000000 0.000000
vn -1.000000 0.000000 0.000000
vn 0.000000 0.000100 -1.000000
vn 0.000000 0.000100 -1.000000
vn 0.000000 0.000100 -1.000000
vn 0.000000 0.000100 -1.000000
vn -0.003500 -0.976873 -0.213794
vn -0.003500 -0.976873 -0.213794
vn -0.003500 -0.976873 -0.213794
vn -0.003500 -0.976873 -0.213794
vn -1.000000 0.000500 0.000000
vn -1.000000 0.000400 0.000000
vn -1.000000 0.000000 0.000000
vn -1.000000 0.000500 0.000000
vn -1.000000 0.000000 0.000000
vn -1.000000 0.000400 0.000000
vn -0.003400 -0.968727 0.248107
vn -0.003400 -0.968727 0.248107
vn -0.003400 -0.968727 0.248107
vn -0.003400 -0.968727 0.248107
vn -0.007100 -0.999975 0.000000
vn -0.007100 -0.999975 0.000000
vn -0.007100 -0.999975 0.000000
vn -0.007100 -0.999975 0.000000
vn -1.000000 0.000000 0.000000
vn -1.000000 0.000000 0.000000
vn -1.000000 0.000000 0.000000
vn -1.000000 0.000000 0.000000
s off
g initialShadingGroup initialShadingGroupMesh
f 1/1/1 2/2/2 3/3/3 4/4/4
f 5/5/5 6/6/6 7/7/7 8/8/8
f 9/9/9 10/10/10 11/11/11 12/12/12
f 13/13/13 14/14/14 15/15/15 16/16/16
f 17/17/17 18/18/18 19/19/19 20/20/20
f 21/21/21 22/22/22 23/23/23 24/24/24
f 24/24/25 23/23/26 18/18/27 17/17/28
f 22/25/29 19/26/30 18/27/31 23/28/32
f 25/29/33 26/30/34 27/31/35 28/32/36
f 28/32/37 27/31/38 22/22/39 21/21/40
f 16/16/41 15/15/42 29/33/43 30/34/44
f 30/34/45 29/33/46 26/30/47 25/29/48
f 15/35/49 27/36/50 26/37/51 29/38/52
f 7/7/53 6/6/54 31/39/55 32/40/56
f 33/41/57 34/42/58 35/43/59 36/44/60
f 14/14/61 35/43/62 37/45/63 38/46/64
f 39/47/65 40/48/66 41/49/67 42/50/68
f 43/51/69 44/52/70 6/53/71 19/26/72
f 45/54/73 2/55/74 1/56/75 46/57/76
f 36/44/77 35/43/78 14/14/79 13/13/80
f 20/20/81 19/19/82 6/6/83 5/5/84
f 47/58/85 48/59/86 2/55/87 45/54/88
s 1
f 49/60/89 50/61/90 51/62/91 3/63/92
f 3/63/92 51/62/91 52/64/93 4/65/94
f 53/66/95 54/67/96 32/68/97 31/69/98
s off
f 34/42/99 55/70/100 51/71/101 50/72/102
f 48/73/103 14/14/104 38/46/105 49/74/106
f 10/10/107 7/7/108 32/40/109 54/75/110
f 44/76/111 1/1/112 4/4/113 53/77/114
f 55/70/115 56/78/116 57/79/117 11/11/118 52/80/119 51/71/120
f 6/6/121 44/76/122 53/77/123 31/39/124
f 11/11/125 10/10/126 54/75/127 52/80/128
s 1
f 4/65/94 52/64/93 54/67/96 53/66/95
s off
f 46/57/129 1/56/130 44/52/131 43/51/132
f 8/8/133 7/7/134 10/10/135 9/9/136
f 2/2/137 48/73/138 49/74/139 3/3/140
f 35/43/141 34/42/142 50/72/143 37/45/144
s 1
f 38/81/145 37/82/146 50/61/90 49/60/89
s off
f 15/35/147 14/83/148 48/59/149 47/58/150
f 40/48/151 39/47/152 33/41/153
f 58/84/154 59/85/155 42/86/156 41/87/157
f 33/41/158 39/47/159 55/70/160 34/42/161
f 12/12/162 60/88/163 9/9/164
f 60/88/165 12/12/166 59/89/167 58/90/168
f 12/12/169 57/79/170 61/91/171 59/89/172
f 56/78/173 55/70/174 39/47/175
f 57/79/176 12/12/177 11/11/178
f 62/92/179 56/78/180 39/47/181 42/50/182
f 62/92/183 61/91/184 57/79/185 56/78/186
f 42/86/187 59/85/188 61/93/189 62/94/190
